<?xml version="1.0" encoding="utf-8"?>
<!-- Generator: Adobe Illustrator 16.0.3, SVG Export Plug-In . SVG Version: 6.00 Build 0)  -->
<!DOCTYPE svg PUBLIC "-//W3C//DTD SVG 1.1//EN" "http://www.w3.org/Graphics/SVG/1.1/DTD/svg11.dtd">
<svg version="1.1" xmlns="http://www.w3.org/2000/svg" xmlns:xlink="http://www.w3.org/1999/xlink" x="0px" y="0px" width="1750px"
	 height="896px" viewBox="0 0 1750 896" enable-background="new 0 0 1750 896" xml:space="preserve">
<g id="Capa_1">
</g>
<g id="Capa_3">
	<line fill="none" x1="0" y1="393" x2="128" y2="395"/>
	<path fill="none" d="M534,442"/>
	<path fill="none" d="M622,442"/>
	<g>
		<path fill="none" d="M700,593"/>
		<g>
			<linearGradient id="SVGID_1_" gradientUnits="userSpaceOnUse" x1="1470.96" y1="920.6133" x2="1470.96" y2="920.6133">
				<stop  offset="0" style="stop-color:#E1DFDF"/>
				<stop  offset="0.1738" style="stop-color:#DBDAD8"/>
				<stop  offset="0.352" style="stop-color:#CCC9C6"/>
				<stop  offset="0.5323" style="stop-color:#B2AEA9"/>
				<stop  offset="0.7139" style="stop-color:#918C87"/>
				<stop  offset="0.8949" style="stop-color:#6B6664"/>
				<stop  offset="1" style="stop-color:#535050"/>
			</linearGradient>
			<path fill="none" stroke="url(#SVGID_1_)" stroke-miterlimit="10" d="M1470.959,920.612"/>
			<linearGradient id="SVGID_2_" gradientUnits="userSpaceOnUse" x1="4.9595" y1="677.6133" x2="4.9595" y2="677.6133">
				<stop  offset="0" style="stop-color:#E1DFDF"/>
				<stop  offset="0.1738" style="stop-color:#DBDAD8"/>
				<stop  offset="0.352" style="stop-color:#CCC9C6"/>
				<stop  offset="0.5323" style="stop-color:#B2AEA9"/>
				<stop  offset="0.7139" style="stop-color:#918C87"/>
				<stop  offset="0.8949" style="stop-color:#6B6664"/>
				<stop  offset="1" style="stop-color:#535050"/>
			</linearGradient>
			<path fill="none" stroke="url(#SVGID_2_)" stroke-miterlimit="10" d="M4.959,677.612"/>
			<linearGradient id="SVGID_3_" gradientUnits="userSpaceOnUse" x1="-89.0488" y1="576.7441" x2="-89.0488" y2="576.7441">
				<stop  offset="0" style="stop-color:#E1DFDF"/>
				<stop  offset="0.1738" style="stop-color:#DBDAD8"/>
				<stop  offset="0.352" style="stop-color:#CCC9C6"/>
				<stop  offset="0.5323" style="stop-color:#B2AEA9"/>
				<stop  offset="0.7139" style="stop-color:#918C87"/>
				<stop  offset="0.8949" style="stop-color:#6B6664"/>
				<stop  offset="1" style="stop-color:#535050"/>
			</linearGradient>
			<path fill="none" stroke="url(#SVGID_3_)" stroke-miterlimit="10" d="M-89.049,576.744"/>
			<linearGradient id="SVGID_4_" gradientUnits="userSpaceOnUse" x1="1818.9521" y1="558.7451" x2="1818.9521" y2="558.7451">
				<stop  offset="0" style="stop-color:#E1DFDF"/>
				<stop  offset="0.1738" style="stop-color:#DBDAD8"/>
				<stop  offset="0.352" style="stop-color:#CCC9C6"/>
				<stop  offset="0.5323" style="stop-color:#B2AEA9"/>
				<stop  offset="0.7139" style="stop-color:#918C87"/>
				<stop  offset="0.8949" style="stop-color:#6B6664"/>
				<stop  offset="1" style="stop-color:#535050"/>
			</linearGradient>
			<path fill="none" stroke="url(#SVGID_4_)" stroke-miterlimit="10" d="M1818.951,558.744"/>
		</g>
		
			<linearGradient id="SVGID_5_" gradientUnits="userSpaceOnUse" x1="687.27" y1="-1085.5112" x2="2011.0481" y2="238.2759" gradientTransform="matrix(1.3787 -1.1239 0.8928 1.4105 9.074 1300.4446)">
			<stop  offset="0" style="stop-color:#E1DFDF"/>
			<stop  offset="0.1738" style="stop-color:#DBDAD8"/>
			<stop  offset="0.352" style="stop-color:#CCC9C6"/>
			<stop  offset="0.5323" style="stop-color:#B2AEA9"/>
			<stop  offset="0.7139" style="stop-color:#918C87"/>
			<stop  offset="0.8949" style="stop-color:#6B6664"/>
			<stop  offset="1" style="stop-color:#535050"/>
		</linearGradient>
		<polygon fill="#21A7B8" stroke="url(#SVGID_5_)" stroke-miterlimit="10" points="3085.654,-1104.107 2382.74,540.192 
			788.043,830.877 -103.737,-522.739 599.176,-2167.041 2193.872,-2457.724 		"/>
		<polygon fill="#21A7B8" points="2034,-452.226 788.426,830.877 -804.505,530.663 -1151.859,-1052.655 93.716,-2335.76 
			1686.645,-2035.545 		"/>
	</g>
</g>
<g id="Capa_2" display="none">
</g>
<g id="Capa_4">
	<polyline fill="#3DB4C5" points="1410,409 1470.959,409 1470.959,289 1572,289 1572,352.5 1606,349 1606,382 1666,389 1666,475 
		1702,465 1702,382 1832,382 1897.921,628.566 788.043,830.877 -10.255,680.353 -20,433 112,429 112,335 178,335 178,311 254,311 
		254,395 292,395 292,511 334,511 334,382 462,382 462,323 514,323 514,465 560,465 560,255 644,255 644,521 666,521 666,485 
		714,485 714,409 778,409 778,369 904,369 904,409 976,409 976,273 1066,273 1066,353 1166,353 1166,225 1246,225 1246,191 
		1366,191 1366,225 1410,225 1410,395 	"/>
</g>
</svg>
