<?xml version="1.0" encoding="utf-8"?>
<!-- Generator: Adobe Illustrator 16.0.3, SVG Export Plug-In . SVG Version: 6.00 Build 0)  -->
<!DOCTYPE svg PUBLIC "-//W3C//DTD SVG 1.1//EN" "http://www.w3.org/Graphics/SVG/1.1/DTD/svg11.dtd">
<svg version="1.1" xmlns="http://www.w3.org/2000/svg" xmlns:xlink="http://www.w3.org/1999/xlink" x="0px" y="0px"
	 width="134.586px" height="134.18px" viewBox="0 0 134.586 134.18" enable-background="new 0 0 134.586 134.18"
	 xml:space="preserve">
<g id="Background">
</g>
<g id="Graphic_Elements">
	<g>
		<path d="M89.921-80.097c-3.056-0.914-5.543-2.152-7.46-3.713c-1.027-0.758-1.539-1.829-1.539-3.212
			c0-0.936,0.278-1.75,0.836-2.442c0.557-0.691,1.215-1.037,1.974-1.037c0.803,0,1.716,0.313,2.743,0.937
			c1.917,1.383,3.925,2.387,6.022,3.011c2.096,0.625,4.416,0.937,6.959,0.937c3.256,0,5.754-0.569,7.494-1.707
			c1.74-1.138,2.61-2.799,2.61-4.985c0-1.695-0.814-3-2.442-3.915c-1.628-0.914-4.339-1.795-8.13-2.643
			c-3.926-0.847-7.116-1.829-9.569-2.944c-2.454-1.115-4.305-2.543-5.554-4.283c-1.25-1.74-1.873-3.948-1.873-6.625
			c0-2.766,0.779-5.242,2.342-7.428c1.561-2.185,3.736-3.892,6.524-5.119c2.788-1.227,5.922-1.84,9.401-1.84
			c6.379,0,11.577,1.696,15.591,5.085c0.58,0.492,0.992,0.971,1.238,1.439c0.245,0.468,0.368,1.06,0.368,1.773
			c0,0.937-0.279,1.751-0.836,2.442c-0.558,0.692-1.216,1.037-1.974,1.037c-0.446,0-0.859-0.066-1.237-0.2
			c-0.379-0.134-0.882-0.378-1.506-0.736c-1.83-1.339-3.603-2.331-5.32-2.978c-1.718-0.646-3.825-0.97-6.324-0.97
			c-3.034,0-5.431,0.614-7.193,1.84c-1.763,1.228-2.643,2.934-2.643,5.119c0,1.83,0.78,3.235,2.342,4.216
			c1.561,0.982,4.216,1.896,7.963,2.744c3.97,0.893,7.193,1.885,9.669,2.977c2.476,1.094,4.372,2.488,5.688,4.183
			c1.315,1.696,1.974,3.814,1.974,6.357c0,2.767-0.769,5.208-2.308,7.328s-3.704,3.77-6.491,4.951
			c-2.789,1.182-5.989,1.773-9.603,1.773C96.222-78.725,92.976-79.183,89.921-80.097z"/>
		<path d="M145.125-81.669c-3.369-1.962-5.967-4.773-7.796-8.431c-1.83-3.657-2.744-7.94-2.744-12.848
			c0-4.907,0.904-9.178,2.71-12.814c1.807-3.635,4.405-6.434,7.795-8.397c3.39-1.963,7.382-2.945,11.978-2.945
			c4.594,0,8.575,0.982,11.944,2.945c3.367,1.963,5.955,4.762,7.762,8.397c1.806,3.636,2.709,7.908,2.709,12.814
			c0,4.908-0.915,9.19-2.743,12.848c-1.83,3.658-4.428,6.469-7.795,8.431c-3.369,1.963-7.328,2.944-11.877,2.944
			C152.474-78.725,148.493-79.706,145.125-81.669z M167.207-90.1c2.431-2.988,3.647-7.271,3.647-12.848
			c0-5.576-1.217-9.847-3.647-12.814c-2.432-2.966-5.811-4.45-10.137-4.45c-4.373,0-7.774,1.483-10.205,4.45
			c-2.432,2.967-3.647,7.238-3.647,12.814c0,5.577,1.215,9.859,3.647,12.848c2.431,2.989,5.832,4.483,10.205,4.483
			C161.396-85.617,164.775-87.111,167.207-90.1z"/>
		<path d="M207.355-81.669c-3.413-1.962-6.034-4.773-7.863-8.431c-1.83-3.657-2.744-7.94-2.744-12.848
			c0-4.907,0.914-9.178,2.744-12.814c1.829-3.635,4.45-6.434,7.863-8.397c3.413-1.963,7.394-2.945,11.944-2.945
			c2.944,0,5.709,0.436,8.297,1.305c2.587,0.87,4.885,2.131,6.892,3.78c0.579,0.447,0.98,0.915,1.204,1.406
			c0.223,0.492,0.335,1.094,0.335,1.807c0,0.981-0.268,1.807-0.803,2.476c-0.535,0.669-1.182,1.003-1.94,1.003
			c-0.893,0-1.807-0.311-2.744-0.936c-1.918-1.427-3.703-2.419-5.353-2.978c-1.651-0.558-3.479-0.836-5.487-0.836
			c-4.64,0-8.153,1.45-10.539,4.35c-2.387,2.9-3.58,7.16-3.58,12.781c0,5.666,1.193,9.948,3.58,12.848
			c2.386,2.9,5.899,4.349,10.539,4.349c1.917,0,3.691-0.29,5.32-0.87c1.627-0.579,3.468-1.562,5.52-2.944
			c0.445-0.268,0.892-0.49,1.338-0.669c0.446-0.177,0.914-0.267,1.405-0.267c0.758,0,1.406,0.334,1.94,1.003
			c0.535,0.669,0.803,1.495,0.803,2.476c0,0.669-0.112,1.261-0.335,1.773c-0.224,0.513-0.625,0.994-1.204,1.439
			c-2.007,1.65-4.305,2.911-6.892,3.78c-2.588,0.87-5.354,1.305-8.297,1.305C214.75-78.725,210.768-79.706,207.355-81.669z"/>
		<path d="M254.798-80.13c-0.781-0.803-1.171-1.851-1.171-3.145v-39.279c0-1.293,0.39-2.331,1.171-3.111
			c0.78-0.78,1.817-1.171,3.111-1.171c1.338,0,2.397,0.391,3.179,1.171c0.78,0.781,1.171,1.818,1.171,3.111v39.279
			c0,1.294-0.391,2.342-1.171,3.145c-0.781,0.803-1.84,1.205-3.179,1.205C256.615-78.925,255.578-79.327,254.798-80.13z"/>
		<path d="M325.626-82.74c0,1.027-0.413,1.897-1.238,2.61c-0.826,0.714-1.773,1.07-2.844,1.07c-0.714,0-1.383-0.19-2.007-0.568
			c-0.625-0.379-1.116-0.97-1.472-1.773l-4.015-8.967h-23.554l-4.015,8.967c-0.357,0.803-0.848,1.395-1.472,1.773
			c-0.625,0.378-1.317,0.568-2.075,0.568c-1.027,0-1.963-0.356-2.811-1.07c-0.848-0.713-1.271-1.583-1.271-2.61
			c0-0.579,0.134-1.16,0.401-1.74l18.469-39.68c0.401-0.892,1.014-1.573,1.84-2.042c0.825-0.468,1.706-0.702,2.643-0.702
			c0.937,0,1.817,0.234,2.643,0.702c0.825,0.469,1.439,1.149,1.84,2.042l18.535,39.68C325.492-83.899,325.626-83.319,325.626-82.74z
			 M293.44-97.06h17.665l-8.833-19.874L293.44-97.06z"/>
		<path d="M343.224-80.397c-0.714-0.713-1.071-1.695-1.071-2.944v-39.212c0-1.293,0.39-2.331,1.171-3.111
			c0.78-0.78,1.817-1.171,3.112-1.171c1.338,0,2.397,0.391,3.178,1.171c0.78,0.781,1.171,1.818,1.171,3.111v36.134h18.803
			c2.677,0,4.016,1.183,4.016,3.546c0,2.365-1.339,3.546-4.016,3.546h-23.353C344.941-79.327,343.938-79.684,343.224-80.397z"/>
		<path d="M462.399-125.666c0.758,0.781,1.137,1.818,1.137,3.111v39.614c0,1.249-0.358,2.23-1.07,2.944
			c-0.714,0.713-1.651,1.071-2.811,1.071c-1.161,0-2.075-0.358-2.744-1.071c-0.669-0.713-1.004-1.695-1.004-2.944v-27.569
			l-11.375,21.547c-0.535,0.981-1.116,1.706-1.74,2.174s-1.361,0.703-2.208,0.703c-0.848,0-1.584-0.223-2.208-0.669
			c-0.625-0.445-1.205-1.182-1.74-2.208l-11.442-21.212v27.234c0,1.204-0.346,2.174-1.037,2.91
			c-0.692,0.736-1.617,1.104-2.777,1.104c-1.161,0-2.075-0.358-2.744-1.071c-0.669-0.713-1.004-1.695-1.004-2.944v-39.614
			c0-1.293,0.369-2.331,1.104-3.111c0.736-0.78,1.728-1.171,2.978-1.171c1.74,0,3.1,0.959,4.082,2.877l14.855,28.305l14.788-28.305
			c0.98-1.918,2.297-2.877,3.948-2.877C460.636-126.836,461.64-126.445,462.399-125.666z"/>
		<path d="M484.915-80.397c-0.736-0.713-1.104-1.717-1.104-3.011v-39.011c0-1.293,0.368-2.297,1.104-3.012
			c0.736-0.712,1.75-1.07,3.045-1.07h24.156c1.293,0,2.297,0.291,3.011,0.87c0.713,0.58,1.071,1.405,1.071,2.476
			c0,1.116-0.357,1.974-1.071,2.577c-0.714,0.602-1.718,0.903-3.011,0.903h-19.874v12.981h18.536c1.293,0,2.297,0.291,3.011,0.87
			c0.713,0.581,1.071,1.429,1.071,2.543c0,1.071-0.358,1.897-1.071,2.476c-0.714,0.581-1.718,0.87-3.011,0.87h-18.536v13.785h19.874
			c1.293,0,2.297,0.301,3.011,0.903c0.713,0.603,1.071,1.462,1.071,2.576c0,1.071-0.357,1.896-1.071,2.476
			c-0.714,0.581-1.718,0.87-3.011,0.87h-24.156C486.665-79.327,485.65-79.684,484.915-80.397z"/>
		<path d="M534.364-80.397c-0.736-0.713-1.104-1.717-1.104-3.011v-39.011c0-1.293,0.368-2.297,1.104-3.012
			c0.735-0.712,1.75-1.07,3.044-1.07h13.249c7.717,0,13.707,2.064,17.968,6.189c4.258,4.127,6.39,9.916,6.39,17.365
			c0,7.494-2.132,13.306-6.39,17.431c-4.261,4.126-10.251,6.189-17.968,6.189h-13.249C536.114-79.327,535.1-79.684,534.364-80.397z
			 M550.122-86.353c10.84,0,16.261-5.531,16.261-16.595c0-11.018-5.421-16.528-16.261-16.528h-8.23v33.123H550.122z"/>
		<path d="M594.921-80.13c-0.781-0.803-1.17-1.851-1.17-3.145v-39.279c0-1.293,0.389-2.331,1.17-3.111
			c0.78-0.78,1.817-1.171,3.111-1.171c1.339,0,2.397,0.391,3.179,1.171c0.78,0.781,1.172,1.818,1.172,3.111v39.279
			c0,1.294-0.392,2.342-1.172,3.145c-0.781,0.803-1.84,1.205-3.179,1.205C596.738-78.925,595.701-79.327,594.921-80.13z"/>
		<path d="M665.751-82.74c0,1.027-0.414,1.897-1.239,2.61c-0.825,0.714-1.772,1.07-2.843,1.07c-0.715,0-1.384-0.19-2.008-0.568
			c-0.625-0.379-1.116-0.97-1.473-1.773l-4.015-8.967H630.62l-4.015,8.967c-0.358,0.803-0.848,1.395-1.473,1.773
			c-0.625,0.378-1.316,0.568-2.074,0.568c-1.027,0-1.964-0.356-2.811-1.07c-0.848-0.713-1.271-1.583-1.271-2.61
			c0-0.579,0.134-1.16,0.402-1.74l18.468-39.68c0.402-0.892,1.015-1.573,1.841-2.042c0.824-0.468,1.706-0.702,2.643-0.702
			c0.938,0,1.816,0.234,2.644,0.702c0.824,0.469,1.438,1.149,1.84,2.042l18.535,39.68C665.617-83.899,665.751-83.319,665.751-82.74z
			 M633.563-97.06h17.666l-8.833-19.874L633.563-97.06z"/>
		<path d="M711.619-80.13c-0.781-0.803-1.171-1.851-1.171-3.145v-39.279c0-1.293,0.39-2.331,1.171-3.111
			c0.78-0.78,1.817-1.171,3.111-1.171c1.339,0,2.397,0.391,3.179,1.171c0.78,0.781,1.171,1.818,1.171,3.111v39.279
			c0,1.294-0.391,2.342-1.171,3.145c-0.781,0.803-1.84,1.205-3.179,1.205C713.437-78.925,712.399-79.327,711.619-80.13z"/>
		<path d="M748.422-81.669c-3.413-1.962-6.034-4.773-7.862-8.431c-1.83-3.657-2.744-7.94-2.744-12.848
			c0-4.907,0.914-9.178,2.744-12.814c1.828-3.635,4.449-6.434,7.862-8.397c3.413-1.963,7.395-2.945,11.944-2.945
			c2.944,0,5.709,0.436,8.297,1.305c2.587,0.87,4.885,2.131,6.893,3.78c0.579,0.447,0.981,0.915,1.204,1.406
			c0.224,0.492,0.335,1.094,0.335,1.807c0,0.981-0.268,1.807-0.803,2.476c-0.535,0.669-1.183,1.003-1.94,1.003
			c-0.893,0-1.807-0.311-2.744-0.936c-1.918-1.427-3.703-2.419-5.353-2.978c-1.651-0.558-3.479-0.836-5.487-0.836
			c-4.64,0-8.153,1.45-10.539,4.35c-2.387,2.9-3.58,7.16-3.58,12.781c0,5.666,1.193,9.948,3.58,12.848
			c2.386,2.9,5.899,4.349,10.539,4.349c1.918,0,3.691-0.29,5.32-0.87c1.627-0.579,3.468-1.562,5.52-2.944
			c0.446-0.268,0.893-0.49,1.339-0.669c0.445-0.177,0.913-0.267,1.405-0.267c0.758,0,1.405,0.334,1.94,1.003
			s0.803,1.495,0.803,2.476c0,0.669-0.111,1.261-0.335,1.773c-0.223,0.513-0.625,0.994-1.204,1.439
			c-2.008,1.65-4.306,2.911-6.893,3.78c-2.588,0.87-5.353,1.305-8.297,1.305C755.816-78.725,751.835-79.706,748.422-81.669z"/>
		<path d="M802.891-81.669c-3.367-1.962-5.967-4.773-7.795-8.431c-1.83-3.657-2.744-7.94-2.744-12.848
			c0-4.907,0.904-9.178,2.711-12.814c1.807-3.635,4.404-6.434,7.795-8.397c3.391-1.963,7.384-2.945,11.978-2.945
			c4.595,0,8.575,0.982,11.944,2.945c3.368,1.963,5.956,4.762,7.763,8.397c1.806,3.636,2.71,7.908,2.71,12.814
			c0,4.908-0.915,9.19-2.743,12.848c-1.83,3.658-4.428,6.469-7.796,8.431c-3.369,1.963-7.328,2.944-11.878,2.944
			C810.241-78.725,806.259-79.706,802.891-81.669z M824.973-90.1c2.431-2.988,3.647-7.271,3.647-12.848
			c0-5.576-1.217-9.847-3.647-12.814c-2.432-2.966-5.811-4.45-10.138-4.45c-4.372,0-7.773,1.483-10.204,4.45
			c-2.432,2.967-3.647,7.238-3.647,12.814c0,5.577,1.216,9.859,3.647,12.848c2.431,2.989,5.832,4.483,10.204,4.483
			C819.162-85.617,822.541-87.111,824.973-90.1z"/>
		<path d="M894.698-125.666c0.736,0.781,1.104,1.818,1.104,3.111v39.279c0,1.294-0.38,2.342-1.139,3.145
			c-0.759,0.803-1.739,1.205-2.943,1.205c-1.429,0-2.521-0.512-3.279-1.539l-24.424-31.785v28.974c0,1.294-0.357,2.342-1.07,3.145
			c-0.715,0.803-1.696,1.205-2.944,1.205c-1.25,0-2.231-0.402-2.943-1.205c-0.716-0.803-1.071-1.851-1.071-3.145v-39.279
			c0-1.293,0.378-2.331,1.137-3.111c0.759-0.78,1.762-1.171,3.012-1.171c1.382,0,2.453,0.513,3.212,1.539l24.356,31.65v-28.907
			c0-1.293,0.368-2.331,1.104-3.111c0.735-0.78,1.707-1.171,2.911-1.171C892.969-126.836,893.962-126.445,894.698-125.666z"/>
		<path d="M922.602-80.097c-3.057-0.914-5.543-2.152-7.462-3.713c-1.026-0.758-1.539-1.829-1.539-3.212
			c0-0.936,0.278-1.75,0.837-2.442c0.558-0.691,1.215-1.037,1.975-1.037c0.803,0,1.717,0.313,2.743,0.937
			c1.917,1.383,3.925,2.387,6.022,3.011c2.096,0.625,4.416,0.937,6.959,0.937c3.256,0,5.755-0.569,7.494-1.707
			c1.74-1.138,2.609-2.799,2.609-4.985c0-1.695-0.813-3-2.441-3.915c-1.63-0.914-4.339-1.795-8.13-2.643
			c-3.927-0.847-7.117-1.829-9.569-2.944c-2.454-1.115-4.306-2.543-5.554-4.283c-1.25-1.74-1.874-3.948-1.874-6.625
			c0-2.766,0.779-5.242,2.342-7.428c1.562-2.185,3.736-3.892,6.525-5.119c2.786-1.227,5.921-1.84,9.4-1.84
			c6.379,0,11.576,1.696,15.592,5.085c0.579,0.492,0.992,0.971,1.237,1.439c0.244,0.468,0.368,1.06,0.368,1.773
			c0,0.937-0.279,1.751-0.837,2.442c-0.558,0.692-1.215,1.037-1.974,1.037c-0.445,0-0.859-0.066-1.238-0.2s-0.881-0.378-1.505-0.736
			c-1.829-1.339-3.603-2.331-5.32-2.978c-1.718-0.646-3.825-0.97-6.323-0.97c-3.034,0-5.432,0.614-7.193,1.84
			c-1.762,1.228-2.643,2.934-2.643,5.119c0,1.83,0.78,3.235,2.342,4.216c1.561,0.982,4.216,1.896,7.963,2.744
			c3.97,0.893,7.193,1.885,9.669,2.977c2.476,1.094,4.371,2.488,5.688,4.183c1.314,1.696,1.973,3.814,1.973,6.357
			c0,2.767-0.769,5.208-2.308,7.328s-3.704,3.77-6.49,4.951c-2.789,1.182-5.99,1.773-9.604,1.773
			C928.902-78.725,925.656-79.183,922.602-80.097z"/>
	</g>
	<g>
		<circle fill="#8DC63F" cx="515.83" cy="67.5" r="67.5"/>
		<g>
			<g>
				<path fill="#FFFFFF" d="M515.83,32.658c11.348,0,12.692,0.043,17.174,0.248c4.144,0.189,6.394,0.882,7.892,1.463
					c1.983,0.771,3.399,1.692,4.887,3.18c1.487,1.487,2.408,2.903,3.179,4.886c0.582,1.498,1.274,3.748,1.464,7.892
					c0.204,4.482,0.247,5.826,0.247,17.174s-0.043,12.692-0.247,17.174c-0.189,4.144-0.882,6.394-1.464,7.892
					c-0.771,1.984-1.691,3.399-3.179,4.887s-2.903,2.408-4.887,3.179c-1.498,0.582-3.748,1.274-7.892,1.463
					c-4.481,0.205-5.825,0.248-17.174,0.248s-12.693-0.043-17.174-0.248c-4.144-0.189-6.394-0.881-7.892-1.463
					c-1.983-0.771-3.399-1.692-4.887-3.179c-1.487-1.487-2.408-2.903-3.179-4.887c-0.582-1.498-1.274-3.748-1.463-7.892
					c-0.204-4.481-0.248-5.826-0.248-17.174s0.043-12.692,0.248-17.173c0.189-4.144,0.881-6.394,1.463-7.892
					c0.771-1.983,1.692-3.399,3.179-4.886c1.487-1.487,2.903-2.408,4.887-3.18c1.498-0.582,3.748-1.274,7.892-1.463
					C503.138,32.701,504.482,32.658,515.83,32.658 M515.83,25c-11.542,0-12.99,0.049-17.522,0.256
					c-4.524,0.207-7.613,0.925-10.317,1.976c-2.794,1.086-5.165,2.539-7.527,4.902s-3.816,4.733-4.902,7.527
					c-1.051,2.704-1.77,5.793-1.976,10.317c-0.207,4.533-0.256,5.98-0.256,17.522s0.049,12.99,0.256,17.523
					c0.206,4.523,0.925,7.613,1.976,10.316c1.086,2.794,2.539,5.165,4.902,7.527s4.733,3.816,7.527,4.902
					c2.704,1.05,5.793,1.769,10.317,1.976c4.533,0.207,5.98,0.255,17.522,0.255c11.542,0,12.989-0.049,17.522-0.255
					c4.524-0.207,7.613-0.925,10.316-1.976c2.795-1.086,5.165-2.54,7.528-4.902c2.362-2.363,3.815-4.733,4.901-7.527
					c1.051-2.704,1.77-5.793,1.976-10.316c0.207-4.533,0.256-5.98,0.256-17.523c0-11.542-0.049-12.99-0.256-17.522
					c-0.206-4.524-0.925-7.613-1.976-10.317c-1.086-2.794-2.539-5.165-4.901-7.527c-2.363-2.363-4.733-3.816-7.528-4.902
					c-2.703-1.051-5.792-1.769-10.316-1.976C528.819,25.049,527.372,25,515.83,25L515.83,25z"/>
				<path fill="#FFFFFF" d="M515.83,45.676c-12.053,0-21.824,9.771-21.824,21.824s9.771,21.824,21.824,21.824
					c12.053,0,21.824-9.771,21.824-21.824S527.883,45.676,515.83,45.676z M515.83,81.667c-7.824,0-14.167-6.343-14.167-14.167
					c0-7.824,6.342-14.167,14.167-14.167s14.167,6.343,14.167,14.167C529.997,75.324,523.654,81.667,515.83,81.667z"/>
				<circle fill="#FFFFFF" cx="538.517" cy="44.813" r="5.1"/>
			</g>
		</g>
	</g>
	<g>
		<circle fill="#010201" cx="291.665" cy="67.5" r="67.5"/>
		<g>
			<g id="logo_5_">
				<path id="bubble_5_" fill-rule="evenodd" clip-rule="evenodd" fill="#FFFFFF" d="M291.665,17.5c-28.73,0-51,21.045-51,49.47
					c0,14.868,6.094,27.716,16.017,36.59c0.833,0.746,1.336,1.79,1.37,2.908l0.278,9.072c0.089,2.894,3.078,4.777,5.726,3.608
					l10.123-4.469c0.858-0.378,1.82-0.449,2.724-0.2c4.651,1.279,9.603,1.96,14.763,1.96c28.73,0,51-21.045,51-49.47
					S320.395,17.5,291.665,17.5z"/>
				<path id="bolt_5_" fill-rule="evenodd" clip-rule="evenodd" fill="#010201" d="M261.04,81.438l14.981-23.768
					c2.383-3.781,7.486-4.723,11.062-2.041l11.916,8.937c1.093,0.82,2.598,0.815,3.686-0.011l16.092-12.213
					c2.148-1.63,4.952,0.94,3.514,3.222L307.31,79.331c-2.383,3.781-7.486,4.723-11.062,2.041l-11.916-8.937
					c-1.093-0.82-2.598-0.815-3.686,0.011l-16.092,12.213C262.406,86.289,259.602,83.718,261.04,81.438z"/>
			</g>
		</g>
	</g>
	<g>
		<circle fill="#010201" cx="739.995" cy="67.5" r="67.5"/>
		<g>
			<g id="WA_Logo_10_">
				<g>
					<path fill-rule="evenodd" clip-rule="evenodd" fill="#FFFFFF" d="M772.465,35.861c-8.084-8.091-18.836-12.549-30.29-12.554
						c-23.603,0-42.812,19.202-42.82,42.804c-0.004,7.544,1.968,14.909,5.716,21.4l-6.075,22.182l22.699-5.953
						c6.255,3.41,13.297,5.208,20.463,5.21h0.018c0.002,0-0.001,0,0,0c23.6,0,42.811-19.204,42.82-42.806
						C784.999,54.707,780.55,43.952,772.465,35.861z M742.175,101.721h-0.015c-6.386-0.002-12.649-1.717-18.114-4.959l-1.3-0.771
						l-13.47,3.533l3.596-13.129l-0.847-1.346c-3.563-5.665-5.444-12.212-5.441-18.935c0.008-19.617,15.974-35.577,35.605-35.577
						c9.506,0.003,18.441,3.709,25.161,10.434c6.72,6.725,10.418,15.665,10.415,25.171
						C777.757,85.761,761.791,101.721,742.175,101.721z M761.697,75.075c-1.07-0.536-6.33-3.123-7.312-3.48
						c-0.98-0.357-1.693-0.536-2.407,0.535c-0.713,1.071-2.764,3.48-3.388,4.194s-1.248,0.803-2.317,0.268
						c-1.07-0.535-4.518-1.665-8.604-5.309c-3.181-2.836-5.328-6.339-5.952-7.41s-0.066-1.65,0.47-2.183
						c0.48-0.479,1.069-1.25,1.604-1.874s0.713-1.071,1.069-1.785c0.357-0.714,0.179-1.338-0.089-1.874
						c-0.268-0.536-2.407-5.8-3.299-7.942c-0.868-2.085-1.75-1.803-2.407-1.836c-0.623-0.031-1.337-0.038-2.051-0.038
						c-0.713,0-1.872,0.268-2.853,1.338c-0.981,1.071-3.745,3.658-3.745,8.923s3.834,10.351,4.369,11.064s7.544,11.518,18.277,16.15
						c2.553,1.102,4.546,1.76,6.1,2.253c2.563,0.814,4.896,0.699,6.739,0.424c2.055-0.307,6.33-2.588,7.222-5.086
						c0.892-2.498,0.892-4.64,0.624-5.086S762.767,75.61,761.697,75.075z"/>
				</g>
			</g>
		</g>
	</g>
	<g>
		<circle fill-rule="evenodd" clip-rule="evenodd" fill="#010201" cx="964.16" cy="67.5" r="67.5"/>
		<g>
			<g>
				<path fill="#FFFFFF" d="M950.521,106.375c32.968,0,50.997-27.313,50.997-50.997c0-0.776-0.017-1.549-0.052-2.317
					c3.499-2.53,6.542-5.687,8.941-9.28c-3.212,1.426-6.668,2.388-10.293,2.821c3.7-2.218,6.541-5.729,7.882-9.915
					c-3.465,2.053-7.299,3.546-11.382,4.351c-3.271-3.484-7.928-5.663-13.083-5.663c-9.898,0-17.926,8.027-17.926,17.922
					c0,1.407,0.157,2.774,0.465,4.087c-14.896-0.749-28.105-7.882-36.944-18.727c-1.541,2.648-2.428,5.726-2.428,9.009
					c0,6.218,3.164,11.708,7.977,14.919c-2.94-0.09-5.703-0.898-8.118-2.242c-0.004,0.075-0.004,0.15-0.004,0.229
					c0,8.681,6.179,15.928,14.38,17.572c-1.506,0.41-3.09,0.63-4.726,0.63c-1.154,0-2.277-0.114-3.369-0.323
					c2.282,7.121,8.898,12.303,16.744,12.449c-6.136,4.808-13.863,7.672-22.261,7.672c-1.446,0-2.873-0.083-4.276-0.248
					C930.979,103.408,940.397,106.375,950.521,106.375"/>
			</g>
		</g>
	</g>
	<g>
		<circle fill-rule="evenodd" clip-rule="evenodd" fill="#010201" cx="739.995" cy="460.605" r="67.5"/>
		<g>
			<g>
				<path fill="#FFFFFF" d="M760.248,503.193h-14.227c-12.811,0-22.357-6.591-22.357-22.357v-25.25h-11.64v-13.672
					c12.81-3.326,18.168-14.351,18.785-23.896h13.302v21.679h15.52v15.89h-15.52v21.986c0,6.59,3.326,8.869,8.622,8.869h7.515
					V503.193z"/>
			</g>
		</g>
	</g>
	<g>
		<g>
			<path fill="#010201" d="M67.556,196.907C30.247,196.907,0,227.154,0,264.463c0,28.634,17.792,53.099,42.924,62.94
				c-0.612-5.338-1.112-13.567,0.222-19.405c1.224-5.282,7.896-33.583,7.896-33.583s-2.001-4.059-2.001-10.008
				c0-9.397,5.449-16.402,12.232-16.402c5.783,0,8.563,4.337,8.563,9.508c0,5.782-3.669,14.456-5.616,22.518
				c-1.612,6.728,3.392,12.232,10.008,12.232c12.01,0,21.24-12.677,21.24-30.914c0-16.18-11.621-27.467-28.246-27.467
				c-19.238,0-30.525,14.4-30.525,29.302c0,5.782,2.224,12.01,5.004,15.401c0.556,0.667,0.611,1.279,0.445,1.946
				c-0.5,2.113-1.668,6.728-1.891,7.673c-0.278,1.223-1.001,1.501-2.28,0.89c-8.451-3.948-13.733-16.236-13.733-26.188
				c0-21.295,15.457-40.867,44.648-40.867c23.408,0,41.645,16.68,41.645,39.032c0,23.297-14.679,42.035-35.029,42.035
				c-6.839,0-13.289-3.559-15.457-7.784c0,0-3.392,12.899-4.226,16.069c-1.501,5.894-5.616,13.233-8.396,17.737
				c6.339,1.946,13.011,3.002,20.017,3.002c37.308,0,67.556-30.247,67.556-67.556C135.111,227.154,104.864,196.907,67.556,196.907z"
				/>
		</g>
	</g>
	<g>
		<circle fill="#8DC63F" cx="515.83" cy="264.518" r="67.5"/>
		<path fill="#FFFFFF" d="M558.949,242.856c-1.035-3.872-4.084-6.922-7.957-7.957c-7.019-1.881-35.162-1.881-35.162-1.881
			s-28.144,0-35.163,1.881c-3.872,1.035-6.922,4.085-7.957,7.957c-1.881,7.019-1.881,21.662-1.881,21.662s0,14.644,1.881,21.663
			c1.035,3.873,4.084,6.922,7.957,7.957c7.019,1.88,35.163,1.88,35.163,1.88s28.144,0,35.162-1.88
			c3.873-1.035,6.922-4.084,7.957-7.957c1.881-7.019,1.881-21.663,1.881-21.663S560.83,249.875,558.949,242.856z M506.83,278.018
			v-27l23.382,13.5L506.83,278.018z"/>
	</g>
	<g>
		<circle fill="#010201" cx="964.16" cy="264.518" r="67.5"/>
		<g>
			<path fill-rule="evenodd" clip-rule="evenodd" fill="#FFFFFF" d="M948.038,255.429c17.943-6.185,20.998-22.296,18.707-37.109
				c0-0.535,0.458-0.917,0.916-0.764c17.181,8.399,36.499,26.725,36.499,54.213c0,21.074-16.341,39.706-40.088,39.706
				c-21.063,0.958-38.915-15.341-39.873-36.405c-0.634-13.951,6.4-27.136,18.341-34.378c0.458-0.306,1.069,0,1.069,0.535
				c0.229,2.825,0.992,9.926,4.123,14.202H948.038z"/>
		</g>
	</g>
	<g>
		<circle fill="#010201" cx="739.995" cy="264.518" r="67.5"/>
		<g>
			<g>
				<path fill="#FEFEFE" d="M745.218,255.31c1.108-1.246,2.022-2.511,3.161-3.583c3.5-3.299,7.642-4.964,12.476-4.923
					c2.656,0.022,5.283,0.214,7.845,0.955c5.858,1.694,9.264,5.727,10.887,11.45c1.218,4.292,1.442,8.698,1.45,13.119
					c0.016,9.324-0.027,18.649-0.007,27.973c0.002,0.873-0.242,1.102-1.103,1.095c-4.803-0.04-9.607-0.041-14.411,0.001
					c-0.845,0.007-1.027-0.254-1.024-1.053c0.026-8.872,0.033-17.745,0.005-26.617c-0.008-2.223-0.149-4.445-0.773-6.607
					c-1.148-3.982-3.999-6.011-8.171-5.791c-5.696,0.301-8.658,3.121-9.385,8.914c-0.174,1.383-0.256,2.768-0.255,4.162
					c0.008,8.628-0.009,17.258,0.023,25.886c0.003,0.86-0.213,1.114-1.092,1.106c-4.838-0.043-9.678-0.038-14.516-0.003
					c-0.775,0.006-1-0.204-0.999-0.988c0.021-17.083,0.022-34.167-0.001-51.251c-0.001-0.845,0.276-1.041,1.075-1.035
					c4.595,0.034,9.19,0.038,13.785-0.003c0.846-0.007,1.063,0.266,1.045,1.067C745.187,251.224,745.218,253.267,745.218,255.31z"/>
				<path fill="#FEFEFE" d="M718.898,274.833c0,8.452-0.015,16.903,0.02,25.355c0.004,0.939-0.229,1.223-1.202,1.212
					c-4.801-0.053-9.604-0.041-14.405-0.007c-0.77,0.005-1.002-0.187-1-0.982c0.022-17.112,0.021-34.224,0.004-51.335
					c-0.001-0.708,0.171-0.961,0.923-0.956c4.871,0.031,9.743,0.041,14.614-0.006c0.936-0.009,1.063,0.354,1.062,1.156
					C718.89,257.791,718.898,266.312,718.898,274.833z"/>
				<path fill="#FEFEFE" d="M720.223,231.162c0.005,5.306-4.303,9.629-9.596,9.631c-5.227,0.002-9.57-4.325-9.587-9.548
					c-0.018-5.282,4.323-9.63,9.606-9.625C715.894,221.625,720.217,225.933,720.223,231.162z"/>
			</g>
		</g>
	</g>
	<g>
		<circle fill-rule="evenodd" clip-rule="evenodd" fill="#010201" cx="67.5" cy="853.709" r="67.5"/>
		<g>
			<circle fill-rule="evenodd" clip-rule="evenodd" fill="#FFFFFF" cx="41.456" cy="853.851" r="20.993"/>
			<circle fill-rule="evenodd" clip-rule="evenodd" fill="#FFFFFF" cx="93.64" cy="853.851" r="20.993"/>
		</g>
	</g>
	<g>
		<circle fill-rule="evenodd" clip-rule="evenodd" fill="#010201" cx="515.83" cy="460.605" r="67.5"/>
		<g>
			<g>
				<path fill="#FFFFFF" d="M539.079,444.683c-0.021,1.855-0.112,3.708-0.25,5.559c-0.024,0.315-0.032,0.632-0.037,0.948
					c-0.011,0.687,0.384,0.968,1.067,0.905c0.249-0.023,0.499-0.089,0.736-0.172c0.675-0.237,1.345-0.488,2.014-0.742
					c1.121-0.427,2.244-0.85,3.415-1.125c0.786-0.185,1.574-0.277,2.377-0.094c1.82,0.417,2.764,2.226,2.061,3.96
					c-0.186,0.456-0.462,0.85-0.787,1.213c-0.467,0.521-1.003,0.965-1.58,1.356c-0.681,0.46-1.369,0.908-2.055,1.36
					c-1.144,0.754-2.291,1.501-3.43,2.263c-0.473,0.316-0.934,0.65-1.384,0.998c-0.249,0.192-0.48,0.412-0.69,0.646
					c-0.429,0.475-0.627,1.043-0.587,1.685c0.039,0.611,0.147,1.21,0.316,1.8c0.543,1.896,1.37,3.665,2.38,5.352
					c1.863,3.108,4.261,5.749,7.064,8.03c2.381,1.938,4.979,3.532,7.731,4.882c0.245,0.12,0.485,0.253,0.721,0.391
					c0.184,0.107,0.34,0.252,0.462,0.427c0.185,0.265,0.21,0.54,0.053,0.832c-0.134,0.247-0.329,0.437-0.54,0.611
					c-0.311,0.256-0.658,0.455-1.01,0.646c-1.563,0.851-3.221,1.452-4.934,1.915c-0.731,0.197-1.459,0.406-2.186,0.621
					c-0.506,0.149-0.981,0.372-1.45,0.615c-0.79,0.409-1.237,1.061-1.404,1.915c-0.093,0.476-0.149,0.957-0.234,1.435
					c-0.216,1.199-0.647,1.642-1.829,1.845c-0.414,0.071-0.836,0.115-1.256,0.138c-1.053,0.059-2.106,0.086-3.159,0.146
					c-2.385,0.135-4.729,0.502-7.008,1.247c-0.965,0.316-1.887,0.727-2.765,1.23c-0.932,0.533-1.851,1.091-2.77,1.646
					c-1.461,0.883-2.944,1.722-4.541,2.342c-1.779,0.691-3.618,1.102-5.52,1.273c-1.603,0.146-3.202,0.124-4.797-0.055
					c-2.389-0.268-4.652-0.965-6.792-2.061c-0.995-0.509-1.954-1.079-2.906-1.661c-0.701-0.428-1.405-0.852-2.111-1.271
					c-1.682-1-3.501-1.644-5.406-2.058c-1.734-0.377-3.488-0.588-5.261-0.655c-0.927-0.035-1.854-0.074-2.78-0.128
					c-0.525-0.031-1.048-0.098-1.56-0.232c-0.719-0.189-1.181-0.627-1.328-1.365c-0.082-0.413-0.147-0.829-0.218-1.244
					c-0.014-0.083-0.018-0.167-0.029-0.251c-0.156-1.104-0.7-1.912-1.741-2.382c-0.636-0.287-1.287-0.521-1.957-0.707
					c-1.155-0.321-2.322-0.604-3.453-1.009c-0.993-0.355-1.956-0.779-2.881-1.283c-0.277-0.151-0.546-0.318-0.807-0.495
					c-0.173-0.118-0.339-0.254-0.484-0.404c-0.538-0.56-0.493-1.067,0.125-1.548c0.302-0.235,0.649-0.391,0.99-0.557
					c2.41-1.181,4.693-2.566,6.82-4.205c3.034-2.336,5.631-5.077,7.642-8.35c1.074-1.747,1.951-3.587,2.522-5.563
					c0.182-0.63,0.309-1.267,0.334-1.925c0.025-0.649-0.194-1.195-0.625-1.67c-0.256-0.282-0.548-0.523-0.853-0.751
					c-0.877-0.657-1.791-1.262-2.708-1.862c-1.163-0.762-2.331-1.518-3.494-2.277c-0.583-0.382-1.144-0.793-1.65-1.273
					c-0.368-0.35-0.697-0.73-0.96-1.169c-0.551-0.92-0.59-1.871-0.174-2.846c0.287-0.672,0.784-1.139,1.465-1.404
					c0.748-0.292,1.52-0.317,2.302-0.188c0.917,0.152,1.8,0.435,2.671,0.75c0.891,0.322,1.772,0.67,2.658,1.004
					c0.414,0.155,0.828,0.31,1.269,0.377c0.104,0.016,0.208,0.047,0.312,0.044c0.51-0.016,0.932-0.183,0.928-0.865
					c-0.003-0.569-0.03-1.139-0.068-1.706c-0.208-3.073-0.29-6.15-0.164-9.229c0.081-1.959,0.284-3.907,0.721-5.825
					c0.608-2.667,1.718-5.093,3.373-7.279c3.055-4.036,7.089-6.592,11.922-7.954c2.639-0.743,5.336-0.989,8.07-0.902
					c2.89,0.092,5.689,0.627,8.385,1.674c2.559,0.993,4.895,2.369,6.906,4.242c2.537,2.364,4.493,5.123,5.553,8.466
					c0.479,1.511,0.782,3.058,0.97,4.629C539.093,439.792,539.105,442.237,539.079,444.683z"/>
			</g>
		</g>
	</g>
	<g>
		<circle fill-rule="evenodd" clip-rule="evenodd" fill="#010201" cx="67.5" cy="656.691" r="67.5"/>
		<g>
			<g>
				<path fill="#FFFFFF" d="M115.86,666.232c-0.329-1.525-0.511-3.1-1.007-4.568c-2.027-6.01-6.022-10.45-11.411-13.635
					c-7.059-4.171-14.714-5.443-22.76-4.125c-7.218,1.184-13.439,4.326-18.35,9.879c-6.656,7.525-7.63,18.097-2.175,26.522
					c5.423,8.376,13.567,12.214,23.223,13.237c4.579,0.485,9.058-0.247,13.485-1.393c0.402-0.104,0.932-0.1,1.29,0.079
					c2.188,1.09,4.345,2.243,6.511,3.378c0.815,0.427,1.625,0.863,2.581,1.371c-0.085-0.305-0.12-0.443-0.163-0.579
					c-0.777-2.425-1.54-4.854-2.345-7.27c-0.16-0.48-0.144-0.767,0.308-1.063c0.61-0.4,1.175-0.873,1.741-1.336
					c4.032-3.291,7.004-7.316,8.413-12.381c0.362-1.302,0.538-2.655,0.8-3.985c0-1.212,0-2.425,0-3.637
					C115.953,666.562,115.896,666.399,115.86,666.232z M77.349,664.408c-2.197,0-3.977-1.781-3.977-3.978s1.78-3.978,3.977-3.978
					c2.196,0,3.977,1.781,3.977,3.978S79.545,664.408,77.349,664.408z M96.73,664.408c-2.196,0-3.977-1.781-3.977-3.978
					s1.781-3.978,3.977-3.978c2.197,0,3.978,1.781,3.978,3.978S98.927,664.408,96.73,664.408z"/>
				<path fill="#FFFFFF" d="M55.335,663.352c1.494-6.601,5.336-11.64,10.742-15.516c6.475-4.644,13.816-6.45,21.707-6.286
					c0.5,0.011,1,0.002,1.507,0.002c0.006-0.107,0.028-0.187,0.011-0.255c-0.167-0.659-0.312-1.326-0.517-1.974
					c-2.705-8.557-8.393-14.605-16.235-18.581c-9.613-4.872-19.725-5.553-30.022-2.484c-8.104,2.415-14.757,6.974-19.352,14.194
					c-3.472,5.454-4.852,11.435-3.865,17.872c0.957,6.24,3.9,11.467,8.409,15.814c1.61,1.553,3.396,2.923,5.147,4.416
					c-1.091,3.259-2.217,6.624-3.409,10.185c0.544-0.28,0.858-0.438,1.168-0.602c3.295-1.755,6.596-3.498,9.876-5.279
					c0.574-0.312,1.063-0.371,1.696-0.175c3.905,1.213,7.918,1.781,12.001,1.869c0.592,0.013,1.185,0.002,1.871,0.002
					c-0.131-0.46-0.216-0.771-0.307-1.078C54.587,671.472,54.415,667.417,55.335,663.352z M66.547,630.963
					c2.756,0,4.99,2.233,4.99,4.99c0,2.756-2.234,4.989-4.99,4.989c-2.756,0-4.99-2.233-4.99-4.989
					C61.558,633.197,63.792,630.963,66.547,630.963z M42.243,640.943c-2.756,0-4.99-2.233-4.99-4.989c0-2.757,2.234-4.99,4.99-4.99
					s4.99,2.233,4.99,4.99C47.233,638.709,44.999,640.943,42.243,640.943z"/>
			</g>
		</g>
	</g>
	<g>
		<g>
			<circle fill="#010201" cx="739.995" cy="656.691" r="67.5"/>
			<path fill="#FFFFFF" d="M784.984,656.691c0-5.437-4.407-9.844-9.844-9.844c-2.654,0-5.058,1.056-6.828,2.763
				c-6.728-4.856-15.999-7.992-26.324-8.353l4.484-21.097l14.649,3.114c0.179,3.725,3.229,6.697,6.998,6.697
				c3.883,0,7.031-3.147,7.031-7.031c0-3.883-3.148-7.031-7.031-7.031c-2.762,0-5.128,1.607-6.278,3.925l-16.358-3.478
				c-0.455-0.099-0.932-0.01-1.322,0.245c-0.392,0.254-0.666,0.653-0.763,1.108l-5.008,23.541
				c-10.477,0.29-19.896,3.431-26.711,8.34c-1.769-1.696-4.164-2.744-6.808-2.744c-5.437,0-9.844,4.407-9.844,9.844
				c0,4,2.39,7.436,5.815,8.976c-0.151,0.979-0.234,1.972-0.234,2.978c0,15.145,17.629,27.422,39.375,27.422
				s39.375-12.277,39.375-27.422c0-1-0.082-1.985-0.231-2.958C782.576,664.155,784.984,660.707,784.984,656.691z M717.495,663.723
				c0-3.877,3.155-7.032,7.034-7.032c3.875,0,7.028,3.155,7.028,7.032c0,3.876-3.153,7.03-7.028,7.03
				C720.65,670.753,717.495,667.599,717.495,663.723z M756.702,682.302c-4.8,4.792-13.995,5.165-16.699,5.165
				s-11.9-0.373-16.693-5.166c-0.712-0.711-0.712-1.865,0-2.577c0.711-0.711,1.865-0.711,2.577,0.001
				c3.024,3.024,9.495,4.098,14.116,4.098c4.622,0,11.094-1.073,14.124-4.099c0.713-0.711,1.866-0.71,2.577,0.001
				C757.415,680.438,757.414,681.591,756.702,682.302z M755.464,670.754c-3.877,0-7.031-3.153-7.031-7.03
				c0-3.878,3.154-7.033,7.031-7.033s7.031,3.155,7.031,7.033C762.495,667.601,759.341,670.754,755.464,670.754z"/>
		</g>
	</g>
	<g>
		<circle fill-rule="evenodd" clip-rule="evenodd" fill="#010201" cx="964.16" cy="656.691" r="67.5"/>
		<g>
			<g>
				<path fill-rule="evenodd" clip-rule="evenodd" fill="#FFFFFF" d="M964.16,606.691c-27.604,0-50,22.397-50,50
					c0,27.604,22.396,50,50,50c27.549,0,50-22.396,50-50C1014.16,629.088,991.709,606.691,964.16,606.691z M997.186,629.739
					c5.966,7.267,9.545,16.54,9.653,26.572c-1.41-0.271-15.51-3.145-29.718-1.355c-0.325-0.705-0.597-1.464-0.922-2.224
					c-0.868-2.061-1.844-4.176-2.82-6.182C989.105,640.151,996.264,630.932,997.186,629.739z M964.16,614.066
					c10.846,0,20.77,4.067,28.308,10.738c-0.759,1.084-7.212,9.707-22.396,15.401c-6.996-12.853-14.751-23.373-15.943-25
					C957.327,614.446,960.689,614.066,964.16,614.066z M945.993,618.08c1.139,1.519,8.731,12.093,15.835,24.675
					c-19.957,5.314-37.581,5.206-39.479,5.206C925.114,634.728,934.063,623.719,945.993,618.08z M921.427,656.746
					c0-0.435,0-0.868,0-1.302c1.844,0.054,22.56,0.325,43.872-6.074c1.247,2.387,2.386,4.827,3.471,7.268
					c-0.542,0.162-1.139,0.325-1.681,0.487c-22.018,7.104-33.731,26.519-34.708,28.146
					C925.603,677.732,921.427,667.7,921.427,656.746z M964.16,699.424c-9.87,0-18.98-3.362-26.193-9.002
					c0.76-1.573,9.437-18.275,33.515-26.682c0.108-0.054,0.162-0.054,0.271-0.108c6.02,15.564,8.46,28.634,9.111,32.375
					C975.711,698.231,970.071,699.424,964.16,699.424z M987.967,692.103c-0.434-2.603-2.711-15.076-8.297-30.423
					c13.395-2.115,25.108,1.355,26.572,1.844C1004.398,675.4,997.565,685.65,987.967,692.103z"/>
			</g>
		</g>
	</g>
	<g>
		<circle fill-rule="evenodd" clip-rule="evenodd" cx="739.995" cy="853.709" r="67.5"/>
		<g>
			<g>
				<g>
					<path fill="#FFFFFF" d="M721.675,824.884c2.707,0,5.15,0.233,7.383,0.718c2.22,0.47,4.115,1.255,5.717,2.334
						c1.575,1.078,2.81,2.51,3.692,4.316c0.863,1.777,1.295,4.006,1.295,6.64c0,2.848-0.646,5.228-1.938,7.131
						c-1.304,1.898-3.217,3.456-5.775,4.666c3.483,1.002,6.063,2.765,7.772,5.27c1.719,2.525,2.561,5.545,2.561,9.085
						c0,2.868-0.55,5.341-1.647,7.418c-1.107,2.103-2.616,3.809-4.476,5.124c-1.874,1.326-4.027,2.301-6.438,2.935
						c-2.384,0.634-4.86,0.952-7.396,0.952h-27.429v-56.588H721.675z M720.063,847.746c2.208,0,4.035-0.522,5.483-1.587
						c1.434-1.045,2.128-2.774,2.128-5.146c0-1.317-0.23-2.404-0.694-3.248c-0.48-0.846-1.117-1.507-1.92-1.969
						c-0.798-0.482-1.698-0.813-2.743-0.994c-1.026-0.202-2.103-0.279-3.204-0.279h-11.657v13.223H720.063z M720.752,871.836
						c1.229,0,2.396-0.109,3.494-0.357c1.114-0.243,2.103-0.629,2.936-1.2c0.833-0.547,1.523-1.301,2.025-2.258
						c0.503-0.948,0.744-2.178,0.744-3.668c0-2.917-0.82-4.986-2.453-6.245c-1.635-1.238-3.814-1.855-6.496-1.855h-13.546v15.584
						H720.752z"/>
					<path fill="#FFFFFF" d="M760.143,871.647c1.685,1.646,4.121,2.475,7.277,2.475c2.271,0,4.232-0.573,5.878-1.719
						c1.631-1.142,2.623-2.363,3.007-3.631h9.911c-1.593,4.932-4.01,8.453-7.307,10.572c-3.259,2.128-7.233,3.19-11.864,3.19
						c-3.228,0-6.132-0.523-8.74-1.554c-2.606-1.04-4.785-2.501-6.617-4.404c-1.785-1.912-3.173-4.174-4.161-6.829
						c-0.978-2.642-1.471-5.564-1.471-8.733c0-3.063,0.512-5.926,1.513-8.572c1.022-2.652,2.435-4.944,4.292-6.866
						c1.861-1.931,4.068-3.454,6.639-4.568c2.571-1.11,5.406-1.669,8.546-1.669c3.466,0,6.503,0.668,9.104,2.027
						c2.594,1.339,4.72,3.156,6.391,5.431c1.67,2.27,2.858,4.865,3.601,7.777c0.736,2.904,0.995,5.943,0.783,9.12h-29.568
						C757.355,866.934,758.451,870.001,760.143,871.647z M773.073,850.119c-1.337-1.479-3.603-2.281-6.366-2.281
						c-1.799,0-3.287,0.303-4.479,0.92c-1.165,0.608-2.119,1.365-2.85,2.258c-0.727,0.906-1.222,1.863-1.509,2.888
						c-0.29,0.994-0.462,1.9-0.515,2.698h18.312C775.398,853.733,774.416,851.611,773.073,850.119z"/>
					<rect x="755.054" y="828.678" fill="#FFFFFF" width="22.938" height="5.587"/>
				</g>
			</g>
		</g>
	</g>
	<g>
		<circle fill="#010201" cx="291.665" cy="460.605" r="67.5"/>
		<g>
			<g>
				<g>
					<path fill="#FFFFFF" d="M335.275,439.46c-0.406,8.856-6.591,20.983-18.559,36.379c-12.373,16.075-22.841,24.116-31.401,24.116
						c-5.306,0-9.795-4.894-13.462-14.687c-2.448-8.978-4.895-17.954-7.344-26.932c-2.724-9.788-5.643-14.688-8.768-14.688
						c-0.682,0-3.063,1.433-7.143,4.285l-4.279-5.514c4.491-3.945,8.92-7.891,13.278-11.842c5.99-5.173,10.49-7.896,13.487-8.17
						c7.08-0.682,11.439,4.159,13.074,14.52c1.769,11.18,2.993,18.132,3.68,20.853c2.044,9.275,4.291,13.909,6.742,13.909
						c1.903,0,4.766-3.008,8.582-9.027c3.808-6.015,5.85-10.592,6.125-13.738c0.545-5.191-1.498-7.794-6.125-7.794
						c-2.179,0-4.426,0.502-6.737,1.492c4.474-14.646,13.018-21.76,25.629-21.354C331.405,421.544,335.815,427.607,335.275,439.46z"
						/>
				</g>
			</g>
		</g>
	</g>
	<g>
		<circle fill-rule="evenodd" clip-rule="evenodd" fill="#010201" cx="515.83" cy="853.709" r="67.5"/>
		<g>
			<path fill="#FFFFFF" d="M461.013,853.662l-0.683,6.147l0.683,6.147c0,0.342,0.341,0.342,0.341,0.342
				c0.342,0,0.342-0.342,0.342-0.342l1.024-6.147l-1.024-6.147c0-0.342-0.342-0.342-0.342-0.342S461.013,853.32,461.013,853.662
				 M465.111,849.905l-1.024,9.904l1.024,9.905c0,0.341,0.342,0.341,0.342,0.341c0.342,0,0.342-0.341,0.342-0.341l1.366-9.905
				l-1.366-9.904c0-0.342-0.342-0.342-0.342-0.342l0,0L465.111,849.905 M478.09,848.539l-0.683,11.271l0.683,11.954
				c0,0.342,0.342,0.684,0.684,0.684c0.341,0,0.683-0.342,0.683-0.684l1.366-11.954l-1.024-11.271c0-0.342-0.342-0.684-0.683-0.684
				C478.432,847.855,478.09,848.197,478.09,848.539 M469.552,847.855l-1.025,11.954l1.025,11.271c0,0.342,0.341,0.684,0.683,0.684
				c0,0,0.341-0.342,0.341-0.684l1.025-11.271l-1.025-11.954c0-0.341-0.341-0.683-0.683-0.683
				C469.893,847.514,469.552,847.514,469.552,847.855 M473.65,847.514l-1.024,12.295l1.024,11.612c0,0.342,0.342,0.684,0.683,0.684
				c0.342,0,0.683-0.342,0.683-0.684l1.025-11.612l-1.025-12.295c0-0.342-0.341-0.684-0.683-0.684
				C473.992,846.831,473.992,847.172,473.65,847.514 M482.53,841.367l-1.025,18.442l1.025,11.954c0,0.342,0.341,0.684,0.683,0.684
				c0.683,0,1.025-0.342,1.025-0.684l1.024-11.954l-1.024-18.442c0-0.342-0.342-0.684-0.683-0.684
				C482.872,840.683,482.53,841.025,482.53,841.367 M486.97,837.268l-0.683,22.541l0.683,11.954c0,0.684,0.341,1.024,1.024,1.024
				c0.342,0,1.025-0.341,1.025-1.024l1.024-11.954l-1.024-22.541c0-0.684-0.342-1.025-1.025-1.025S486.97,836.584,486.97,837.268
				 M505.071,836.243l-0.683,23.566l0.683,11.271c0,0.684,0.684,1.367,1.366,1.367c0.684,0,1.366-0.684,1.366-1.367l0.683-11.271
				l-0.683-23.907c0-0.684-0.683-1.366-1.366-1.366C505.413,834.876,505.071,835.218,505.071,836.243 M491.41,835.218l-0.683,24.591
				l0.683,11.612c0,0.684,0.341,1.025,1.024,1.025s1.025-0.342,1.025-1.025l0.683-11.612l-0.683-24.591
				c0-0.683-0.342-1.024-1.025-1.024S491.41,834.876,491.41,835.218 M500.29,835.218l-0.683,24.591l0.683,11.612
				c0,0.684,0.683,1.366,1.366,1.366s1.366-0.683,1.366-1.366l0.683-11.612l-0.683-24.591c0-0.683-0.683-1.366-1.366-1.366
				S500.29,834.536,500.29,835.218 M495.85,834.536l-0.683,25.273l0.683,11.612c0,0.684,0.341,1.025,1.024,1.025
				s1.025-0.342,1.025-1.025l0.683-11.612l-0.683-25.273c0-0.684-0.683-1.024-1.025-1.024
				C496.533,833.511,495.85,833.852,495.85,834.536 M509.512,831.461l-0.683,28.348l0.683,11.271c0,0.684,0.683,1.367,1.366,1.367
				s1.366-0.684,1.366-1.367l0.683-11.271l-0.683-28.348c0-0.683-0.683-1.366-1.366-1.366S509.512,830.779,509.512,831.461
				 M514.293,829.071l-0.683,30.738l0.683,11.271c0,0.684,0.683,1.367,1.366,1.367s1.366-0.684,1.366-1.367l0.684-11.271
				l-0.684-30.738c0-0.683-0.683-1.366-1.366-1.366h-0.341C514.635,827.705,514.293,828.388,514.293,829.071 M519.758,825.997
				c-1.024,0.342-1.366,0.684-1.366,1.708v43.375c0,0.684,0.683,1.367,1.366,1.708h37.911c7.514,0,13.661-6.147,13.661-13.661
				s-6.147-13.662-13.661-13.662c-1.708,0-3.758,0.342-5.123,1.025c-1.025-12.296-11.271-21.859-23.908-21.859
				c-0.683,0-1.024,0-1.708,0C524.539,824.63,522.148,825.314,519.758,825.997"/>
		</g>
	</g>
	<g>
		<circle fill-rule="evenodd" clip-rule="evenodd" fill="#010201" cx="964.16" cy="853.709" r="67.5"/>
		<g>
			<g>
				<path fill="#FFFFFF" d="M964.797,888.172c-2.856,0.024-5.703-0.112-8.533-0.515c-0.431-0.062-0.77,0.021-1.135,0.277
					c-5.618,3.943-11.231,7.894-17.032,11.566c-0.704,0.446-1.44,0.844-2.166,1.256c-0.257,0.146-0.534,0.243-0.831,0.284
					c-0.926,0.125-1.471-0.422-1.274-1.343c0.344-1.616,0.827-3.198,1.28-4.787c1.144-4.012,2.287-8.023,3.443-12.032
					c0.102-0.352,0.066-0.519-0.297-0.703c-5.472-2.772-10.297-6.382-14.235-11.114c-3.892-4.676-6.521-9.962-7.456-16.006
					c-1.069-6.906,0.149-13.436,3.482-19.566c3.263-6.002,7.967-10.651,13.65-14.348c6.066-3.944,12.725-6.397,19.824-7.679
					c5.289-0.954,10.62-1.186,15.971-0.699c10.07,0.914,19.36,4.016,27.554,10.057c5.439,4.009,9.813,8.952,12.474,15.22
					c4.259,10.034,3.366,19.738-2.298,28.987c-3.633,5.932-8.728,10.378-14.709,13.843c-5.714,3.31-11.863,5.4-18.365,6.487
					C971.049,887.875,967.935,888.148,964.797,888.172z"/>
				<path fill="#010201" d="M987.079,847.747c0.104-0.147,0.19-0.313,0.316-0.44c2.361-2.37,4.728-4.736,7.095-7.101
					c0.889-0.888,1.983-1.021,3.042-0.384c1.063,0.642,1.594,1.888,1.273,2.988c-0.124,0.423-0.385,0.751-0.69,1.056
					c-1.938,1.935-3.868,3.879-5.818,5.803c-0.271,0.267-0.258,0.421-0.039,0.708c2.163,2.844,4.314,5.696,6.46,8.554
					c0.938,1.25,0.808,2.845-0.286,3.817c-1.229,1.093-3.053,0.917-4.076-0.426c-1.929-2.529-3.837-5.072-5.753-7.61
					c-0.05-0.065-0.089-0.14-0.147-0.196c-0.225-0.216-0.287-0.642-0.639-0.663c-0.271-0.018-0.902,0.965-0.902,1.286
					c-0.002,1.902,0.014,3.805-0.01,5.707c-0.018,1.327-0.953,2.375-2.283,2.636c-1.202,0.234-2.461-0.433-2.984-1.582
					c-0.172-0.378-0.252-0.774-0.252-1.191c0.001-6.282-0.004-12.563,0.004-18.846c0.002-1.578,1.219-2.803,2.754-2.813
					c1.527-0.01,2.752,1.21,2.767,2.792c0.017,1.804,0.004,3.608,0.004,5.412c0,0.127,0,0.253,0,0.38
					C986.969,847.67,987.023,847.708,987.079,847.747z"/>
				<path fill="#010201" d="M934.861,852.873c0-2.623-0.009-5.246,0.01-7.869c0.003-0.413-0.072-0.565-0.529-0.552
					c-1.229,0.036-2.459,0.019-3.688,0.011c-1.61-0.01-2.799-1.141-2.811-2.662c-0.013-1.548,1.169-2.745,2.785-2.75
					c4.672-0.015,9.345-0.014,14.017,0c1.473,0.004,2.631,1.033,2.779,2.404c0.146,1.35-0.696,2.567-2.021,2.93
					c-0.274,0.075-0.551,0.078-0.829,0.078c-1.229,0.003-2.459,0.02-3.688-0.009c-0.403-0.009-0.483,0.126-0.482,0.499
					c0.011,5.23,0.008,10.46,0.006,15.689c0,1.396-0.692,2.403-1.901,2.783c-1.843,0.579-3.631-0.7-3.643-2.634
					C934.85,858.152,934.861,855.512,934.861,852.873z"/>
				<path fill="#010201" d="M966.128,851.18c0-3.115-0.008-6.23,0.003-9.346c0.005-1.462,1.049-2.58,2.543-2.769
					c1.331-0.167,2.646,0.744,3.01,2.079c0.092,0.339,0.082,0.682,0.082,1.024c0.002,5.132,0.007,10.264-0.01,15.396
					c-0.001,0.438,0.112,0.545,0.544,0.539c1.804-0.025,3.607-0.025,5.41-0.004c1.405,0.016,2.535,1.077,2.592,2.383
					c0.061,1.379-1.024,2.629-2.417,2.646c-3.115,0.038-6.23,0.037-9.346,0c-1.352-0.017-2.405-1.184-2.409-2.555
					C966.122,857.443,966.127,854.312,966.128,851.18z"/>
				<path fill="#010201" d="M964.227,858.959c-1.15-3.044-2.312-6.085-3.469-9.126c-1.028-2.706-2.046-5.417-3.09-8.116
					c-0.699-1.809-2.529-2.931-4.268-2.583c-1.535,0.307-2.551,1.279-3.103,2.728c-1.881,4.937-3.757,9.874-5.623,14.815
					c-0.444,1.177-0.983,2.323-1.24,3.564c-0.411,1.984,0.256,2.971,2.193,3.257c1.496,0.221,2.466-0.339,2.996-1.726
					c0.345-0.901,0.704-1.798,1.028-2.706c0.101-0.28,0.239-0.364,0.53-0.361c1.278,0.017,2.558,0.007,3.837,0.007
					c1.264,0,2.526,0.016,3.789-0.01c0.345-0.007,0.477,0.113,0.586,0.418c0.329,0.924,0.741,1.82,1.033,2.756
					c0.361,1.156,1.189,1.574,2.293,1.644c0.598,0.038,1.172-0.085,1.731-0.289c0.763-0.278,1.142-0.839,1.214-1.628
					C964.751,860.683,964.548,859.808,964.227,858.959z M953.288,853.806c-0.541,0-1.083-0.019-1.623,0.007
					c-0.352,0.017-0.403-0.073-0.286-0.401c0.715-1.984,1.41-3.977,2.112-5.966c0.158-0.446,0.315-0.894,0.522-1.484
					c0.945,2.683,1.844,5.235,2.763,7.845C955.576,853.806,954.432,853.806,953.288,853.806z"/>
			</g>
		</g>
	</g>
	<g>
		<circle fill-rule="evenodd" clip-rule="evenodd" fill="#010201" cx="964.16" cy="460.605" r="67.5"/>
		<g>
			<g id="FULL_COLOR_ICON_4_">
				<g id="TYPE_A_4_">
					<g>
						<path fill="#FFFFFF" d="M1009.941,454.105c0-20.584-20.636-37.33-46.001-37.33c-25.362,0-46,16.746-46,37.33
							c0,18.453,16.365,33.907,38.471,36.829c1.498,0.323,3.537,0.987,4.053,2.269c0.464,1.162,0.304,2.984,0.148,4.159
							c0,0-0.539,3.245-0.656,3.938c-0.2,1.162-0.924,4.549,3.984,2.479c4.91-2.068,26.491-15.599,36.143-26.707h-0.002
							C1006.747,469.761,1009.941,462.342,1009.941,454.105"/>
						<g>
							<path fill="#010201" d="M954.595,444.158h-3.228c-0.494,0-0.896,0.4-0.896,0.895v20.044c0,0.493,0.401,0.894,0.896,0.894
								h3.228c0.494,0,0.896-0.4,0.896-0.894v-20.044C955.49,444.558,955.089,444.158,954.595,444.158"/>
							<path fill="#010201" d="M976.803,444.158h-3.226c-0.495,0-0.896,0.4-0.896,0.895v11.908l-9.186-12.404
								c-0.021-0.032-0.045-0.063-0.069-0.091c-0.002-0.003-0.004-0.005-0.006-0.006c-0.018-0.02-0.035-0.038-0.054-0.056
								c-0.006-0.005-0.011-0.01-0.017-0.016c-0.016-0.014-0.031-0.027-0.048-0.039c-0.008-0.007-0.016-0.013-0.023-0.019
								c-0.015-0.011-0.03-0.021-0.047-0.032c-0.009-0.006-0.017-0.011-0.026-0.016c-0.016-0.01-0.032-0.019-0.048-0.027
								c-0.01-0.004-0.019-0.009-0.028-0.014c-0.017-0.007-0.033-0.015-0.052-0.021c-0.011-0.004-0.019-0.007-0.029-0.01
								c-0.018-0.007-0.034-0.013-0.053-0.018c-0.01-0.003-0.021-0.005-0.031-0.008c-0.018-0.005-0.034-0.009-0.052-0.012
								c-0.012-0.002-0.025-0.004-0.037-0.006c-0.016-0.002-0.031-0.004-0.048-0.005c-0.015-0.002-0.03-0.003-0.046-0.003
								c-0.012,0-0.021-0.002-0.031-0.002h-3.227c-0.494,0-0.896,0.4-0.896,0.895v20.044c0,0.493,0.402,0.894,0.896,0.894h3.227
								c0.495,0,0.896-0.4,0.896-0.894v-11.904l9.196,12.42c0.063,0.09,0.142,0.163,0.228,0.221c0.003,0.003,0.006,0.005,0.01,0.008
								c0.018,0.012,0.036,0.022,0.055,0.033c0.009,0.005,0.017,0.01,0.025,0.014c0.014,0.008,0.028,0.015,0.043,0.021
								c0.015,0.005,0.028,0.012,0.044,0.018c0.009,0.004,0.017,0.008,0.026,0.011c0.021,0.007,0.041,0.014,0.061,0.02
								c0.005,0,0.009,0.002,0.014,0.003c0.072,0.02,0.149,0.03,0.229,0.03h3.226c0.496,0,0.896-0.4,0.896-0.894v-20.044
								C977.699,444.558,977.299,444.158,976.803,444.158"/>
							<path fill="#010201" d="M946.816,460.971h-8.767v-15.918c0-0.495-0.401-0.896-0.896-0.896h-3.228
								c-0.494,0-0.896,0.4-0.896,0.896v20.041v0.001c0,0.24,0.096,0.459,0.25,0.619c0.004,0.004,0.008,0.009,0.013,0.014
								c0.004,0.004,0.009,0.008,0.013,0.013c0.161,0.154,0.379,0.249,0.619,0.249h0.001h12.89c0.495,0,0.895-0.401,0.895-0.896
								v-3.228C947.711,461.373,947.312,460.971,946.816,460.971"/>
							<path fill="#010201" d="M994.622,449.176c0.494,0,0.895-0.4,0.895-0.896v-3.227c0-0.495-0.4-0.896-0.895-0.896h-12.89h-0.002
								c-0.241,0-0.459,0.097-0.621,0.253c-0.003,0.003-0.008,0.006-0.011,0.009c-0.005,0.006-0.01,0.012-0.015,0.017
								c-0.152,0.16-0.248,0.377-0.248,0.617v0.001v20.04v0.001c0,0.241,0.096,0.459,0.251,0.619
								c0.003,0.004,0.008,0.01,0.012,0.014s0.009,0.008,0.014,0.012c0.16,0.154,0.378,0.251,0.618,0.251h0.002h12.89
								c0.494,0,0.895-0.402,0.895-0.896v-3.227c0-0.495-0.4-0.896-0.895-0.896h-8.767v-3.388h8.767
								c0.494,0,0.895-0.401,0.895-0.896v-3.227c0-0.495-0.4-0.896-0.895-0.896h-8.767v-3.388H994.622z"/>
						</g>
					</g>
				</g>
			</g>
		</g>
	</g>
	<g>
		<path fill="#8DC63F" d="M135,67.5C135,30.221,104.779,0,67.5,0S0,30.221,0,67.5c0,33.691,24.684,61.616,56.953,66.68V87.012
			H39.814V67.5h17.139V52.629c0-16.917,10.078-26.262,25.496-26.262c7.385,0,15.11,1.318,15.11,1.318v16.611h-8.512
			c-8.385,0-11,5.203-11,10.542V67.5h18.721l-2.993,19.512H78.047v47.168C110.316,129.116,135,101.191,135,67.5z"/>
		<path fill="#FFFFFF" d="M93.775,87.012L96.768,67.5H78.047V54.838c0-5.338,2.615-10.542,11-10.542h8.512V27.686
			c0,0-7.725-1.318-15.11-1.318c-15.418,0-25.496,9.345-25.496,26.262V67.5H39.814v19.512h17.139v47.168
			c3.437,0.54,6.959,0.82,10.547,0.82s7.11-0.281,10.547-0.82V87.012H93.775z"/>
	</g>
	<g>
		<g>
			<g>
				<path fill="#010201" d="M67.705,393.105c-37.279,0-67.5,30.22-67.5,67.499c0,37.281,30.221,67.501,67.5,67.501
					c37.28,0,67.5-30.22,67.5-67.501C135.205,423.325,104.985,393.105,67.705,393.105z M98.661,490.463
					c-1.213,1.989-3.803,2.612-5.785,1.4c-15.851-9.688-35.802-11.876-59.298-6.509c-2.264,0.519-4.521-0.9-5.037-3.164
					c-0.519-2.264,0.895-4.521,3.164-5.037c25.712-5.878,47.768-3.349,65.56,7.523C99.249,485.889,99.874,488.48,98.661,490.463z
					 M106.921,472.083c-1.526,2.477-4.765,3.253-7.239,1.732c-18.139-11.15-45.8-14.38-67.261-7.866
					c-2.783,0.842-5.723-0.728-6.568-3.506c-0.839-2.782,0.731-5.717,3.509-6.563c24.516-7.438,54.992-3.836,75.827,8.968
					C107.663,466.372,108.441,469.612,106.921,472.083z M107.633,452.945c-21.758-12.922-57.648-14.109-78.419-7.806
					c-3.335,1.012-6.863-0.871-7.873-4.206c-1.011-3.338,0.87-6.862,4.208-7.876c23.843-7.238,63.48-5.84,88.528,9.029
					c3,1.78,3.984,5.655,2.206,8.65C114.503,453.737,110.626,454.726,107.633,452.945z"/>
			</g>
		</g>
		<path fill="#FFFFFF" d="M98.661,490.463c-1.213,1.989-3.803,2.612-5.785,1.4c-15.851-9.688-35.802-11.876-59.298-6.509
			c-2.264,0.519-4.521-0.9-5.037-3.164c-0.519-2.264,0.895-4.521,3.164-5.037c25.712-5.878,47.768-3.349,65.56,7.523
			C99.249,485.889,99.874,488.48,98.661,490.463z"/>
		<path fill="#FFFFFF" d="M106.921,472.083c-1.526,2.477-4.765,3.253-7.239,1.732c-18.139-11.15-45.8-14.38-67.261-7.866
			c-2.783,0.842-5.723-0.728-6.568-3.506c-0.839-2.782,0.731-5.717,3.509-6.563c24.516-7.438,54.992-3.836,75.827,8.968
			C107.663,466.372,108.441,469.612,106.921,472.083z"/>
		<path fill="#FFFFFF" d="M107.633,452.945c-21.758-12.922-57.648-14.109-78.419-7.806c-3.335,1.012-6.863-0.871-7.873-4.206
			c-1.011-3.338,0.87-6.862,4.208-7.876c23.843-7.238,63.48-5.84,88.528,9.029c3,1.78,3.984,5.655,2.206,8.65
			C114.503,453.737,110.626,454.726,107.633,452.945z"/>
	</g>
	<g>
		<g>
			<circle fill="#010201" cx="291.665" cy="264.518" r="67.5"/>
		</g>
		<path fill="#FFFFFF" d="M329.488,242.211c0-0.392-0.011-0.407-0.421-0.403c-0.989,0.009-1.966-0.109-2.938-0.256
			c-3.532-0.533-14.987-6.542-16.926-16.372c-0.038-0.192-0.47-2.631-0.465-3.67c0.002-0.465-0.006-0.465-0.464-0.473
			c-0.106-0.001-0.212,0-0.318,0c-4.482,0-8.965-0.002-13.448,0.001c-0.902,0.001-0.776-0.113-0.776,0.793
			c-0.002,19.441-0.002,38.882,0.001,58.323c0,0.725-0.021,1.449-0.148,2.16c-0.676,3.761-2.603,6.706-5.864,8.717
			c-2.825,1.742-5.892,2.239-9.147,1.595c-1.026-0.203-1.989-0.589-2.954-0.972c-0.078-0.071-0.156-0.143-0.234-0.214
			c-0.324-0.271-0.682-0.496-1.029-0.737c-4.15-2.874-6.118-6.863-5.519-11.852c0.608-5.062,3.52-8.497,8.317-10.267
			c1.431-0.528,2.938-0.746,4.469-0.665c0.985,0.052,1.966,0.178,2.921,0.449c0.331,0.094,0.509-0.023,0.526-0.373
			c0.005-0.124,0.009-0.247,0.009-0.37c0-3.49-0.13-11.113-0.148-11.13c0.007-1.005,0.006-2.01,0.025-3.014
			c0.005-0.29-0.138-0.34-0.382-0.369c-1.809-0.215-3.616-0.255-5.435-0.122c-2.513,0.184-4.948,0.699-7.315,1.551
			c-3.776,1.358-7.09,3.458-9.951,6.26c-2.457,2.407-4.389,5.19-5.805,8.327c-1.355,3.002-2.132,6.154-2.346,9.434
			c-0.093,1.423-0.075,2.852,0.056,4.279c0.182,1.973,0.556,3.903,1.156,5.788c1.725,5.417,4.859,9.86,9.307,13.386
			c0.452,0.358,0.887,0.751,1.428,0.984c0,0,0,0,0,0c0.228,0.201,0.454,0.402,0.681,0.604c0.72,0.542,1.491,1.006,2.297,1.405
			c4.982,2.461,10.23,3.461,15.762,2.786c7.178-0.876,13.157-4.057,17.865-9.537c4.431-5.158,6.583-11.213,6.623-17.981
			c0.056-9.682,0.013-19.364,0.02-29.045c0-0.231-0.133-0.56,0.121-0.675c0.2-0.091,0.399,0.173,0.587,0.296
			c3.604,2.366,7.488,4.078,11.697,5.041c2.449,0.56,4.923,0.9,7.442,0.896c0.795-0.001,0.9-0.041,0.901-0.828
			C329.668,252.523,329.487,243.125,329.488,242.211z"/>
	</g>
	<g>
		<circle fill-rule="evenodd" clip-rule="evenodd" fill="#010201" cx="291.665" cy="656.691" r="67.5"/>
		<g>
			<g>
				<g id="Layer_1-2_4_">
					<path fill="#FFFFFF" d="M268.332,615.025l-16.667,16.666v60h20v16.667l16.667-16.667h13.333l30-30v-46.666H268.332z
						 M324.999,658.358l-13.333,13.333h-13.333l-11.667,11.667v-11.667h-15v-50h53.333V658.358z"/>
					<rect x="308.332" y="633.358" fill="#FFFFFF" width="6.667" height="20"/>
					<rect x="289.999" y="633.358" fill="#FFFFFF" width="6.667" height="20"/>
				</g>
			</g>
		</g>
	</g>
	<g>
		<circle fill-rule="evenodd" clip-rule="evenodd" fill="#010201" cx="515.83" cy="656.691" r="67.5"/>
		<g>
			<linearGradient id="SVGID_1_" gradientUnits="userSpaceOnUse" x1="561.2588" y1="673.9565" x2="561.2601" y2="673.9542">
				<stop  offset="0" style="stop-color:#00B7F0"/>
				<stop  offset="1" style="stop-color:#007CC1"/>
			</linearGradient>
			<polygon fill="url(#SVGID_1_)" points="561.26,673.955 561.26,673.955 561.26,673.958 			"/>
			<path fill-rule="evenodd" clip-rule="evenodd" fill="#FFFFFF" d="M561.254,673.967c0.002-0.005,0.004-0.009,0.006-0.013
				c-0.008-0.112-0.022-0.224-0.032-0.336c-0.021-0.243-0.041-0.486-0.068-0.728c-0.032-0.299-0.071-0.595-0.113-0.89
				c-0.015-0.101-0.028-0.201-0.044-0.301c-0.498-3.248-1.566-6.29-3.102-9.025c0.26-1.893,0.405-3.821,0.405-5.785
				c0-23.378-19.015-42.33-42.471-42.33c-1.531,0-3.041,0.085-4.53,0.242c-0.061-0.037-0.12-0.078-0.181-0.115h0
				c-0.118-0.072-0.238-0.14-0.356-0.21c-0.089-0.052-0.18-0.103-0.269-0.153c-0.325-0.188-0.654-0.367-0.988-0.541
				c-0.103-0.054-0.207-0.106-0.311-0.159c-0.04-0.02-0.077-0.044-0.118-0.064c-0.002,0-0.005,0.001-0.008,0.001
				c-0.291-0.145-0.586-0.281-0.883-0.416c-0.108-0.049-0.216-0.099-0.325-0.146c-0.209-0.091-0.419-0.178-0.631-0.264
				c-0.009-0.004-0.018-0.007-0.026-0.011c-0.142-0.057-0.284-0.112-0.427-0.167c-0.069-0.027-0.135-0.058-0.204-0.084
				c-0.002,0-0.003,0.001-0.005,0.001c-1.192-0.446-2.426-0.809-3.692-1.084c-0.037-0.008-0.074-0.018-0.111-0.025
				c-0.689-0.146-1.388-0.263-2.096-0.355c-0.065-0.009-0.127-0.024-0.192-0.033c-0.006,0.002-0.011,0.005-0.017,0.007
				c-1.088-0.135-2.195-0.212-3.32-0.212c-14.81,0-26.815,11.966-26.815,26.726c0,0.768,0.04,1.523,0.104,2.274
				c-0.002,0.004-0.004,0.009-0.006,0.013c0.006,0.069,0.016,0.137,0.022,0.206c0.02,0.211,0.044,0.421,0.068,0.631
				c0.033,0.288,0.068,0.576,0.11,0.861c0.011,0.075,0.023,0.149,0.036,0.224c0.506,3.271,1.592,6.327,3.147,9.072
				c-0.29,1.996-0.447,4.036-0.447,6.113c0,23.378,19.015,42.33,42.471,42.33c1.712,0,3.398-0.113,5.058-0.31
				c0.017,0.01,0.033,0.019,0.05,0.028c0.065,0.039,0.132,0.076,0.198,0.114c0.058,0.033,0.115,0.066,0.173,0.099
				c0.071,0.041,0.142,0.083,0.214,0.123c0.524,0.289,1.059,0.561,1.604,0.815c0.021,0.01,0.042,0.022,0.063,0.032
				c0.002,0,0.005,0,0.007-0.001c0.34,0.158,0.683,0.311,1.03,0.455c0.092,0.038,0.186,0.072,0.278,0.109
				c0.357,0.144,0.719,0.28,1.085,0.408c0.062,0.022,0.121,0.048,0.184,0.069c0.004-0.001,0.008-0.002,0.013-0.003
				c0.469,0.161,0.943,0.309,1.424,0.443c0.047,0.014,0.095,0.027,0.143,0.04c0.325,0.09,0.654,0.173,0.984,0.25
				c0.083,0.02,0.166,0.039,0.249,0.058c0.308,0.069,0.616,0.133,0.928,0.191c0.112,0.021,0.226,0.041,0.338,0.061
				c0.29,0.051,0.58,0.099,0.874,0.14c0.146,0.021,0.294,0.037,0.441,0.056c0.264,0.032,0.527,0.065,0.793,0.091
				c0.037,0.003,0.073,0.009,0.11,0.012c0.003-0.001,0.006-0.002,0.009-0.003c0.799,0.071,1.605,0.113,2.422,0.113
				c14.814,0,26.824-11.97,26.824-26.735C561.33,675.234,561.299,674.598,561.254,673.967z M530.061,674.857
				c-1.561,2.119-3.72,3.722-6.199,4.602c-2.988,1.068-6.146,1.582-9.318,1.519c-4.36,0.152-8.699-0.668-12.702-2.403
				c-1.023-0.455-1.92-1.153-2.614-2.032c-0.576-0.807-0.875-1.777-0.851-2.768c-0.058-1.058,0.351-2.087,1.118-2.816
				c0.794-0.696,1.825-1.06,2.881-1.017c1.175,0.016,2.33,0.313,3.367,0.866c1.29,0.645,2.307,1.129,3.052,1.451
				c0.851,0.356,1.732,0.635,2.633,0.833c1.111,0.243,2.246,0.36,3.383,0.349c2.011,0.144,4.012-0.39,5.685-1.516
				c1.271-0.994,1.983-2.539,1.916-4.151c0.002-1.126-0.427-2.211-1.199-3.03c-1.021-1.054-2.217-1.924-3.533-2.571
				c-1.557-0.821-3.747-1.821-6.57-3.001c-2.524-1.006-4.942-2.262-7.216-3.75c-1.716-1.13-3.148-2.641-4.185-4.414
				c-1-1.875-1.494-3.978-1.433-6.102c-0.076-2.695,0.844-5.324,2.584-7.384c1.808-2.069,4.132-3.622,6.735-4.501
				c2.831-1,5.814-1.502,8.817-1.484c1.965-0.019,3.927,0.132,5.865,0.45c1.389,0.214,2.751,0.565,4.069,1.05
				c1.21,0.41,2.303,1.107,3.184,2.033c0.649,0.761,0.998,1.733,0.982,2.733c0.047,1.05-0.325,2.075-1.034,2.851
				c-0.673,0.715-1.618,1.109-2.6,1.083c-0.667-0.005-1.326-0.153-1.932-0.435c-1.492-0.668-3.03-1.23-4.602-1.684
				c-1.446-0.382-2.938-0.566-4.433-0.551c-1.949-0.072-3.878,0.421-5.553,1.42c-1.44,0.875-2.29,2.465-2.216,4.148
				c-0.01,1.085,0.402,2.132,1.151,2.918c0.889,0.923,1.94,1.675,3.101,2.219c1.3,0.646,3.239,1.5,5.816,2.565
				c0.286,0.091,0.564,0.202,0.833,0.334c2.516,0.995,4.928,2.234,7.2,3.701c1.796,1.171,3.31,2.725,4.434,4.549
				c1.105,1.919,1.66,4.105,1.601,6.319C532.37,669.951,531.594,672.62,530.061,674.857z"/>
		</g>
	</g>
	<g>
		<circle fill="#010201" cx="291.665" cy="853.709" r="67.5"/>
		<path fill="#FFFFFF" d="M324.523,826.29c-0.259-0.753-0.566-0.959-1.047-1.142c-1.052-0.398-2.833,0.201-2.833,0.201
			s-63.086,22.675-66.689,25.187c-0.776,0.541-1.036,0.854-1.165,1.224c-0.624,1.788,1.317,2.576,1.317,2.576l16.26,5.298
			c0,0,0.606,0.088,0.823-0.049c3.699-2.337,37.215-23.501,39.149-24.213c0.305-0.091,0.53,0.014,0.47,0.224
			c-0.774,2.715-29.884,28.591-29.884,28.591s-0.111,0.137-0.181,0.301l-0.038-0.023l-1.518,16.129c0,0-0.635,4.94,4.306,0
			c3.486-3.486,6.859-6.403,8.547-7.822c5.59,3.859,11.608,8.13,14.204,10.363c1.304,1.122,2.395,1.304,3.293,1.271
			c2.465-0.093,3.153-2.8,3.153-2.8s11.496-46.269,11.88-52.468c0.038-0.607,0.089-0.994,0.094-1.412
			C324.671,827.146,324.617,826.563,324.523,826.29z"/>
	</g>
</g>
</svg>
