<?xml version="1.0" encoding="utf-8"?>
<!-- Generator: Adobe Illustrator 16.0.3, SVG Export Plug-In . SVG Version: 6.00 Build 0)  -->
<!DOCTYPE svg PUBLIC "-//W3C//DTD SVG 1.1//EN" "http://www.w3.org/Graphics/SVG/1.1/DTD/svg11.dtd">
<svg version="1.1" id="latas" xmlns="http://www.w3.org/2000/svg" xmlns:xlink="http://www.w3.org/1999/xlink" x="0px" y="0px"
	 width="605.549px" height="843.132px" viewBox="0 0 605.549 843.132" enable-background="new 0 0 605.549 843.132"
	 xml:space="preserve">
<g>
	<g>
		<g>
			<g>
				<rect x="-1531.78" y="717.653" fill="#999999" width="458.072" height="39.093"/>
			</g>
			<g>
				<polygon fill="#1A6B65" points="-1140.844,706.162 -1140.844,591.179 -1132.415,591.179 -1109.547,199.561 -1447.312,199.561 
					-1416.431,728.403 -1170.433,728.403 -1170.433,706.162 				"/>
			</g>
			<g>
				<path fill="#1F8985" d="M-1140.844,591.179h8.429l22.868-391.618h-337.765l30.881,528.843h245.998V664.26
					C-1170.433,627.884-1161.283,591.179-1140.844,591.179z"/>
			</g>
			<g>
				<polygon fill="#269696" points="-1527.183,199.561 -1496.302,728.403 -1206.146,728.403 -1189.418,199.561 				"/>
			</g>
			<g>
				<polygon fill="#1F8985" points="-1447.312,199.561 -1416.431,76.035 -1140.429,76.035 -1109.547,199.561 				"/>
			</g>
			<g>
				<polygon fill="#269696" points="-1527.183,199.561 -1496.302,76.035 -1206.146,76.035 -1189.418,199.561 				"/>
			</g>
			<g>
				<rect x="-1547.771" y="178.329" fill="#269696" width="366.073" height="48.311"/>
			</g>
			<g>
				<rect x="-1181.697" y="178.329" fill="#1F8985" width="92.001" height="48.311"/>
			</g>
			<g>
				<rect x="-1547.771" y="224.685" fill="#1F8985" width="458.074" height="3.909"/>
			</g>
			<g>
				<rect x="-1496.302" y="726.449" fill="#1C726C" width="325.87" height="3.909"/>
			</g>
			<g>
				<rect x="-1547.771" y="176.375" fill="#30B7AA" width="458.074" height="3.909"/>
			</g>
			<g>
				<path fill="#494949" d="M-1140.844,600.114c-11.406,0-20.653,28.719-20.653,64.145c0,35.427,9.247,64.145,20.653,64.145h27.021
					V600.114H-1140.844z"/>
			</g>
			<g>
				<path fill="#1C726C" d="M-1243.188,167.138h-222.732c-14.849,0-26.928-12.079-26.928-26.927h2.933
					c0,13.23,10.764,23.995,23.995,23.995h222.732c13.231,0,23.995-10.765,23.995-23.995v-24.127h2.933v24.127
					C-1216.26,155.059-1228.339,167.138-1243.188,167.138z"/>
			</g>
			<g>
				<path fill="#30B7AA" d="M-1489.915,140.211h-2.933v-24.127c0-14.848,12.079-26.927,26.928-26.927h222.732
					c14.849,0,26.928,12.079,26.928,26.927h-2.933c0-13.23-10.764-23.995-23.995-23.995h-222.732
					c-13.231,0-23.995,10.765-23.995,23.995V140.211z"/>
			</g>
			<g>
				<path fill="#1C726C" d="M-1465.921,103.198c-7.105,0-12.886,5.78-12.886,12.886v24.126c0,7.105,5.78,12.887,12.886,12.887
					h222.733c7.105,0,12.886-5.781,12.886-12.887v-24.126c0-7.105-5.78-12.886-12.886-12.886H-1465.921z"/>
			</g>
			<g>
				<path fill="#1C726C" d="M-1477.341,140.211h-2.932v-24.127c0-7.913,6.438-14.352,14.353-14.352h222.732
					c7.913,0,14.353,6.438,14.353,14.352h-2.933c0-6.297-5.122-11.42-11.42-11.42h-222.732c-6.298,0-11.421,5.123-11.421,11.42
					V140.211z"/>
			</g>
			<g>
				<path fill="#30B7AA" d="M-1243.188,154.563h-222.732c-7.914,0-14.353-6.438-14.353-14.352h2.932
					c0,6.297,5.123,11.42,11.421,11.42h222.732c6.298,0,11.42-5.123,11.42-11.42v-24.127h2.933v24.127
					C-1228.835,148.124-1235.274,154.563-1243.188,154.563z"/>
			</g>
			<g>
				<path fill="#282828" d="M-1160.363,685.211c2.796,25.134,10.477,43.192,19.52,43.192h27.021v-43.192H-1160.363z"/>
			</g>
			<g>
				<ellipse fill="#1D1D1B" cx="-1113.823" cy="664.259" rx="20.653" ry="64.145"/>
			</g>
			<g>
				<path fill="#707070" d="M-1113.822,708.117c-1.079,0-1.955-0.875-1.955-1.955c0-1.079,0.876-1.954,1.955-1.954
					c4.817,0,11.536-15.197,11.536-39.949c0-24.75-6.719-39.947-11.536-39.947c-1.079,0-1.955-0.876-1.955-1.955
					s0.876-1.954,1.955-1.954c10.032,0,15.445,22.596,15.445,43.856S-1103.79,708.117-1113.822,708.117z"/>
			</g>
			<g>
				<ellipse fill="#1C726C" cx="-1116.503" cy="664.259" rx="6.746" ry="20.952"/>
			</g>
			<g>
				<path fill="#707070" d="M-1123.247,723.301c-0.651,0-1.288-0.324-1.658-0.917c-7.109-11.345-11.525-33.618-11.525-58.125
					c0-23.14,4.051-44.794,10.572-56.512c0.525-0.943,1.715-1.28,2.658-0.758c0.943,0.524,1.283,1.716,0.758,2.659
					c-6.217,11.17-10.078,32.097-10.078,54.61c0,23.814,4.187,45.292,10.927,56.05c0.573,0.915,0.297,2.121-0.618,2.694
					C-1122.534,723.205-1122.894,723.301-1123.247,723.301z"/>
			</g>
			<g>
				<g>
					<g>
						<path fill="#FFFFFF" d="M-1435.852,484.185l-18.789-32.544c2.154,0.655,4.432,0.999,6.778,0.999h79.02v39.967h-52.422
							C-1427.354,492.606-1432.807,489.458-1435.852,484.185z"/>
					</g>
					<g>
						<path fill="#FFFFFF" d="M-1447.862,446.538c-6.089,0-11.542-3.148-14.586-8.422c-3.045-5.273-3.045-11.57,0-16.844
							l26.21-45.397l34.612,19.983l-29.26,50.68H-1447.862z"/>
					</g>
					<g>
						<polygon fill="#FFFFFF" points="-1413.063,375.701 -1397.236,403.144 -1444.742,375.716 						"/>
					</g>
				</g>
				<g>
					<g>
						<path fill="#FFFFFF" d="M-1254.151,437.943l-18.789,32.544c-0.51-2.192-1.352-4.337-2.525-6.37l-39.509-68.432l34.612-19.984
							l26.211,45.398C-1251.107,426.373-1251.106,432.67-1254.151,437.943z"/>
					</g>
					<g>
						<path fill="#FFFFFF" d="M-1280.749,467.168c3.045,5.273,3.045,11.57,0,16.844s-8.498,8.422-14.588,8.422h-52.421v-39.967
							h58.521L-1280.749,467.168z"/>
					</g>
					<g>
						<polygon fill="#FFFFFF" points="-1359.495,472.45 -1343.644,445.022 -1343.644,499.878 						"/>
					</g>
				</g>
				<g>
					<g>
						<path fill="#FFFFFF" d="M-1384.897,303.449h37.578c-1.645,1.537-3.08,3.338-4.254,5.371l-39.51,68.432l-34.613-19.983
							l26.211-45.398C-1396.44,306.598-1390.987,303.449-1384.897,303.449z"/>
					</g>
					<g>
						<path fill="#FFFFFF" d="M-1346.29,311.87c3.045-5.272,8.498-8.421,14.588-8.421c6.089,0,11.542,3.148,14.586,8.421
							l26.211,45.398l-34.612,19.983l-29.261-50.68L-1346.29,311.87z"/>
					</g>
					<g>
						<polygon fill="#FFFFFF" points="-1302.343,377.426 -1334.021,377.411 -1286.516,349.983 						"/>
					</g>
				</g>
			</g>
		</g>
	</g>
</g>
<g>
	<g>
		<g>
			<g>
				<rect x="-744.279" y="724.357" fill="#999999" width="458.073" height="39.093"/>
			</g>
			<g>
				<polygon fill="#603226" points="-353.343,712.866 -353.343,597.883 -344.913,597.883 -322.046,206.265 -659.81,206.265 
					-628.929,735.107 -382.931,735.107 -382.931,712.866 				"/>
			</g>
			<g>
				<path fill="#773D2B" d="M-353.343,597.883h8.43l22.867-391.618H-659.81l30.881,528.843h245.998v-64.144
					C-382.931,634.588-373.782,597.883-353.343,597.883z"/>
			</g>
			<g>
				<polygon fill="#804E36" points="-739.681,206.265 -708.8,735.107 -418.644,735.107 -401.917,206.265 				"/>
			</g>
			<g>
				<polygon fill="#773D2B" points="-659.81,206.265 -628.929,82.739 -352.927,82.739 -322.046,206.265 				"/>
			</g>
			<g>
				<polygon fill="#804E36" points="-739.681,206.265 -708.8,82.739 -418.644,82.739 -401.917,206.265 				"/>
			</g>
			<g>
				<rect x="-760.269" y="185.033" fill="#804E36" width="366.072" height="48.311"/>
			</g>
			<g>
				<rect x="-394.196" y="185.033" fill="#773D2B" width="92" height="48.311"/>
			</g>
			<g>
				<rect x="-760.269" y="231.389" fill="#603226" width="458.074" height="3.909"/>
			</g>
			<g>
				<rect x="-708.8" y="733.153" fill="#603226" width="325.869" height="3.909"/>
			</g>
			<g>
				<rect x="-760.269" y="183.079" fill="#915740" width="458.074" height="3.909"/>
			</g>
			<g>
				<path fill="#494949" d="M-353.343,606.818c-11.406,0-20.652,28.719-20.652,64.145c0,35.427,9.246,64.145,20.652,64.145h27.021
					V606.818H-353.343z"/>
			</g>
			<g>
				<path fill="#603226" d="M-455.687,173.842h-222.732c-14.848,0-26.928-12.079-26.928-26.927h2.932
					c0,13.23,10.766,23.995,23.996,23.995h222.732c13.232,0,23.996-10.765,23.996-23.995v-24.127h2.932v24.127
					C-428.759,161.763-440.839,173.842-455.687,173.842z"/>
			</g>
			<g>
				<path fill="#915740" d="M-702.415,146.915h-2.932v-24.127c0-14.848,12.08-26.927,26.928-26.927h222.732
					c14.848,0,26.928,12.079,26.928,26.927h-2.932c0-13.23-10.764-23.995-23.996-23.995h-222.732
					c-13.23,0-23.996,10.765-23.996,23.995V146.915z"/>
			</g>
			<g>
				<path fill="#603226" d="M-678.419,109.902c-7.105,0-12.887,5.78-12.887,12.886v24.126c0,7.105,5.781,12.887,12.887,12.887
					h222.732c7.105,0,12.887-5.781,12.887-12.887v-24.126c0-7.105-5.781-12.886-12.887-12.886H-678.419z"/>
			</g>
			<g>
				<path fill="#603226" d="M-689.839,146.915h-2.934v-24.127c0-7.913,6.439-14.352,14.354-14.352h222.732
					c7.914,0,14.352,6.438,14.352,14.352h-2.932c0-6.297-5.123-11.42-11.42-11.42h-222.732c-6.297,0-11.42,5.123-11.42,11.42
					V146.915z"/>
			</g>
			<g>
				<path fill="#915740" d="M-455.687,161.267h-222.732c-7.914,0-14.354-6.438-14.354-14.352h2.934c0,6.297,5.123,11.42,11.42,11.42
					h222.732c6.297,0,11.42-5.123,11.42-11.42v-24.127h2.932v24.127C-441.335,154.828-447.772,161.267-455.687,161.267z"/>
			</g>
			<g>
				<path fill="#282828" d="M-372.862,691.915c2.797,25.134,10.477,43.192,19.52,43.192h27.021v-43.192H-372.862z"/>
			</g>
			<g>
				<ellipse fill="#1D1D1B" cx="-326.321" cy="670.963" rx="20.652" ry="64.145"/>
			</g>
			<g>
				<path fill="#707070" d="M-326.321,714.821c-1.08,0-1.955-0.875-1.955-1.955c0-1.079,0.875-1.954,1.955-1.954
					c4.816,0,11.537-15.197,11.537-39.949c0-24.75-6.721-39.947-11.537-39.947c-1.08,0-1.955-0.876-1.955-1.955
					s0.875-1.954,1.955-1.954c10.031,0,15.445,22.596,15.445,43.856S-316.29,714.821-326.321,714.821z"/>
			</g>
			<g>
				<ellipse fill="#6B3F30" cx="-329.002" cy="670.963" rx="6.745" ry="20.952"/>
			</g>
			<g>
				<path fill="#707070" d="M-335.747,730.005c-0.65,0-1.287-0.324-1.656-0.917c-7.109-11.345-11.525-33.618-11.525-58.125
					c0-23.14,4.051-44.794,10.57-56.512c0.527-0.943,1.717-1.28,2.66-0.758c0.943,0.524,1.283,1.716,0.758,2.659
					c-6.217,11.17-10.078,32.097-10.078,54.61c0,23.814,4.186,45.292,10.926,56.05c0.574,0.915,0.297,2.121-0.617,2.694
					C-335.032,729.909-335.392,730.005-335.747,730.005z"/>
			</g>
			<g>
				<g>
					<g>
						<path fill="#FFFFFF" d="M-648.351,490.889l-18.789-32.544c2.154,0.655,4.432,0.999,6.779,0.999h79.02v39.967h-52.422
							C-639.853,499.311-645.306,496.162-648.351,490.889z"/>
					</g>
					<g>
						<path fill="#FFFFFF" d="M-660.36,453.242c-6.09,0-11.543-3.148-14.588-8.422c-3.043-5.273-3.043-11.57,0-16.844l26.211-45.397
							l34.613,19.983l-29.26,50.68H-660.36z"/>
					</g>
					<g>
						<polygon fill="#FFFFFF" points="-625.562,382.405 -609.735,409.848 -657.241,382.42 						"/>
					</g>
				</g>
				<g>
					<g>
						<path fill="#FFFFFF" d="M-466.651,444.647l-18.789,32.544c-0.508-2.192-1.35-4.337-2.523-6.37l-39.51-68.432l34.613-19.984
							l26.211,45.398C-463.606,433.077-463.606,439.374-466.651,444.647z"/>
					</g>
					<g>
						<path fill="#FFFFFF" d="M-493.247,473.872c3.043,5.273,3.043,11.57,0,16.844c-3.045,5.273-8.498,8.422-14.588,8.422h-52.422
							v-39.967h58.521L-493.247,473.872z"/>
					</g>
					<g>
						<polygon fill="#FFFFFF" points="-571.993,479.154 -556.142,451.727 -556.142,506.582 						"/>
					</g>
				</g>
				<g>
					<g>
						<path fill="#FFFFFF" d="M-597.396,310.153h37.578c-1.645,1.537-3.082,3.338-4.256,5.371l-39.508,68.432l-34.613-19.983
							l26.211-45.398C-608.938,313.302-603.485,310.153-597.396,310.153z"/>
					</g>
					<g>
						<path fill="#FFFFFF" d="M-558.788,318.574c3.045-5.272,8.498-8.421,14.586-8.421c6.09,0,11.543,3.148,14.588,8.421
							l26.211,45.398l-34.613,19.983l-29.26-50.68L-558.788,318.574z"/>
					</g>
					<g>
						<polygon fill="#FFFFFF" points="-514.841,384.13 -546.521,384.115 -499.015,356.688 						"/>
					</g>
				</g>
			</g>
		</g>
	</g>
</g>
<g>
	<g>
		<g>
			<g>
				<rect x="89.277" y="724.357" fill="#999999" width="458.073" height="39.093"/>
			</g>
			<g>
				<polygon fill="#354468" points="480.214,712.866 480.214,597.883 488.644,597.883 511.511,206.265 173.747,206.265 
					204.628,735.107 450.626,735.107 450.626,712.866 				"/>
			</g>
			<g>
				<path fill="#3D4B78" d="M480.214,597.883h8.43l22.867-391.618H173.747l30.881,528.843h245.998v-64.144
					C450.626,634.588,459.774,597.883,480.214,597.883z"/>
			</g>
			<g>
				<polygon fill="#40549C" points="93.876,206.265 124.757,735.107 414.913,735.107 431.64,206.265 				"/>
			</g>
			<g>
				<polygon fill="#3D4B78" points="173.747,206.265 204.628,82.739 480.63,82.739 511.511,206.265 				"/>
			</g>
			<g>
				<polygon fill="#40549C" points="93.876,206.265 124.757,82.739 414.913,82.739 431.64,206.265 				"/>
			</g>
			<g>
				<rect x="73.288" y="185.033" fill="#40549C" width="366.072" height="48.311"/>
			</g>
			<g>
				<rect x="439.36" y="185.033" fill="#3D4B78" width="92.002" height="48.311"/>
			</g>
			<g>
				<rect x="73.288" y="231.389" fill="#354468" width="458.074" height="3.909"/>
			</g>
			<g>
				<rect x="124.757" y="733.153" fill="#1C726C" width="325.869" height="3.909"/>
			</g>
			<g>
				<rect x="73.288" y="183.079" fill="#506BA0" width="458.074" height="3.909"/>
			</g>
			<g>
				<path fill="#494949" d="M480.214,606.818c-11.406,0-20.652,28.719-20.652,64.145c0,35.427,9.246,64.145,20.652,64.145h27.021
					V606.818H480.214z"/>
			</g>
			<g>
				<path fill="#354468" d="M377.87,173.842H155.138c-14.848,0-26.928-12.079-26.928-26.927h2.934
					c0,13.23,10.764,23.995,23.994,23.995H377.87c13.232,0,23.996-10.765,23.996-23.995v-24.127h2.932v24.127
					C404.798,161.763,392.72,173.842,377.87,173.842z"/>
			</g>
			<g>
				<path fill="#506BA0" d="M131.144,146.915h-2.934v-24.127c0-14.848,12.08-26.927,26.928-26.927H377.87
					c14.85,0,26.928,12.079,26.928,26.927h-2.932c0-13.23-10.764-23.995-23.996-23.995H155.138
					c-13.23,0-23.994,10.765-23.994,23.995V146.915z"/>
			</g>
			<g>
				<path fill="#354468" d="M155.138,109.902c-7.105,0-12.887,5.78-12.887,12.886v24.126c0,7.105,5.781,12.887,12.887,12.887H377.87
					c7.105,0,12.887-5.781,12.887-12.887v-24.126c0-7.105-5.781-12.886-12.887-12.886H155.138z"/>
			</g>
			<g>
				<path fill="#1C726C" d="M143.718,146.915h-2.932v-24.127c0-7.913,6.438-14.352,14.352-14.352H377.87
					c7.914,0,14.354,6.438,14.354,14.352h-2.934c0-6.297-5.121-11.42-11.42-11.42H155.138c-6.297,0-11.42,5.123-11.42,11.42V146.915
					z"/>
			</g>
			<g>
				<path fill="#506BA0" d="M377.87,161.267H155.138c-7.914,0-14.352-6.438-14.352-14.352h2.932c0,6.297,5.123,11.42,11.42,11.42
					H377.87c6.299,0,11.42-5.123,11.42-11.42v-24.127h2.934v24.127C392.224,154.828,385.784,161.267,377.87,161.267z"/>
			</g>
			<g>
				<path fill="#282828" d="M460.694,691.915c2.797,25.134,10.477,43.192,19.52,43.192h27.021v-43.192H460.694z"/>
			</g>
			<g>
				<ellipse fill="#1D1D1B" cx="507.235" cy="670.963" rx="20.652" ry="64.145"/>
			</g>
			<g>
				<path fill="#707070" d="M507.235,714.821c-1.078,0-1.955-0.875-1.955-1.955c0-1.079,0.877-1.954,1.955-1.954
					c4.818,0,11.537-15.197,11.537-39.949c0-24.75-6.719-39.947-11.537-39.947c-1.078,0-1.955-0.876-1.955-1.955
					s0.877-1.954,1.955-1.954c10.033,0,15.445,22.596,15.445,43.856S517.269,714.821,507.235,714.821z"/>
			</g>
			<g>
				<ellipse fill="#354468" cx="504.555" cy="670.963" rx="6.745" ry="20.952"/>
			</g>
			<g>
				<path fill="#707070" d="M497.812,730.005c-0.652,0-1.289-0.324-1.658-0.917c-7.109-11.345-11.525-33.618-11.525-58.125
					c0-23.14,4.051-44.794,10.572-56.512c0.525-0.943,1.715-1.28,2.658-0.758c0.943,0.524,1.283,1.716,0.758,2.659
					c-6.217,11.17-10.078,32.097-10.078,54.61c0,23.814,4.186,45.292,10.926,56.05c0.574,0.915,0.297,2.121-0.617,2.694
					C498.524,729.909,498.165,730.005,497.812,730.005z"/>
			</g>
			<g>
				<g>
					<g>
						<path fill="#FFFFFF" d="M185.206,490.889l-18.789-32.544c2.154,0.655,4.432,0.999,6.779,0.999h79.02v39.967h-52.422
							C193.704,499.311,188.251,496.162,185.206,490.889z"/>
					</g>
					<g>
						<path fill="#FFFFFF" d="M173.196,453.242c-6.09,0-11.543-3.148-14.586-8.422c-3.045-5.273-3.045-11.57,0-16.844l26.209-45.397
							l34.613,19.983l-29.26,50.68H173.196z"/>
					</g>
					<g>
						<polygon fill="#FFFFFF" points="207.995,382.405 223.821,409.848 176.315,382.42 						"/>
					</g>
				</g>
				<g>
					<g>
						<path fill="#FFFFFF" d="M366.907,444.647l-18.789,32.544c-0.51-2.192-1.352-4.337-2.525-6.37l-39.51-68.432l34.613-19.984
							l26.211,45.398C369.95,433.077,369.952,439.374,366.907,444.647z"/>
					</g>
					<g>
						<path fill="#FFFFFF" d="M340.31,473.872c3.045,5.273,3.045,11.57,0,16.844s-8.498,8.422-14.588,8.422H273.3v-39.967h58.521
							L340.31,473.872z"/>
					</g>
					<g>
						<polygon fill="#FFFFFF" points="261.563,479.154 277.415,451.727 277.415,506.582 						"/>
					</g>
				</g>
				<g>
					<g>
						<path fill="#FFFFFF" d="M236.161,310.153h37.578c-1.645,1.537-3.08,3.338-4.254,5.371l-39.51,68.432l-34.613-19.983
							l26.211-45.398C224.618,313.302,230.071,310.153,236.161,310.153z"/>
					</g>
					<g>
						<path fill="#FFFFFF" d="M274.769,318.574c3.045-5.272,8.498-8.421,14.588-8.421c6.088,0,11.541,3.148,14.586,8.421
							l26.211,45.398l-34.613,19.983l-29.26-50.68L274.769,318.574z"/>
					</g>
					<g>
						<polygon fill="#FFFFFF" points="318.716,384.13 287.036,384.115 334.542,356.688 						"/>
					</g>
				</g>
			</g>
		</g>
	</g>
</g>
<g>
	<g>
		<g>
			<g>
				<rect x="867.04" y="725.99" fill="#999999" width="458.074" height="39.093"/>
			</g>
			<g>
				<polygon fill="#9B9B9B" points="1257.978,714.499 1257.978,599.516 1266.407,599.516 1289.274,207.897 951.511,207.897 
					982.392,736.74 1228.39,736.74 1228.39,714.499 				"/>
			</g>
			<g>
				<path fill="#BCBCBC" d="M1257.978,599.516h8.43l22.867-391.618H951.511l30.881,528.843h245.998v-64.144
					C1228.39,636.221,1237.538,599.516,1257.978,599.516z"/>
			</g>
			<g>
				<polygon fill="#D3D3D3" points="871.64,207.897 902.521,736.74 1192.677,736.74 1209.403,207.897 				"/>
			</g>
			<g>
				<polygon fill="#BCBCBC" points="951.511,207.897 982.392,84.372 1258.394,84.372 1289.274,207.897 				"/>
			</g>
			<g>
				<polygon fill="#D3D3D3" points="871.64,207.897 902.521,84.372 1192.677,84.372 1209.403,207.897 				"/>
			</g>
			<g>
				<rect x="851.052" y="186.666" fill="#D3D3D3" width="366.072" height="48.311"/>
			</g>
			<g>
				<rect x="1217.124" y="186.666" fill="#BCBCBC" width="92" height="48.311"/>
			</g>
			<g>
				<rect x="851.052" y="233.021" fill="#9B9B9B" width="458.074" height="3.909"/>
			</g>
			<g>
				<rect x="902.521" y="734.786" fill="#9B9B9B" width="325.869" height="3.909"/>
			</g>
			<g>
				<rect x="851.052" y="184.712" fill="#DDDDDD" width="458.074" height="3.909"/>
			</g>
			<g>
				<path fill="#494949" d="M1257.978,608.451c-11.406,0-20.652,28.719-20.652,64.145c0,35.427,9.246,64.145,20.652,64.145h27.021
					V608.451H1257.978z"/>
			</g>
			<g>
				<path fill="#9B9B9B" d="M1155.634,175.475H932.901c-14.848,0-26.928-12.079-26.928-26.927h2.932
					c0,13.23,10.766,23.995,23.996,23.995h222.732c13.232,0,23.996-10.765,23.996-23.995v-24.127h2.932v24.127
					C1182.562,163.396,1170.481,175.475,1155.634,175.475z"/>
			</g>
			<g>
				<path fill="#DDDDDD" d="M908.905,148.548h-2.932v-24.127c0-14.848,12.08-26.927,26.928-26.927h222.732
					c14.848,0,26.928,12.079,26.928,26.927h-2.932c0-13.23-10.764-23.995-23.996-23.995H932.901
					c-13.23,0-23.996,10.765-23.996,23.995V148.548z"/>
			</g>
			<g>
				<path fill="#9B9B9B" d="M932.901,111.535c-7.105,0-12.887,5.78-12.887,12.886v24.126c0,7.105,5.781,12.887,12.887,12.887
					h222.732c7.105,0,12.887-5.781,12.887-12.887v-24.126c0-7.105-5.781-12.886-12.887-12.886H932.901z"/>
			</g>
			<g>
				<path fill="#9B9B9B" d="M921.481,148.548h-2.934v-24.127c0-7.913,6.439-14.352,14.354-14.352h222.732
					c7.914,0,14.352,6.438,14.352,14.352h-2.932c0-6.297-5.123-11.42-11.42-11.42H932.901c-6.297,0-11.42,5.123-11.42,11.42V148.548
					z"/>
			</g>
			<g>
				<path fill="#DDDDDD" d="M1155.634,162.899H932.901c-7.914,0-14.354-6.438-14.354-14.352h2.934c0,6.297,5.123,11.42,11.42,11.42
					h222.732c6.297,0,11.42-5.123,11.42-11.42v-24.127h2.932v24.127C1169.985,156.461,1163.548,162.899,1155.634,162.899z"/>
			</g>
			<g>
				<path fill="#282828" d="M1238.458,693.548c2.797,25.134,10.477,43.192,19.52,43.192h27.021v-43.192H1238.458z"/>
			</g>
			<g>
				<ellipse fill="#1D1D1B" cx="1284.999" cy="672.596" rx="20.652" ry="64.145"/>
			</g>
			<g>
				<path fill="#707070" d="M1284.999,716.454c-1.08,0-1.955-0.875-1.955-1.955c0-1.079,0.875-1.954,1.955-1.954
					c4.816,0,11.537-15.197,11.537-39.949c0-24.75-6.721-39.947-11.537-39.947c-1.08,0-1.955-0.876-1.955-1.955
					s0.875-1.954,1.955-1.954c10.031,0,15.445,22.596,15.445,43.856S1295.03,716.454,1284.999,716.454z"/>
			</g>
			<g>
				<ellipse fill="#9B9B9B" cx="1282.318" cy="672.596" rx="6.745" ry="20.952"/>
			</g>
			<g>
				<path fill="#707070" d="M1275.573,731.638c-0.65,0-1.287-0.324-1.656-0.917c-7.109-11.345-11.525-33.618-11.525-58.125
					c0-23.14,4.051-44.794,10.57-56.512c0.527-0.943,1.717-1.28,2.66-0.758c0.943,0.524,1.283,1.716,0.758,2.659
					c-6.217,11.17-10.078,32.097-10.078,54.61c0,23.814,4.186,45.292,10.926,56.05c0.574,0.915,0.297,2.121-0.617,2.694
					C1276.288,731.542,1275.929,731.638,1275.573,731.638z"/>
			</g>
			<g>
				<g>
					<g>
						<path fill="#FFFFFF" d="M962.97,492.521l-18.789-32.544c2.154,0.655,4.432,0.999,6.779,0.999h79.02v39.967h-52.422
							C971.468,500.943,966.015,497.795,962.97,492.521z"/>
					</g>
					<g>
						<path fill="#FFFFFF" d="M950.96,454.875c-6.09,0-11.543-3.148-14.588-8.422c-3.043-5.273-3.043-11.57,0-16.844l26.211-45.397
							l34.613,19.983l-29.26,50.68H950.96z"/>
					</g>
					<g>
						<polygon fill="#FFFFFF" points="985.759,384.038 1001.585,411.48 954.079,384.053 						"/>
					</g>
				</g>
				<g>
					<g>
						<path fill="#FFFFFF" d="M1144.669,446.28l-18.789,32.544c-0.508-2.192-1.35-4.337-2.523-6.37l-39.51-68.432l34.613-19.984
							l26.211,45.398C1147.714,434.71,1147.714,441.007,1144.669,446.28z"/>
					</g>
					<g>
						<path fill="#FFFFFF" d="M1118.073,475.505c3.043,5.273,3.043,11.57,0,16.844c-3.045,5.273-8.498,8.422-14.588,8.422h-52.422
							v-39.967h58.521L1118.073,475.505z"/>
					</g>
					<g>
						<polygon fill="#FFFFFF" points="1039.327,480.787 1055.179,453.359 1055.179,508.215 						"/>
					</g>
				</g>
				<g>
					<g>
						<path fill="#FFFFFF" d="M1013.925,311.786h37.578c-1.645,1.537-3.082,3.338-4.256,5.371l-39.508,68.432l-34.613-19.983
							l26.211-45.398C1002.382,314.935,1007.835,311.786,1013.925,311.786z"/>
					</g>
					<g>
						<path fill="#FFFFFF" d="M1052.532,320.207c3.045-5.272,8.498-8.421,14.586-8.421c6.09,0,11.543,3.148,14.588,8.421
							l26.211,45.398l-34.613,19.983l-29.26-50.68L1052.532,320.207z"/>
					</g>
					<g>
						<polygon fill="#FFFFFF" points="1096.479,385.763 1064.8,385.748 1112.306,358.32 						"/>
					</g>
				</g>
			</g>
		</g>
	</g>
</g>
</svg>
