<?xml version="1.0" encoding="utf-8"?>
<!-- Generator: Adobe Illustrator 16.0.3, SVG Export Plug-In . SVG Version: 6.00 Build 0)  -->
<!DOCTYPE svg PUBLIC "-//W3C//DTD SVG 1.1//EN" "http://www.w3.org/Graphics/SVG/1.1/DTD/svg11.dtd">
<svg version="1.1" id="latas" xmlns="http://www.w3.org/2000/svg" xmlns:xlink="http://www.w3.org/1999/xlink" x="0px" y="0px"
	 width="605.549px" height="843.132px" viewBox="0 0 605.549 843.132" enable-background="new 0 0 605.549 843.132"
	 xml:space="preserve">
<g>
	<g>
		<g>
			<g>
				<rect x="-2305.625" y="717.653" fill="#999999" width="458.072" height="39.093"/>
			</g>
			<g>
				<polygon fill="#1A6B65" points="-1914.688,706.162 -1914.688,591.179 -1906.26,591.179 -1883.392,199.561 -2221.156,199.561 
					-2190.275,728.403 -1944.277,728.403 -1944.277,706.162 				"/>
			</g>
			<g>
				<path fill="#1F8985" d="M-1914.688,591.179h8.429l22.868-391.618h-337.765l30.881,528.843h245.998V664.26
					C-1944.277,627.884-1935.128,591.179-1914.688,591.179z"/>
			</g>
			<g>
				<polygon fill="#269696" points="-2301.027,199.561 -2270.146,728.403 -1979.99,728.403 -1963.263,199.561 				"/>
			</g>
			<g>
				<polygon fill="#1F8985" points="-2221.156,199.561 -2190.275,76.035 -1914.273,76.035 -1883.392,199.561 				"/>
			</g>
			<g>
				<polygon fill="#269696" points="-2301.027,199.561 -2270.146,76.035 -1979.99,76.035 -1963.263,199.561 				"/>
			</g>
			<g>
				<rect x="-2321.615" y="178.329" fill="#269696" width="366.073" height="48.311"/>
			</g>
			<g>
				<rect x="-1955.542" y="178.329" fill="#1F8985" width="92.001" height="48.311"/>
			</g>
			<g>
				<rect x="-2321.615" y="224.685" fill="#1F8985" width="458.074" height="3.909"/>
			</g>
			<g>
				<rect x="-2270.146" y="726.449" fill="#1C726C" width="325.87" height="3.909"/>
			</g>
			<g>
				<rect x="-2321.615" y="176.375" fill="#30B7AA" width="458.074" height="3.909"/>
			</g>
			<g>
				<path fill="#494949" d="M-1914.688,600.114c-11.406,0-20.653,28.719-20.653,64.145c0,35.427,9.247,64.145,20.653,64.145h27.021
					V600.114H-1914.688z"/>
			</g>
			<g>
				<path fill="#1C726C" d="M-2017.032,167.138h-222.732c-14.849,0-26.928-12.079-26.928-26.927h2.933
					c0,13.23,10.764,23.995,23.995,23.995h222.732c13.231,0,23.995-10.765,23.995-23.995v-24.127h2.933v24.127
					C-1990.104,155.059-2002.184,167.138-2017.032,167.138z"/>
			</g>
			<g>
				<path fill="#30B7AA" d="M-2263.76,140.211h-2.933v-24.127c0-14.848,12.079-26.927,26.928-26.927h222.732
					c14.849,0,26.928,12.079,26.928,26.927h-2.933c0-13.23-10.764-23.995-23.995-23.995h-222.732
					c-13.231,0-23.995,10.765-23.995,23.995V140.211z"/>
			</g>
			<g>
				<path fill="#1C726C" d="M-2239.766,103.198c-7.105,0-12.886,5.78-12.886,12.886v24.126c0,7.105,5.78,12.887,12.886,12.887
					h222.733c7.105,0,12.886-5.781,12.886-12.887v-24.126c0-7.105-5.78-12.886-12.886-12.886H-2239.766z"/>
			</g>
			<g>
				<path fill="#1C726C" d="M-2251.186,140.211h-2.932v-24.127c0-7.913,6.438-14.352,14.353-14.352h222.732
					c7.913,0,14.353,6.438,14.353,14.352h-2.933c0-6.297-5.122-11.42-11.42-11.42h-222.732c-6.298,0-11.421,5.123-11.421,11.42
					V140.211z"/>
			</g>
			<g>
				<path fill="#30B7AA" d="M-2017.032,154.563h-222.732c-7.914,0-14.353-6.438-14.353-14.352h2.932
					c0,6.297,5.123,11.42,11.421,11.42h222.732c6.298,0,11.42-5.123,11.42-11.42v-24.127h2.933v24.127
					C-2002.68,148.124-2009.119,154.563-2017.032,154.563z"/>
			</g>
			<g>
				<path fill="#282828" d="M-1934.208,685.211c2.796,25.134,10.477,43.192,19.52,43.192h27.021v-43.192H-1934.208z"/>
			</g>
			<g>
				<ellipse fill="#1D1D1B" cx="-1887.667" cy="664.259" rx="20.653" ry="64.145"/>
			</g>
			<g>
				<path fill="#707070" d="M-1887.667,708.117c-1.079,0-1.955-0.875-1.955-1.955c0-1.079,0.876-1.954,1.955-1.954
					c4.817,0,11.536-15.197,11.536-39.949c0-24.75-6.719-39.947-11.536-39.947c-1.079,0-1.955-0.876-1.955-1.955
					s0.876-1.954,1.955-1.954c10.032,0,15.445,22.596,15.445,43.856S-1877.635,708.117-1887.667,708.117z"/>
			</g>
			<g>
				<ellipse fill="#1C726C" cx="-1890.348" cy="664.259" rx="6.746" ry="20.952"/>
			</g>
			<g>
				<path fill="#707070" d="M-1897.092,723.301c-0.651,0-1.288-0.324-1.658-0.917c-7.109-11.345-11.525-33.618-11.525-58.125
					c0-23.14,4.051-44.794,10.572-56.512c0.525-0.943,1.715-1.28,2.658-0.758c0.943,0.524,1.283,1.716,0.758,2.659
					c-6.217,11.17-10.078,32.097-10.078,54.61c0,23.814,4.187,45.292,10.927,56.05c0.573,0.915,0.297,2.121-0.618,2.694
					C-1896.379,723.205-1896.738,723.301-1897.092,723.301z"/>
			</g>
			<g>
				<g>
					<g>
						<path fill="#FFFFFF" d="M-2209.696,484.185l-18.789-32.544c2.154,0.655,4.432,0.999,6.778,0.999h79.02v39.967h-52.422
							C-2201.198,492.606-2206.651,489.458-2209.696,484.185z"/>
					</g>
					<g>
						<path fill="#FFFFFF" d="M-2221.707,446.538c-6.089,0-11.542-3.148-14.586-8.422c-3.045-5.273-3.045-11.57,0-16.844
							l26.21-45.397l34.612,19.983l-29.26,50.68H-2221.707z"/>
					</g>
					<g>
						<polygon fill="#FFFFFF" points="-2186.908,375.701 -2171.081,403.144 -2218.587,375.716 						"/>
					</g>
				</g>
				<g>
					<g>
						<path fill="#FFFFFF" d="M-2027.996,437.943l-18.789,32.544c-0.51-2.192-1.352-4.337-2.525-6.37l-39.509-68.432l34.612-19.984
							l26.211,45.398C-2024.952,426.373-2024.951,432.67-2027.996,437.943z"/>
					</g>
					<g>
						<path fill="#FFFFFF" d="M-2054.594,467.168c3.045,5.273,3.045,11.57,0,16.844s-8.498,8.422-14.588,8.422h-52.421v-39.967
							h58.521L-2054.594,467.168z"/>
					</g>
					<g>
						<polygon fill="#FFFFFF" points="-2133.34,472.45 -2117.488,445.022 -2117.488,499.878 						"/>
					</g>
				</g>
				<g>
					<g>
						<path fill="#FFFFFF" d="M-2158.742,303.449h37.578c-1.645,1.537-3.08,3.338-4.254,5.371l-39.51,68.432l-34.613-19.983
							l26.211-45.398C-2170.285,306.598-2164.832,303.449-2158.742,303.449z"/>
					</g>
					<g>
						<path fill="#FFFFFF" d="M-2120.135,311.87c3.045-5.272,8.498-8.421,14.588-8.421c6.089,0,11.542,3.148,14.586,8.421
							l26.211,45.398l-34.612,19.983l-29.261-50.68L-2120.135,311.87z"/>
					</g>
					<g>
						<polygon fill="#FFFFFF" points="-2076.188,377.426 -2107.866,377.411 -2060.36,349.983 						"/>
					</g>
				</g>
			</g>
		</g>
	</g>
</g>
<g>
	<g>
		<g>
			<g>
				<rect x="-1518.124" y="724.357" fill="#999999" width="458.073" height="39.093"/>
			</g>
			<g>
				<polygon fill="#603226" points="-1127.188,712.866 -1127.188,597.883 -1118.758,597.883 -1095.891,206.265 -1433.654,206.265 
					-1402.773,735.107 -1156.775,735.107 -1156.775,712.866 				"/>
			</g>
			<g>
				<path fill="#773D2B" d="M-1127.188,597.883h8.43l22.867-391.618h-337.764l30.881,528.843h245.998v-64.144
					C-1156.775,634.588-1147.627,597.883-1127.188,597.883z"/>
			</g>
			<g>
				<polygon fill="#804E36" points="-1513.525,206.265 -1482.645,735.107 -1192.488,735.107 -1175.762,206.265 				"/>
			</g>
			<g>
				<polygon fill="#773D2B" points="-1433.654,206.265 -1402.773,82.739 -1126.771,82.739 -1095.891,206.265 				"/>
			</g>
			<g>
				<polygon fill="#804E36" points="-1513.525,206.265 -1482.645,82.739 -1192.488,82.739 -1175.762,206.265 				"/>
			</g>
			<g>
				<rect x="-1534.113" y="185.033" fill="#804E36" width="366.072" height="48.311"/>
			</g>
			<g>
				<rect x="-1168.041" y="185.033" fill="#773D2B" width="92" height="48.311"/>
			</g>
			<g>
				<rect x="-1534.113" y="231.389" fill="#603226" width="458.074" height="3.909"/>
			</g>
			<g>
				<rect x="-1482.645" y="733.153" fill="#603226" width="325.869" height="3.909"/>
			</g>
			<g>
				<rect x="-1534.113" y="183.079" fill="#915740" width="458.074" height="3.909"/>
			</g>
			<g>
				<path fill="#494949" d="M-1127.188,606.818c-11.406,0-20.652,28.719-20.652,64.145c0,35.427,9.246,64.145,20.652,64.145h27.021
					V606.818H-1127.188z"/>
			</g>
			<g>
				<path fill="#603226" d="M-1229.531,173.842h-222.732c-14.848,0-26.928-12.079-26.928-26.927h2.932
					c0,13.23,10.766,23.995,23.996,23.995h222.732c13.232,0,23.996-10.765,23.996-23.995v-24.127h2.932v24.127
					C-1202.604,161.763-1214.684,173.842-1229.531,173.842z"/>
			</g>
			<g>
				<path fill="#915740" d="M-1476.26,146.915h-2.932v-24.127c0-14.848,12.08-26.927,26.928-26.927h222.732
					c14.848,0,26.928,12.079,26.928,26.927h-2.932c0-13.23-10.764-23.995-23.996-23.995h-222.732
					c-13.23,0-23.996,10.765-23.996,23.995V146.915z"/>
			</g>
			<g>
				<path fill="#603226" d="M-1452.264,109.902c-7.105,0-12.887,5.78-12.887,12.886v24.126c0,7.105,5.781,12.887,12.887,12.887
					h222.732c7.105,0,12.887-5.781,12.887-12.887v-24.126c0-7.105-5.781-12.886-12.887-12.886H-1452.264z"/>
			</g>
			<g>
				<path fill="#603226" d="M-1463.684,146.915h-2.934v-24.127c0-7.913,6.439-14.352,14.354-14.352h222.732
					c7.914,0,14.352,6.438,14.352,14.352h-2.932c0-6.297-5.123-11.42-11.42-11.42h-222.732c-6.297,0-11.42,5.123-11.42,11.42
					V146.915z"/>
			</g>
			<g>
				<path fill="#915740" d="M-1229.531,161.267h-222.732c-7.914,0-14.354-6.438-14.354-14.352h2.934
					c0,6.297,5.123,11.42,11.42,11.42h222.732c6.297,0,11.42-5.123,11.42-11.42v-24.127h2.932v24.127
					C-1215.18,154.828-1221.617,161.267-1229.531,161.267z"/>
			</g>
			<g>
				<path fill="#282828" d="M-1146.707,691.915c2.797,25.134,10.477,43.192,19.52,43.192h27.021v-43.192H-1146.707z"/>
			</g>
			<g>
				<ellipse fill="#1D1D1B" cx="-1100.166" cy="670.963" rx="20.652" ry="64.145"/>
			</g>
			<g>
				<path fill="#707070" d="M-1100.166,714.821c-1.08,0-1.955-0.875-1.955-1.955c0-1.079,0.875-1.954,1.955-1.954
					c4.816,0,11.537-15.197,11.537-39.949c0-24.75-6.721-39.947-11.537-39.947c-1.08,0-1.955-0.876-1.955-1.955
					s0.875-1.954,1.955-1.954c10.031,0,15.445,22.596,15.445,43.856S-1090.135,714.821-1100.166,714.821z"/>
			</g>
			<g>
				<ellipse fill="#6B3F30" cx="-1102.847" cy="670.963" rx="6.745" ry="20.952"/>
			</g>
			<g>
				<path fill="#707070" d="M-1109.592,730.005c-0.65,0-1.287-0.324-1.656-0.917c-7.109-11.345-11.525-33.618-11.525-58.125
					c0-23.14,4.051-44.794,10.57-56.512c0.527-0.943,1.717-1.28,2.66-0.758c0.943,0.524,1.283,1.716,0.758,2.659
					c-6.217,11.17-10.078,32.097-10.078,54.61c0,23.814,4.186,45.292,10.926,56.05c0.574,0.915,0.297,2.121-0.617,2.694
					C-1108.877,729.909-1109.236,730.005-1109.592,730.005z"/>
			</g>
			<g>
				<g>
					<g>
						<path fill="#FFFFFF" d="M-1422.195,490.889l-18.789-32.544c2.154,0.655,4.432,0.999,6.779,0.999h79.02v39.967h-52.422
							C-1413.697,499.311-1419.15,496.162-1422.195,490.889z"/>
					</g>
					<g>
						<path fill="#FFFFFF" d="M-1434.205,453.242c-6.09,0-11.543-3.148-14.588-8.422c-3.043-5.273-3.043-11.57,0-16.844
							l26.211-45.397l34.613,19.983l-29.26,50.68H-1434.205z"/>
					</g>
					<g>
						<polygon fill="#FFFFFF" points="-1399.406,382.405 -1383.58,409.848 -1431.086,382.42 						"/>
					</g>
				</g>
				<g>
					<g>
						<path fill="#FFFFFF" d="M-1240.496,444.647l-18.789,32.544c-0.508-2.192-1.35-4.337-2.523-6.37l-39.51-68.432l34.613-19.984
							l26.211,45.398C-1237.451,433.077-1237.451,439.374-1240.496,444.647z"/>
					</g>
					<g>
						<path fill="#FFFFFF" d="M-1267.092,473.872c3.043,5.273,3.043,11.57,0,16.844c-3.045,5.273-8.498,8.422-14.588,8.422h-52.422
							v-39.967h58.521L-1267.092,473.872z"/>
					</g>
					<g>
						<polygon fill="#FFFFFF" points="-1345.838,479.154 -1329.986,451.727 -1329.986,506.582 						"/>
					</g>
				</g>
				<g>
					<g>
						<path fill="#FFFFFF" d="M-1371.24,310.153h37.578c-1.645,1.537-3.082,3.338-4.256,5.371l-39.508,68.432l-34.613-19.983
							l26.211-45.398C-1382.783,313.302-1377.33,310.153-1371.24,310.153z"/>
					</g>
					<g>
						<path fill="#FFFFFF" d="M-1332.633,318.574c3.045-5.272,8.498-8.421,14.586-8.421c6.09,0,11.543,3.148,14.588,8.421
							l26.211,45.398l-34.613,19.983l-29.26-50.68L-1332.633,318.574z"/>
					</g>
					<g>
						<polygon fill="#FFFFFF" points="-1288.686,384.13 -1320.365,384.115 -1272.859,356.688 						"/>
					</g>
				</g>
			</g>
		</g>
	</g>
</g>
<g>
	<g>
		<g>
			<g>
				<rect x="-684.567" y="724.357" fill="#999999" width="458.073" height="39.093"/>
			</g>
			<g>
				<polygon fill="#354468" points="-293.631,712.866 -293.631,597.883 -285.201,597.883 -262.334,206.265 -600.098,206.265 
					-569.217,735.107 -323.219,735.107 -323.219,712.866 				"/>
			</g>
			<g>
				<path fill="#3D4B78" d="M-293.631,597.883h8.43l22.867-391.618h-337.764l30.881,528.843h245.998v-64.144
					C-323.219,634.588-314.07,597.883-293.631,597.883z"/>
			</g>
			<g>
				<polygon fill="#40549C" points="-679.969,206.265 -649.088,735.107 -358.932,735.107 -342.205,206.265 				"/>
			</g>
			<g>
				<polygon fill="#3D4B78" points="-600.098,206.265 -569.217,82.739 -293.215,82.739 -262.334,206.265 				"/>
			</g>
			<g>
				<polygon fill="#40549C" points="-679.969,206.265 -649.088,82.739 -358.932,82.739 -342.205,206.265 				"/>
			</g>
			<g>
				<rect x="-700.557" y="185.033" fill="#40549C" width="366.072" height="48.311"/>
			</g>
			<g>
				<rect x="-334.484" y="185.033" fill="#3D4B78" width="92.002" height="48.311"/>
			</g>
			<g>
				<rect x="-700.557" y="231.389" fill="#354468" width="458.074" height="3.909"/>
			</g>
			<g>
				<rect x="-649.088" y="733.153" fill="#1C726C" width="325.869" height="3.909"/>
			</g>
			<g>
				<rect x="-700.557" y="183.079" fill="#506BA0" width="458.074" height="3.909"/>
			</g>
			<g>
				<path fill="#494949" d="M-293.631,606.818c-11.406,0-20.652,28.719-20.652,64.145c0,35.427,9.246,64.145,20.652,64.145h27.021
					V606.818H-293.631z"/>
			</g>
			<g>
				<path fill="#354468" d="M-395.975,173.842h-222.732c-14.848,0-26.928-12.079-26.928-26.927h2.934
					c0,13.23,10.764,23.995,23.994,23.995h222.732c13.232,0,23.996-10.765,23.996-23.995v-24.127h2.932v24.127
					C-369.047,161.763-381.125,173.842-395.975,173.842z"/>
			</g>
			<g>
				<path fill="#506BA0" d="M-642.701,146.915h-2.934v-24.127c0-14.848,12.08-26.927,26.928-26.927h222.732
					c14.85,0,26.928,12.079,26.928,26.927h-2.932c0-13.23-10.764-23.995-23.996-23.995h-222.732
					c-13.23,0-23.994,10.765-23.994,23.995V146.915z"/>
			</g>
			<g>
				<path fill="#354468" d="M-618.707,109.902c-7.105,0-12.887,5.78-12.887,12.886v24.126c0,7.105,5.781,12.887,12.887,12.887
					h222.732c7.105,0,12.887-5.781,12.887-12.887v-24.126c0-7.105-5.781-12.886-12.887-12.886H-618.707z"/>
			</g>
			<g>
				<path fill="#1C726C" d="M-630.127,146.915h-2.932v-24.127c0-7.913,6.438-14.352,14.352-14.352h222.732
					c7.914,0,14.354,6.438,14.354,14.352h-2.934c0-6.297-5.121-11.42-11.42-11.42h-222.732c-6.297,0-11.42,5.123-11.42,11.42
					V146.915z"/>
			</g>
			<g>
				<path fill="#506BA0" d="M-395.975,161.267h-222.732c-7.914,0-14.352-6.438-14.352-14.352h2.932c0,6.297,5.123,11.42,11.42,11.42
					h222.732c6.299,0,11.42-5.123,11.42-11.42v-24.127h2.934v24.127C-381.621,154.828-388.061,161.267-395.975,161.267z"/>
			</g>
			<g>
				<path fill="#282828" d="M-313.15,691.915c2.797,25.134,10.477,43.192,19.52,43.192h27.021v-43.192H-313.15z"/>
			</g>
			<g>
				<ellipse fill="#1D1D1B" cx="-266.609" cy="670.963" rx="20.652" ry="64.145"/>
			</g>
			<g>
				<path fill="#707070" d="M-266.609,714.821c-1.078,0-1.955-0.875-1.955-1.955c0-1.079,0.877-1.954,1.955-1.954
					c4.818,0,11.537-15.197,11.537-39.949c0-24.75-6.719-39.947-11.537-39.947c-1.078,0-1.955-0.876-1.955-1.955
					s0.877-1.954,1.955-1.954c10.033,0,15.445,22.596,15.445,43.856S-256.576,714.821-266.609,714.821z"/>
			</g>
			<g>
				<ellipse fill="#354468" cx="-269.29" cy="670.963" rx="6.745" ry="20.952"/>
			</g>
			<g>
				<path fill="#707070" d="M-276.033,730.005c-0.652,0-1.289-0.324-1.658-0.917c-7.109-11.345-11.525-33.618-11.525-58.125
					c0-23.14,4.051-44.794,10.572-56.512c0.525-0.943,1.715-1.28,2.658-0.758c0.943,0.524,1.283,1.716,0.758,2.659
					c-6.217,11.17-10.078,32.097-10.078,54.61c0,23.814,4.186,45.292,10.926,56.05c0.574,0.915,0.297,2.121-0.617,2.694
					C-275.32,729.909-275.68,730.005-276.033,730.005z"/>
			</g>
			<g>
				<g>
					<g>
						<path fill="#FFFFFF" d="M-588.639,490.889l-18.789-32.544c2.154,0.655,4.432,0.999,6.779,0.999h79.02v39.967h-52.422
							C-580.141,499.311-585.594,496.162-588.639,490.889z"/>
					</g>
					<g>
						<path fill="#FFFFFF" d="M-600.648,453.242c-6.09,0-11.543-3.148-14.586-8.422c-3.045-5.273-3.045-11.57,0-16.844
							l26.209-45.397l34.613,19.983l-29.26,50.68H-600.648z"/>
					</g>
					<g>
						<polygon fill="#FFFFFF" points="-565.85,382.405 -550.023,409.848 -597.529,382.42 						"/>
					</g>
				</g>
				<g>
					<g>
						<path fill="#FFFFFF" d="M-406.938,444.647l-18.789,32.544c-0.51-2.192-1.352-4.337-2.525-6.37l-39.51-68.432l34.613-19.984
							l26.211,45.398C-403.895,433.077-403.893,439.374-406.938,444.647z"/>
					</g>
					<g>
						<path fill="#FFFFFF" d="M-433.535,473.872c3.045,5.273,3.045,11.57,0,16.844s-8.498,8.422-14.588,8.422h-52.422v-39.967
							h58.521L-433.535,473.872z"/>
					</g>
					<g>
						<polygon fill="#FFFFFF" points="-512.281,479.154 -496.43,451.727 -496.43,506.582 						"/>
					</g>
				</g>
				<g>
					<g>
						<path fill="#FFFFFF" d="M-537.684,310.153h37.578c-1.645,1.537-3.08,3.338-4.254,5.371l-39.51,68.432l-34.613-19.983
							l26.211-45.398C-549.227,313.302-543.773,310.153-537.684,310.153z"/>
					</g>
					<g>
						<path fill="#FFFFFF" d="M-499.076,318.574c3.045-5.272,8.498-8.421,14.588-8.421c6.088,0,11.541,3.148,14.586,8.421
							l26.211,45.398l-34.613,19.983l-29.26-50.68L-499.076,318.574z"/>
					</g>
					<g>
						<polygon fill="#FFFFFF" points="-455.129,384.13 -486.809,384.115 -439.303,356.688 						"/>
					</g>
				</g>
			</g>
		</g>
	</g>
</g>
<g>
	<g>
		<g>
			<g>
				<rect x="93.195" y="725.99" fill="#999999" width="458.074" height="39.093"/>
			</g>
			<g>
				<polygon fill="#9B9B9B" points="484.133,714.499 484.133,599.516 492.563,599.516 515.43,207.897 177.666,207.897 
					208.547,736.74 454.545,736.74 454.545,714.499 				"/>
			</g>
			<g>
				<path fill="#BCBCBC" d="M484.133,599.516h8.43l22.867-391.618H177.666l30.881,528.843h245.998v-64.144
					C454.545,636.221,463.693,599.516,484.133,599.516z"/>
			</g>
			<g>
				<polygon fill="#D3D3D3" points="97.795,207.897 128.676,736.74 418.832,736.74 435.559,207.897 				"/>
			</g>
			<g>
				<polygon fill="#BCBCBC" points="177.666,207.897 208.547,84.372 484.549,84.372 515.43,207.897 				"/>
			</g>
			<g>
				<polygon fill="#D3D3D3" points="97.795,207.897 128.676,84.372 418.832,84.372 435.559,207.897 				"/>
			</g>
			<g>
				<rect x="77.207" y="186.666" fill="#D3D3D3" width="366.072" height="48.311"/>
			</g>
			<g>
				<rect x="443.279" y="186.666" fill="#BCBCBC" width="92" height="48.311"/>
			</g>
			<g>
				<rect x="77.207" y="233.021" fill="#9B9B9B" width="458.074" height="3.909"/>
			</g>
			<g>
				<rect x="128.676" y="734.786" fill="#9B9B9B" width="325.869" height="3.909"/>
			</g>
			<g>
				<rect x="77.207" y="184.712" fill="#DDDDDD" width="458.074" height="3.909"/>
			</g>
			<g>
				<path fill="#494949" d="M484.133,608.451c-11.406,0-20.652,28.719-20.652,64.145c0,35.427,9.246,64.145,20.652,64.145h27.021
					V608.451H484.133z"/>
			</g>
			<g>
				<path fill="#9B9B9B" d="M381.789,175.475H159.057c-14.848,0-26.928-12.079-26.928-26.927h2.932
					c0,13.23,10.766,23.995,23.996,23.995h222.732c13.232,0,23.996-10.765,23.996-23.995v-24.127h2.932v24.127
					C408.717,163.396,396.637,175.475,381.789,175.475z"/>
			</g>
			<g>
				<path fill="#DDDDDD" d="M135.061,148.548h-2.932v-24.127c0-14.848,12.08-26.927,26.928-26.927h222.732
					c14.848,0,26.928,12.079,26.928,26.927h-2.932c0-13.23-10.764-23.995-23.996-23.995H159.057
					c-13.23,0-23.996,10.765-23.996,23.995V148.548z"/>
			</g>
			<g>
				<path fill="#9B9B9B" d="M159.057,111.535c-7.105,0-12.887,5.78-12.887,12.886v24.126c0,7.105,5.781,12.887,12.887,12.887
					h222.732c7.105,0,12.887-5.781,12.887-12.887v-24.126c0-7.105-5.781-12.886-12.887-12.886H159.057z"/>
			</g>
			<g>
				<path fill="#9B9B9B" d="M147.637,148.548h-2.934v-24.127c0-7.913,6.439-14.352,14.354-14.352h222.732
					c7.914,0,14.352,6.438,14.352,14.352h-2.932c0-6.297-5.123-11.42-11.42-11.42H159.057c-6.297,0-11.42,5.123-11.42,11.42V148.548
					z"/>
			</g>
			<g>
				<path fill="#DDDDDD" d="M381.789,162.899H159.057c-7.914,0-14.354-6.438-14.354-14.352h2.934c0,6.297,5.123,11.42,11.42,11.42
					h222.732c6.297,0,11.42-5.123,11.42-11.42v-24.127h2.932v24.127C396.141,156.461,389.703,162.899,381.789,162.899z"/>
			</g>
			<g>
				<path fill="#282828" d="M464.613,693.548c2.797,25.134,10.477,43.192,19.52,43.192h27.021v-43.192H464.613z"/>
			</g>
			<g>
				<ellipse fill="#1D1D1B" cx="511.154" cy="672.596" rx="20.652" ry="64.145"/>
			</g>
			<g>
				<path fill="#707070" d="M511.154,716.454c-1.08,0-1.955-0.875-1.955-1.955c0-1.079,0.875-1.954,1.955-1.954
					c4.816,0,11.537-15.197,11.537-39.949c0-24.75-6.721-39.947-11.537-39.947c-1.08,0-1.955-0.876-1.955-1.955
					s0.875-1.954,1.955-1.954c10.031,0,15.445,22.596,15.445,43.856S521.186,716.454,511.154,716.454z"/>
			</g>
			<g>
				<ellipse fill="#9B9B9B" cx="508.474" cy="672.596" rx="6.745" ry="20.952"/>
			</g>
			<g>
				<path fill="#707070" d="M501.729,731.638c-0.65,0-1.287-0.324-1.656-0.917c-7.109-11.345-11.525-33.618-11.525-58.125
					c0-23.14,4.051-44.794,10.57-56.512c0.527-0.943,1.717-1.28,2.66-0.758c0.943,0.524,1.283,1.716,0.758,2.659
					c-6.217,11.17-10.078,32.097-10.078,54.61c0,23.814,4.186,45.292,10.926,56.05c0.574,0.915,0.297,2.121-0.617,2.694
					C502.443,731.542,502.084,731.638,501.729,731.638z"/>
			</g>
			<g>
				<g>
					<g>
						<path fill="#FFFFFF" d="M189.125,492.521l-18.789-32.544c2.154,0.655,4.432,0.999,6.779,0.999h79.02v39.967h-52.422
							C197.623,500.943,192.17,497.795,189.125,492.521z"/>
					</g>
					<g>
						<path fill="#FFFFFF" d="M177.115,454.875c-6.09,0-11.543-3.148-14.588-8.422c-3.043-5.273-3.043-11.57,0-16.844l26.211-45.397
							l34.613,19.983l-29.26,50.68H177.115z"/>
					</g>
					<g>
						<polygon fill="#FFFFFF" points="211.914,384.038 227.74,411.48 180.234,384.053 						"/>
					</g>
				</g>
				<g>
					<g>
						<path fill="#FFFFFF" d="M370.824,446.28l-18.789,32.544c-0.508-2.192-1.35-4.337-2.523-6.37l-39.51-68.432l34.613-19.984
							l26.211,45.398C373.869,434.71,373.869,441.007,370.824,446.28z"/>
					</g>
					<g>
						<path fill="#FFFFFF" d="M344.229,475.505c3.043,5.273,3.043,11.57,0,16.844c-3.045,5.273-8.498,8.422-14.588,8.422h-52.422
							v-39.967h58.521L344.229,475.505z"/>
					</g>
					<g>
						<polygon fill="#FFFFFF" points="265.482,480.787 281.334,453.359 281.334,508.215 						"/>
					</g>
				</g>
				<g>
					<g>
						<path fill="#FFFFFF" d="M240.08,311.786h37.578c-1.645,1.537-3.082,3.338-4.256,5.371l-39.508,68.432l-34.613-19.983
							l26.211-45.398C228.537,314.935,233.99,311.786,240.08,311.786z"/>
					</g>
					<g>
						<path fill="#FFFFFF" d="M278.688,320.207c3.045-5.272,8.498-8.421,14.586-8.421c6.09,0,11.543,3.148,14.588,8.421
							l26.211,45.398l-34.613,19.983l-29.26-50.68L278.688,320.207z"/>
					</g>
					<g>
						<polygon fill="#FFFFFF" points="322.635,385.763 290.955,385.748 338.461,358.32 						"/>
					</g>
				</g>
			</g>
		</g>
	</g>
</g>
</svg>
