<?xml version="1.0" encoding="utf-8"?>
<!-- Generator: Adobe Illustrator 16.0.3, SVG Export Plug-In . SVG Version: 6.00 Build 0)  -->
<!DOCTYPE svg PUBLIC "-//W3C//DTD SVG 1.1//EN" "http://www.w3.org/Graphics/SVG/1.1/DTD/svg11.dtd">
<svg version="1.1" id="latas" xmlns="http://www.w3.org/2000/svg" xmlns:xlink="http://www.w3.org/1999/xlink" x="0px" y="0px"
	 width="605.549px" height="843.132px" viewBox="0 0 605.549 843.132" enable-background="new 0 0 605.549 843.132"
	 xml:space="preserve">
<g>
	<g>
		<g>
			<g>
				<rect x="99.894" y="717.653" fill="#999999" width="458.072" height="39.093"/>
			</g>
			<g>
				<polygon fill="#1A6B65" points="490.83,706.162 490.83,591.179 499.259,591.179 522.127,199.561 184.362,199.561 
					215.243,728.403 461.241,728.403 461.241,706.162 				"/>
			</g>
			<g>
				<path fill="#1F8985" d="M490.83,591.179h8.429l22.868-391.618H184.362l30.881,528.843h245.998V664.26
					C461.241,627.884,470.391,591.179,490.83,591.179z"/>
			</g>
			<g>
				<polygon fill="#269696" points="104.491,199.561 135.372,728.403 425.528,728.403 442.256,199.561 				"/>
			</g>
			<g>
				<polygon fill="#1F8985" points="184.362,199.561 215.243,76.035 491.245,76.035 522.127,199.561 				"/>
			</g>
			<g>
				<polygon fill="#269696" points="104.491,199.561 135.372,76.035 425.528,76.035 442.256,199.561 				"/>
			</g>
			<g>
				<rect x="83.903" y="178.329" fill="#269696" width="366.073" height="48.311"/>
			</g>
			<g>
				<rect x="449.977" y="178.329" fill="#1F8985" width="92.001" height="48.311"/>
			</g>
			<g>
				<rect x="83.903" y="224.685" fill="#1F8985" width="458.074" height="3.909"/>
			</g>
			<g>
				<rect x="135.372" y="726.449" fill="#1C726C" width="325.87" height="3.909"/>
			</g>
			<g>
				<rect x="83.903" y="176.375" fill="#30B7AA" width="458.074" height="3.909"/>
			</g>
			<g>
				<path fill="#494949" d="M490.83,600.114c-11.406,0-20.653,28.719-20.653,64.145c0,35.427,9.247,64.145,20.653,64.145h27.021
					V600.114H490.83z"/>
			</g>
			<g>
				<path fill="#1C726C" d="M388.486,167.138H165.754c-14.849,0-26.928-12.079-26.928-26.927h2.933
					c0,13.23,10.764,23.995,23.995,23.995h222.732c13.231,0,23.995-10.765,23.995-23.995v-24.127h2.933v24.127
					C415.414,155.059,403.335,167.138,388.486,167.138z"/>
			</g>
			<g>
				<path fill="#30B7AA" d="M141.759,140.211h-2.933v-24.127c0-14.848,12.079-26.927,26.928-26.927h222.732
					c14.849,0,26.928,12.079,26.928,26.927h-2.933c0-13.23-10.764-23.995-23.995-23.995H165.754
					c-13.231,0-23.995,10.765-23.995,23.995V140.211z"/>
			</g>
			<g>
				<path fill="#1C726C" d="M165.753,103.198c-7.105,0-12.886,5.78-12.886,12.886v24.126c0,7.105,5.78,12.887,12.886,12.887h222.733
					c7.105,0,12.886-5.781,12.886-12.887v-24.126c0-7.105-5.78-12.886-12.886-12.886H165.753z"/>
			</g>
			<g>
				<path fill="#1C726C" d="M154.333,140.211h-2.932v-24.127c0-7.913,6.438-14.352,14.353-14.352h222.732
					c7.913,0,14.353,6.438,14.353,14.352h-2.933c0-6.297-5.122-11.42-11.42-11.42H165.754c-6.298,0-11.421,5.123-11.421,11.42
					V140.211z"/>
			</g>
			<g>
				<path fill="#30B7AA" d="M388.486,154.563H165.754c-7.914,0-14.353-6.438-14.353-14.352h2.932c0,6.297,5.123,11.42,11.421,11.42
					h222.732c6.298,0,11.42-5.123,11.42-11.42v-24.127h2.933v24.127C402.839,148.124,396.399,154.563,388.486,154.563z"/>
			</g>
			<g>
				<path fill="#282828" d="M471.311,685.211c2.796,25.134,10.477,43.192,19.52,43.192h27.021v-43.192H471.311z"/>
			</g>
			<g>
				<ellipse fill="#1D1D1B" cx="517.851" cy="664.259" rx="20.653" ry="64.145"/>
			</g>
			<g>
				<path fill="#707070" d="M517.852,708.117c-1.079,0-1.955-0.875-1.955-1.955c0-1.079,0.876-1.954,1.955-1.954
					c4.817,0,11.536-15.197,11.536-39.949c0-24.75-6.719-39.947-11.536-39.947c-1.079,0-1.955-0.876-1.955-1.955
					s0.876-1.954,1.955-1.954c10.032,0,15.445,22.596,15.445,43.856S527.884,708.117,517.852,708.117z"/>
			</g>
			<g>
				<ellipse fill="#1C726C" cx="515.17" cy="664.259" rx="6.746" ry="20.952"/>
			</g>
			<g>
				<path fill="#707070" d="M508.427,723.301c-0.651,0-1.288-0.324-1.658-0.917c-7.109-11.345-11.525-33.618-11.525-58.125
					c0-23.14,4.051-44.794,10.572-56.512c0.525-0.943,1.715-1.28,2.658-0.758c0.943,0.524,1.283,1.716,0.758,2.659
					c-6.217,11.17-10.078,32.097-10.078,54.61c0,23.814,4.187,45.292,10.927,56.05c0.573,0.915,0.297,2.121-0.618,2.694
					C509.14,723.205,508.78,723.301,508.427,723.301z"/>
			</g>
			<g>
				<g>
					<g>
						<path fill="#FFFFFF" d="M195.822,484.185l-18.789-32.544c2.154,0.655,4.432,0.999,6.778,0.999h79.02v39.967h-52.422
							C204.32,492.606,198.867,489.458,195.822,484.185z"/>
					</g>
					<g>
						<path fill="#FFFFFF" d="M183.812,446.538c-6.089,0-11.542-3.148-14.586-8.422c-3.045-5.273-3.045-11.57,0-16.844l26.21-45.397
							l34.612,19.983l-29.26,50.68H183.812z"/>
					</g>
					<g>
						<polygon fill="#FFFFFF" points="218.61,375.701 234.438,403.144 186.932,375.716 						"/>
					</g>
				</g>
				<g>
					<g>
						<path fill="#FFFFFF" d="M377.522,437.943l-18.789,32.544c-0.51-2.192-1.352-4.337-2.525-6.37l-39.509-68.432l34.612-19.984
							l26.211,45.398C380.566,426.373,380.567,432.67,377.522,437.943z"/>
					</g>
					<g>
						<path fill="#FFFFFF" d="M350.925,467.168c3.045,5.273,3.045,11.57,0,16.844s-8.498,8.422-14.588,8.422h-52.421v-39.967h58.521
							L350.925,467.168z"/>
					</g>
					<g>
						<polygon fill="#FFFFFF" points="272.179,472.45 288.03,445.022 288.03,499.878 						"/>
					</g>
				</g>
				<g>
					<g>
						<path fill="#FFFFFF" d="M246.776,303.449h37.578c-1.645,1.537-3.08,3.338-4.254,5.371l-39.51,68.432l-34.613-19.983
							l26.211-45.398C235.233,306.598,240.687,303.449,246.776,303.449z"/>
					</g>
					<g>
						<path fill="#FFFFFF" d="M285.384,311.87c3.045-5.272,8.498-8.421,14.588-8.421c6.089,0,11.542,3.148,14.586,8.421
							l26.211,45.398l-34.612,19.983l-29.261-50.68L285.384,311.87z"/>
					</g>
					<g>
						<polygon fill="#FFFFFF" points="329.331,377.426 297.652,377.411 345.158,349.983 						"/>
					</g>
				</g>
			</g>
		</g>
	</g>
</g>
<g>
	<g>
		<g>
			<g>
				<rect x="887.395" y="724.357" fill="#999999" width="458.073" height="39.093"/>
			</g>
			<g>
				<polygon fill="#603226" points="1278.331,712.866 1278.331,597.883 1286.761,597.883 1309.628,206.265 971.864,206.265 
					1002.745,735.107 1248.743,735.107 1248.743,712.866 				"/>
			</g>
			<g>
				<path fill="#773D2B" d="M1278.331,597.883h8.43l22.867-391.618H971.864l30.881,528.843h245.998v-64.144
					C1248.743,634.588,1257.892,597.883,1278.331,597.883z"/>
			</g>
			<g>
				<polygon fill="#804E36" points="891.993,206.265 922.874,735.107 1213.03,735.107 1229.757,206.265 				"/>
			</g>
			<g>
				<polygon fill="#773D2B" points="971.864,206.265 1002.745,82.739 1278.747,82.739 1309.628,206.265 				"/>
			</g>
			<g>
				<polygon fill="#804E36" points="891.993,206.265 922.874,82.739 1213.03,82.739 1229.757,206.265 				"/>
			</g>
			<g>
				<rect x="871.405" y="185.033" fill="#804E36" width="366.072" height="48.311"/>
			</g>
			<g>
				<rect x="1237.478" y="185.033" fill="#773D2B" width="92" height="48.311"/>
			</g>
			<g>
				<rect x="871.405" y="231.389" fill="#603226" width="458.074" height="3.909"/>
			</g>
			<g>
				<rect x="922.874" y="733.153" fill="#603226" width="325.869" height="3.909"/>
			</g>
			<g>
				<rect x="871.405" y="183.079" fill="#915740" width="458.074" height="3.909"/>
			</g>
			<g>
				<path fill="#494949" d="M1278.331,606.818c-11.406,0-20.652,28.719-20.652,64.145c0,35.427,9.246,64.145,20.652,64.145h27.021
					V606.818H1278.331z"/>
			</g>
			<g>
				<path fill="#603226" d="M1175.987,173.842H953.255c-14.848,0-26.928-12.079-26.928-26.927h2.932
					c0,13.23,10.766,23.995,23.996,23.995h222.732c13.232,0,23.996-10.765,23.996-23.995v-24.127h2.932v24.127
					C1202.915,161.763,1190.835,173.842,1175.987,173.842z"/>
			</g>
			<g>
				<path fill="#915740" d="M929.259,146.915h-2.932v-24.127c0-14.848,12.08-26.927,26.928-26.927h222.732
					c14.848,0,26.928,12.079,26.928,26.927h-2.932c0-13.23-10.764-23.995-23.996-23.995H953.255
					c-13.23,0-23.996,10.765-23.996,23.995V146.915z"/>
			</g>
			<g>
				<path fill="#603226" d="M953.255,109.902c-7.105,0-12.887,5.78-12.887,12.886v24.126c0,7.105,5.781,12.887,12.887,12.887
					h222.732c7.105,0,12.887-5.781,12.887-12.887v-24.126c0-7.105-5.781-12.886-12.887-12.886H953.255z"/>
			</g>
			<g>
				<path fill="#603226" d="M941.835,146.915h-2.934v-24.127c0-7.913,6.439-14.352,14.354-14.352h222.732
					c7.914,0,14.352,6.438,14.352,14.352h-2.932c0-6.297-5.123-11.42-11.42-11.42H953.255c-6.297,0-11.42,5.123-11.42,11.42V146.915
					z"/>
			</g>
			<g>
				<path fill="#915740" d="M1175.987,161.267H953.255c-7.914,0-14.354-6.438-14.354-14.352h2.934c0,6.297,5.123,11.42,11.42,11.42
					h222.732c6.297,0,11.42-5.123,11.42-11.42v-24.127h2.932v24.127C1190.339,154.828,1183.901,161.267,1175.987,161.267z"/>
			</g>
			<g>
				<path fill="#282828" d="M1258.812,691.915c2.797,25.134,10.477,43.192,19.52,43.192h27.021v-43.192H1258.812z"/>
			</g>
			<g>
				<ellipse fill="#1D1D1B" cx="1305.353" cy="670.963" rx="20.652" ry="64.145"/>
			</g>
			<g>
				<path fill="#707070" d="M1305.353,714.821c-1.08,0-1.955-0.875-1.955-1.955c0-1.079,0.875-1.954,1.955-1.954
					c4.816,0,11.537-15.197,11.537-39.949c0-24.75-6.721-39.947-11.537-39.947c-1.08,0-1.955-0.876-1.955-1.955
					s0.875-1.954,1.955-1.954c10.031,0,15.445,22.596,15.445,43.856S1315.384,714.821,1305.353,714.821z"/>
			</g>
			<g>
				<ellipse fill="#6B3F30" cx="1302.672" cy="670.963" rx="6.745" ry="20.952"/>
			</g>
			<g>
				<path fill="#707070" d="M1295.927,730.005c-0.65,0-1.287-0.324-1.656-0.917c-7.109-11.345-11.525-33.618-11.525-58.125
					c0-23.14,4.051-44.794,10.57-56.512c0.527-0.943,1.717-1.28,2.66-0.758c0.943,0.524,1.283,1.716,0.758,2.659
					c-6.217,11.17-10.078,32.097-10.078,54.61c0,23.814,4.186,45.292,10.926,56.05c0.574,0.915,0.297,2.121-0.617,2.694
					C1296.642,729.909,1296.282,730.005,1295.927,730.005z"/>
			</g>
			<g>
				<g>
					<g>
						<path fill="#FFFFFF" d="M983.323,490.889l-18.789-32.544c2.154,0.655,4.432,0.999,6.779,0.999h79.02v39.967h-52.422
							C991.821,499.311,986.368,496.162,983.323,490.889z"/>
					</g>
					<g>
						<path fill="#FFFFFF" d="M971.313,453.242c-6.09,0-11.543-3.148-14.588-8.422c-3.043-5.273-3.043-11.57,0-16.844l26.211-45.397
							l34.613,19.983l-29.26,50.68H971.313z"/>
					</g>
					<g>
						<polygon fill="#FFFFFF" points="1006.112,382.405 1021.938,409.848 974.433,382.42 						"/>
					</g>
				</g>
				<g>
					<g>
						<path fill="#FFFFFF" d="M1165.022,444.647l-18.789,32.544c-0.508-2.192-1.35-4.337-2.523-6.37l-39.51-68.432l34.613-19.984
							l26.211,45.398C1168.067,433.077,1168.067,439.374,1165.022,444.647z"/>
					</g>
					<g>
						<path fill="#FFFFFF" d="M1138.427,473.872c3.043,5.273,3.043,11.57,0,16.844c-3.045,5.273-8.498,8.422-14.588,8.422h-52.422
							v-39.967h58.521L1138.427,473.872z"/>
					</g>
					<g>
						<polygon fill="#FFFFFF" points="1059.681,479.154 1075.532,451.727 1075.532,506.582 						"/>
					</g>
				</g>
				<g>
					<g>
						<path fill="#FFFFFF" d="M1034.278,310.153h37.578c-1.645,1.537-3.082,3.338-4.256,5.371l-39.508,68.432l-34.613-19.983
							l26.211-45.398C1022.735,313.302,1028.188,310.153,1034.278,310.153z"/>
					</g>
					<g>
						<path fill="#FFFFFF" d="M1072.886,318.574c3.045-5.272,8.498-8.421,14.586-8.421c6.09,0,11.543,3.148,14.588,8.421
							l26.211,45.398l-34.613,19.983l-29.26-50.68L1072.886,318.574z"/>
					</g>
					<g>
						<polygon fill="#FFFFFF" points="1116.833,384.13 1085.153,384.115 1132.659,356.688 						"/>
					</g>
				</g>
			</g>
		</g>
	</g>
</g>
<g>
	<g>
		<g>
			<g>
				<rect x="1720.951" y="724.357" fill="#999999" width="458.073" height="39.093"/>
			</g>
			<g>
				<polygon fill="#354468" points="2111.888,712.866 2111.888,597.883 2120.317,597.883 2143.185,206.265 1805.421,206.265 
					1836.302,735.107 2082.3,735.107 2082.3,712.866 				"/>
			</g>
			<g>
				<path fill="#3D4B78" d="M2111.888,597.883h8.43l22.867-391.618h-337.764l30.881,528.843H2082.3v-64.144
					C2082.3,634.588,2091.448,597.883,2111.888,597.883z"/>
			</g>
			<g>
				<polygon fill="#40549C" points="1725.55,206.265 1756.431,735.107 2046.587,735.107 2063.313,206.265 				"/>
			</g>
			<g>
				<polygon fill="#3D4B78" points="1805.421,206.265 1836.302,82.739 2112.304,82.739 2143.185,206.265 				"/>
			</g>
			<g>
				<polygon fill="#40549C" points="1725.55,206.265 1756.431,82.739 2046.587,82.739 2063.313,206.265 				"/>
			</g>
			<g>
				<rect x="1704.962" y="185.033" fill="#40549C" width="366.072" height="48.311"/>
			</g>
			<g>
				<rect x="2071.034" y="185.033" fill="#3D4B78" width="92.002" height="48.311"/>
			</g>
			<g>
				<rect x="1704.962" y="231.389" fill="#354468" width="458.074" height="3.909"/>
			</g>
			<g>
				<rect x="1756.431" y="733.153" fill="#1C726C" width="325.869" height="3.909"/>
			</g>
			<g>
				<rect x="1704.962" y="183.079" fill="#506BA0" width="458.074" height="3.909"/>
			</g>
			<g>
				<path fill="#494949" d="M2111.888,606.818c-11.406,0-20.652,28.719-20.652,64.145c0,35.427,9.246,64.145,20.652,64.145h27.021
					V606.818H2111.888z"/>
			</g>
			<g>
				<path fill="#354468" d="M2009.544,173.842h-222.732c-14.848,0-26.928-12.079-26.928-26.927h2.934
					c0,13.23,10.764,23.995,23.994,23.995h222.732c13.232,0,23.996-10.765,23.996-23.995v-24.127h2.932v24.127
					C2036.472,161.763,2024.394,173.842,2009.544,173.842z"/>
			</g>
			<g>
				<path fill="#506BA0" d="M1762.817,146.915h-2.934v-24.127c0-14.848,12.08-26.927,26.928-26.927h222.732
					c14.85,0,26.928,12.079,26.928,26.927h-2.932c0-13.23-10.764-23.995-23.996-23.995h-222.732
					c-13.23,0-23.994,10.765-23.994,23.995V146.915z"/>
			</g>
			<g>
				<path fill="#354468" d="M1786.812,109.902c-7.105,0-12.887,5.78-12.887,12.886v24.126c0,7.105,5.781,12.887,12.887,12.887
					h222.732c7.105,0,12.887-5.781,12.887-12.887v-24.126c0-7.105-5.781-12.886-12.887-12.886H1786.812z"/>
			</g>
			<g>
				<path fill="#1C726C" d="M1775.392,146.915h-2.932v-24.127c0-7.913,6.438-14.352,14.352-14.352h222.732
					c7.914,0,14.354,6.438,14.354,14.352h-2.934c0-6.297-5.121-11.42-11.42-11.42h-222.732c-6.297,0-11.42,5.123-11.42,11.42
					V146.915z"/>
			</g>
			<g>
				<path fill="#506BA0" d="M2009.544,161.267h-222.732c-7.914,0-14.352-6.438-14.352-14.352h2.932c0,6.297,5.123,11.42,11.42,11.42
					h222.732c6.299,0,11.42-5.123,11.42-11.42v-24.127h2.934v24.127C2023.897,154.828,2017.458,161.267,2009.544,161.267z"/>
			</g>
			<g>
				<path fill="#282828" d="M2092.368,691.915c2.797,25.134,10.477,43.192,19.52,43.192h27.021v-43.192H2092.368z"/>
			</g>
			<g>
				<ellipse fill="#1D1D1B" cx="2138.909" cy="670.963" rx="20.652" ry="64.145"/>
			</g>
			<g>
				<path fill="#707070" d="M2138.909,714.821c-1.078,0-1.955-0.875-1.955-1.955c0-1.079,0.877-1.954,1.955-1.954
					c4.818,0,11.537-15.197,11.537-39.949c0-24.75-6.719-39.947-11.537-39.947c-1.078,0-1.955-0.876-1.955-1.955
					s0.877-1.954,1.955-1.954c10.033,0,15.445,22.596,15.445,43.856S2148.942,714.821,2138.909,714.821z"/>
			</g>
			<g>
				<ellipse fill="#354468" cx="2136.229" cy="670.963" rx="6.745" ry="20.952"/>
			</g>
			<g>
				<path fill="#707070" d="M2129.485,730.005c-0.652,0-1.289-0.324-1.658-0.917c-7.109-11.345-11.525-33.618-11.525-58.125
					c0-23.14,4.051-44.794,10.572-56.512c0.525-0.943,1.715-1.28,2.658-0.758c0.943,0.524,1.283,1.716,0.758,2.659
					c-6.217,11.17-10.078,32.097-10.078,54.61c0,23.814,4.186,45.292,10.926,56.05c0.574,0.915,0.297,2.121-0.617,2.694
					C2130.198,729.909,2129.839,730.005,2129.485,730.005z"/>
			</g>
			<g>
				<g>
					<g>
						<path fill="#FFFFFF" d="M1816.88,490.889l-18.789-32.544c2.154,0.655,4.432,0.999,6.779,0.999h79.02v39.967h-52.422
							C1825.378,499.311,1819.925,496.162,1816.88,490.889z"/>
					</g>
					<g>
						<path fill="#FFFFFF" d="M1804.87,453.242c-6.09,0-11.543-3.148-14.586-8.422c-3.045-5.273-3.045-11.57,0-16.844l26.209-45.397
							l34.613,19.983l-29.26,50.68H1804.87z"/>
					</g>
					<g>
						<polygon fill="#FFFFFF" points="1839.669,382.405 1855.495,409.848 1807.989,382.42 						"/>
					</g>
				</g>
				<g>
					<g>
						<path fill="#FFFFFF" d="M1998.581,444.647l-18.789,32.544c-0.51-2.192-1.352-4.337-2.525-6.37l-39.51-68.432l34.613-19.984
							l26.211,45.398C2001.624,433.077,2001.626,439.374,1998.581,444.647z"/>
					</g>
					<g>
						<path fill="#FFFFFF" d="M1971.983,473.872c3.045,5.273,3.045,11.57,0,16.844s-8.498,8.422-14.588,8.422h-52.422v-39.967
							h58.521L1971.983,473.872z"/>
					</g>
					<g>
						<polygon fill="#FFFFFF" points="1893.237,479.154 1909.089,451.727 1909.089,506.582 						"/>
					</g>
				</g>
				<g>
					<g>
						<path fill="#FFFFFF" d="M1867.835,310.153h37.578c-1.645,1.537-3.08,3.338-4.254,5.371l-39.51,68.432l-34.613-19.983
							l26.211-45.398C1856.292,313.302,1861.745,310.153,1867.835,310.153z"/>
					</g>
					<g>
						<path fill="#FFFFFF" d="M1906.442,318.574c3.045-5.272,8.498-8.421,14.588-8.421c6.088,0,11.541,3.148,14.586,8.421
							l26.211,45.398l-34.613,19.983l-29.26-50.68L1906.442,318.574z"/>
					</g>
					<g>
						<polygon fill="#FFFFFF" points="1950.39,384.13 1918.71,384.115 1966.216,356.688 						"/>
					</g>
				</g>
			</g>
		</g>
	</g>
</g>
<g>
	<g>
		<g>
			<g>
				<rect x="2498.714" y="725.99" fill="#999999" width="458.074" height="39.093"/>
			</g>
			<g>
				<polygon fill="#9B9B9B" points="2889.651,714.499 2889.651,599.516 2898.081,599.516 2920.948,207.897 2583.185,207.897 
					2614.065,736.74 2860.063,736.74 2860.063,714.499 				"/>
			</g>
			<g>
				<path fill="#BCBCBC" d="M2889.651,599.516h8.43l22.867-391.618h-337.764l30.881,528.843h245.998v-64.144
					C2860.063,636.221,2869.212,599.516,2889.651,599.516z"/>
			</g>
			<g>
				<polygon fill="#D3D3D3" points="2503.313,207.897 2534.194,736.74 2824.351,736.74 2841.077,207.897 				"/>
			</g>
			<g>
				<polygon fill="#BCBCBC" points="2583.185,207.897 2614.065,84.372 2890.067,84.372 2920.948,207.897 				"/>
			</g>
			<g>
				<polygon fill="#D3D3D3" points="2503.313,207.897 2534.194,84.372 2824.351,84.372 2841.077,207.897 				"/>
			</g>
			<g>
				<rect x="2482.726" y="186.666" fill="#D3D3D3" width="366.072" height="48.311"/>
			</g>
			<g>
				<rect x="2848.798" y="186.666" fill="#BCBCBC" width="92" height="48.311"/>
			</g>
			<g>
				<rect x="2482.726" y="233.021" fill="#9B9B9B" width="458.074" height="3.909"/>
			</g>
			<g>
				<rect x="2534.194" y="734.786" fill="#9B9B9B" width="325.869" height="3.909"/>
			</g>
			<g>
				<rect x="2482.726" y="184.712" fill="#DDDDDD" width="458.074" height="3.909"/>
			</g>
			<g>
				<path fill="#494949" d="M2889.651,608.451c-11.406,0-20.652,28.719-20.652,64.145c0,35.427,9.246,64.145,20.652,64.145h27.021
					V608.451H2889.651z"/>
			</g>
			<g>
				<path fill="#9B9B9B" d="M2787.308,175.475h-222.732c-14.848,0-26.928-12.079-26.928-26.927h2.932
					c0,13.23,10.766,23.995,23.996,23.995h222.732c13.232,0,23.996-10.765,23.996-23.995v-24.127h2.932v24.127
					C2814.235,163.396,2802.155,175.475,2787.308,175.475z"/>
			</g>
			<g>
				<path fill="#DDDDDD" d="M2540.579,148.548h-2.932v-24.127c0-14.848,12.08-26.927,26.928-26.927h222.732
					c14.848,0,26.928,12.079,26.928,26.927h-2.932c0-13.23-10.764-23.995-23.996-23.995h-222.732
					c-13.23,0-23.996,10.765-23.996,23.995V148.548z"/>
			</g>
			<g>
				<path fill="#9B9B9B" d="M2564.575,111.535c-7.105,0-12.887,5.78-12.887,12.886v24.126c0,7.105,5.781,12.887,12.887,12.887
					h222.732c7.105,0,12.887-5.781,12.887-12.887v-24.126c0-7.105-5.781-12.886-12.887-12.886H2564.575z"/>
			</g>
			<g>
				<path fill="#9B9B9B" d="M2553.155,148.548h-2.934v-24.127c0-7.913,6.439-14.352,14.354-14.352h222.732
					c7.914,0,14.352,6.438,14.352,14.352h-2.932c0-6.297-5.123-11.42-11.42-11.42h-222.732c-6.297,0-11.42,5.123-11.42,11.42
					V148.548z"/>
			</g>
			<g>
				<path fill="#DDDDDD" d="M2787.308,162.899h-222.732c-7.914,0-14.354-6.438-14.354-14.352h2.934c0,6.297,5.123,11.42,11.42,11.42
					h222.732c6.297,0,11.42-5.123,11.42-11.42v-24.127h2.932v24.127C2801.659,156.461,2795.222,162.899,2787.308,162.899z"/>
			</g>
			<g>
				<path fill="#282828" d="M2870.132,693.548c2.797,25.134,10.477,43.192,19.52,43.192h27.021v-43.192H2870.132z"/>
			</g>
			<g>
				<ellipse fill="#1D1D1B" cx="2916.673" cy="672.596" rx="20.652" ry="64.145"/>
			</g>
			<g>
				<path fill="#707070" d="M2916.673,716.454c-1.08,0-1.955-0.875-1.955-1.955c0-1.079,0.875-1.954,1.955-1.954
					c4.816,0,11.537-15.197,11.537-39.949c0-24.75-6.721-39.947-11.537-39.947c-1.08,0-1.955-0.876-1.955-1.955
					s0.875-1.954,1.955-1.954c10.031,0,15.445,22.596,15.445,43.856S2926.704,716.454,2916.673,716.454z"/>
			</g>
			<g>
				<ellipse fill="#9B9B9B" cx="2913.992" cy="672.596" rx="6.745" ry="20.952"/>
			</g>
			<g>
				<path fill="#707070" d="M2907.247,731.638c-0.65,0-1.287-0.324-1.656-0.917c-7.109-11.345-11.525-33.618-11.525-58.125
					c0-23.14,4.051-44.794,10.57-56.512c0.527-0.943,1.717-1.28,2.66-0.758c0.943,0.524,1.283,1.716,0.758,2.659
					c-6.217,11.17-10.078,32.097-10.078,54.61c0,23.814,4.186,45.292,10.926,56.05c0.574,0.915,0.297,2.121-0.617,2.694
					C2907.962,731.542,2907.603,731.638,2907.247,731.638z"/>
			</g>
			<g>
				<g>
					<g>
						<path fill="#FFFFFF" d="M2594.644,492.521l-18.789-32.544c2.154,0.655,4.432,0.999,6.779,0.999h79.02v39.967h-52.422
							C2603.142,500.943,2597.688,497.795,2594.644,492.521z"/>
					</g>
					<g>
						<path fill="#FFFFFF" d="M2582.634,454.875c-6.09,0-11.543-3.148-14.588-8.422c-3.043-5.273-3.043-11.57,0-16.844
							l26.211-45.397l34.613,19.983l-29.26,50.68H2582.634z"/>
					</g>
					<g>
						<polygon fill="#FFFFFF" points="2617.433,384.038 2633.259,411.48 2585.753,384.053 						"/>
					</g>
				</g>
				<g>
					<g>
						<path fill="#FFFFFF" d="M2776.343,446.28l-18.789,32.544c-0.508-2.192-1.35-4.337-2.523-6.37l-39.51-68.432l34.613-19.984
							l26.211,45.398C2779.388,434.71,2779.388,441.007,2776.343,446.28z"/>
					</g>
					<g>
						<path fill="#FFFFFF" d="M2749.747,475.505c3.043,5.273,3.043,11.57,0,16.844c-3.045,5.273-8.498,8.422-14.588,8.422h-52.422
							v-39.967h58.521L2749.747,475.505z"/>
					</g>
					<g>
						<polygon fill="#FFFFFF" points="2671.001,480.787 2686.853,453.359 2686.853,508.215 						"/>
					</g>
				</g>
				<g>
					<g>
						<path fill="#FFFFFF" d="M2645.599,311.786h37.578c-1.645,1.537-3.082,3.338-4.256,5.371l-39.508,68.432l-34.613-19.983
							l26.211-45.398C2634.056,314.935,2639.509,311.786,2645.599,311.786z"/>
					</g>
					<g>
						<path fill="#FFFFFF" d="M2684.206,320.207c3.045-5.272,8.498-8.421,14.586-8.421c6.09,0,11.543,3.148,14.588,8.421
							l26.211,45.398l-34.613,19.983l-29.26-50.68L2684.206,320.207z"/>
					</g>
					<g>
						<polygon fill="#FFFFFF" points="2728.153,385.763 2696.474,385.748 2743.979,358.32 						"/>
					</g>
				</g>
			</g>
		</g>
	</g>
</g>
</svg>
