<?xml version="1.0" encoding="utf-8"?>
<!-- Generator: Adobe Illustrator 16.0.3, SVG Export Plug-In . SVG Version: 6.00 Build 0)  -->
<!DOCTYPE svg PUBLIC "-//W3C//DTD SVG 1.1//EN" "http://www.w3.org/Graphics/SVG/1.1/DTD/svg11.dtd">
<svg version="1.1" id="latas" xmlns="http://www.w3.org/2000/svg" xmlns:xlink="http://www.w3.org/1999/xlink" x="0px" y="0px"
	 width="605.549px" height="843.132px" viewBox="0 0 605.549 843.132" enable-background="new 0 0 605.549 843.132"
	 xml:space="preserve">
<g>
	<g>
		<g>
			<g>
				<rect x="-685.949" y="717.653" fill="#999999" width="458.072" height="39.093"/>
			</g>
			<g>
				<polygon fill="#1A6B65" points="-295.013,706.162 -295.013,591.179 -286.584,591.179 -263.716,199.561 -601.48,199.561 
					-570.6,728.403 -324.602,728.403 -324.602,706.162 				"/>
			</g>
			<g>
				<path fill="#1F8985" d="M-295.013,591.179h8.429l22.868-391.618H-601.48l30.881,528.843h245.998V664.26
					C-324.602,627.884-315.452,591.179-295.013,591.179z"/>
			</g>
			<g>
				<polygon fill="#269696" points="-681.352,199.561 -650.471,728.403 -360.314,728.403 -343.587,199.561 				"/>
			</g>
			<g>
				<polygon fill="#1F8985" points="-601.48,199.561 -570.6,76.035 -294.598,76.035 -263.716,199.561 				"/>
			</g>
			<g>
				<polygon fill="#269696" points="-681.352,199.561 -650.471,76.035 -360.314,76.035 -343.587,199.561 				"/>
			</g>
			<g>
				<rect x="-701.939" y="178.329" fill="#269696" width="366.073" height="48.311"/>
			</g>
			<g>
				<rect x="-335.866" y="178.329" fill="#1F8985" width="92.001" height="48.311"/>
			</g>
			<g>
				<rect x="-701.939" y="224.685" fill="#1F8985" width="458.074" height="3.909"/>
			</g>
			<g>
				<rect x="-650.471" y="726.449" fill="#1C726C" width="325.87" height="3.909"/>
			</g>
			<g>
				<rect x="-701.939" y="176.375" fill="#30B7AA" width="458.074" height="3.909"/>
			</g>
			<g>
				<path fill="#494949" d="M-295.013,600.114c-11.406,0-20.653,28.719-20.653,64.145c0,35.427,9.247,64.145,20.653,64.145h27.021
					V600.114H-295.013z"/>
			</g>
			<g>
				<path fill="#1C726C" d="M-397.356,167.138h-222.732c-14.849,0-26.928-12.079-26.928-26.927h2.933
					c0,13.23,10.764,23.995,23.995,23.995h222.732c13.231,0,23.995-10.765,23.995-23.995v-24.127h2.933v24.127
					C-370.429,155.059-382.508,167.138-397.356,167.138z"/>
			</g>
			<g>
				<path fill="#30B7AA" d="M-644.084,140.211h-2.933v-24.127c0-14.848,12.079-26.927,26.928-26.927h222.732
					c14.849,0,26.928,12.079,26.928,26.927h-2.933c0-13.23-10.764-23.995-23.995-23.995h-222.732
					c-13.231,0-23.995,10.765-23.995,23.995V140.211z"/>
			</g>
			<g>
				<path fill="#1C726C" d="M-620.09,103.198c-7.105,0-12.886,5.78-12.886,12.886v24.126c0,7.105,5.78,12.887,12.886,12.887h222.733
					c7.105,0,12.886-5.781,12.886-12.887v-24.126c0-7.105-5.78-12.886-12.886-12.886H-620.09z"/>
			</g>
			<g>
				<path fill="#1C726C" d="M-631.51,140.211h-2.932v-24.127c0-7.913,6.438-14.352,14.353-14.352h222.732
					c7.913,0,14.353,6.438,14.353,14.352h-2.933c0-6.297-5.122-11.42-11.42-11.42h-222.732c-6.298,0-11.421,5.123-11.421,11.42
					V140.211z"/>
			</g>
			<g>
				<path fill="#30B7AA" d="M-397.356,154.563h-222.732c-7.914,0-14.353-6.438-14.353-14.352h2.932
					c0,6.297,5.123,11.42,11.421,11.42h222.732c6.298,0,11.42-5.123,11.42-11.42v-24.127h2.933v24.127
					C-383.004,148.124-389.443,154.563-397.356,154.563z"/>
			</g>
			<g>
				<path fill="#282828" d="M-314.532,685.211c2.796,25.134,10.477,43.192,19.52,43.192h27.021v-43.192H-314.532z"/>
			</g>
			<g>
				<ellipse fill="#1D1D1B" cx="-267.992" cy="664.259" rx="20.653" ry="64.145"/>
			</g>
			<g>
				<path fill="#707070" d="M-267.991,708.117c-1.079,0-1.955-0.875-1.955-1.955c0-1.079,0.876-1.954,1.955-1.954
					c4.817,0,11.536-15.197,11.536-39.949c0-24.75-6.719-39.947-11.536-39.947c-1.079,0-1.955-0.876-1.955-1.955
					s0.876-1.954,1.955-1.954c10.032,0,15.445,22.596,15.445,43.856S-257.959,708.117-267.991,708.117z"/>
			</g>
			<g>
				<ellipse fill="#1C726C" cx="-270.672" cy="664.259" rx="6.746" ry="20.952"/>
			</g>
			<g>
				<path fill="#707070" d="M-277.416,723.301c-0.651,0-1.288-0.324-1.658-0.917c-7.109-11.345-11.525-33.618-11.525-58.125
					c0-23.14,4.051-44.794,10.572-56.512c0.525-0.943,1.715-1.28,2.658-0.758c0.943,0.524,1.283,1.716,0.758,2.659
					c-6.217,11.17-10.078,32.097-10.078,54.61c0,23.814,4.187,45.292,10.927,56.05c0.573,0.915,0.297,2.121-0.618,2.694
					C-276.703,723.205-277.063,723.301-277.416,723.301z"/>
			</g>
			<g>
				<g>
					<g>
						<path fill="#FFFFFF" d="M-590.021,484.185l-18.789-32.544c2.154,0.655,4.432,0.999,6.778,0.999h79.02v39.967h-52.422
							C-581.522,492.606-586.976,489.458-590.021,484.185z"/>
					</g>
					<g>
						<path fill="#FFFFFF" d="M-602.031,446.538c-6.089,0-11.542-3.148-14.586-8.422c-3.045-5.273-3.045-11.57,0-16.844
							l26.21-45.397l34.612,19.983l-29.26,50.68H-602.031z"/>
					</g>
					<g>
						<polygon fill="#FFFFFF" points="-567.232,375.701 -551.405,403.144 -598.911,375.716 						"/>
					</g>
				</g>
				<g>
					<g>
						<path fill="#FFFFFF" d="M-408.32,437.943l-18.789,32.544c-0.51-2.192-1.352-4.337-2.525-6.37l-39.509-68.432l34.612-19.984
							l26.211,45.398C-405.276,426.373-405.275,432.67-408.32,437.943z"/>
					</g>
					<g>
						<path fill="#FFFFFF" d="M-434.918,467.168c3.045,5.273,3.045,11.57,0,16.844s-8.498,8.422-14.588,8.422h-52.421v-39.967
							h58.521L-434.918,467.168z"/>
					</g>
					<g>
						<polygon fill="#FFFFFF" points="-513.664,472.45 -497.813,445.022 -497.813,499.878 						"/>
					</g>
				</g>
				<g>
					<g>
						<path fill="#FFFFFF" d="M-539.066,303.449h37.578c-1.645,1.537-3.08,3.338-4.254,5.371l-39.51,68.432l-34.613-19.983
							l26.211-45.398C-550.609,306.598-545.156,303.449-539.066,303.449z"/>
					</g>
					<g>
						<path fill="#FFFFFF" d="M-500.459,311.87c3.045-5.272,8.498-8.421,14.588-8.421c6.089,0,11.542,3.148,14.586,8.421
							l26.211,45.398l-34.612,19.983l-29.261-50.68L-500.459,311.87z"/>
					</g>
					<g>
						<polygon fill="#FFFFFF" points="-456.512,377.426 -488.19,377.411 -440.685,349.983 						"/>
					</g>
				</g>
			</g>
		</g>
	</g>
</g>
<g>
	<g>
		<g>
			<g>
				<rect x="101.552" y="724.357" fill="#999999" width="458.073" height="39.093"/>
			</g>
			<g>
				<polygon fill="#603226" points="492.488,712.866 492.488,597.883 500.918,597.883 523.785,206.265 186.021,206.265 
					216.902,735.107 462.9,735.107 462.9,712.866 				"/>
			</g>
			<g>
				<path fill="#773D2B" d="M492.488,597.883h8.43l22.867-391.618H186.021l30.881,528.843H462.9v-64.144
					C462.9,634.588,472.049,597.883,492.488,597.883z"/>
			</g>
			<g>
				<polygon fill="#804E36" points="106.15,206.265 137.031,735.107 427.188,735.107 443.914,206.265 				"/>
			</g>
			<g>
				<polygon fill="#773D2B" points="186.021,206.265 216.902,82.739 492.904,82.739 523.785,206.265 				"/>
			</g>
			<g>
				<polygon fill="#804E36" points="106.15,206.265 137.031,82.739 427.188,82.739 443.914,206.265 				"/>
			</g>
			<g>
				<rect x="85.563" y="185.033" fill="#804E36" width="366.072" height="48.311"/>
			</g>
			<g>
				<rect x="451.635" y="185.033" fill="#773D2B" width="92" height="48.311"/>
			</g>
			<g>
				<rect x="85.563" y="231.389" fill="#603226" width="458.074" height="3.909"/>
			</g>
			<g>
				<rect x="137.031" y="733.153" fill="#603226" width="325.869" height="3.909"/>
			</g>
			<g>
				<rect x="85.563" y="183.079" fill="#915740" width="458.074" height="3.909"/>
			</g>
			<g>
				<path fill="#494949" d="M492.488,606.818c-11.406,0-20.652,28.719-20.652,64.145c0,35.427,9.246,64.145,20.652,64.145h27.021
					V606.818H492.488z"/>
			</g>
			<g>
				<path fill="#603226" d="M390.145,173.842H167.412c-14.848,0-26.928-12.079-26.928-26.927h2.932
					c0,13.23,10.766,23.995,23.996,23.995h222.732c13.232,0,23.996-10.765,23.996-23.995v-24.127h2.932v24.127
					C417.072,161.763,404.992,173.842,390.145,173.842z"/>
			</g>
			<g>
				<path fill="#915740" d="M143.416,146.915h-2.932v-24.127c0-14.848,12.08-26.927,26.928-26.927h222.732
					c14.848,0,26.928,12.079,26.928,26.927h-2.932c0-13.23-10.764-23.995-23.996-23.995H167.412
					c-13.23,0-23.996,10.765-23.996,23.995V146.915z"/>
			</g>
			<g>
				<path fill="#603226" d="M167.412,109.902c-7.105,0-12.887,5.78-12.887,12.886v24.126c0,7.105,5.781,12.887,12.887,12.887
					h222.732c7.105,0,12.887-5.781,12.887-12.887v-24.126c0-7.105-5.781-12.886-12.887-12.886H167.412z"/>
			</g>
			<g>
				<path fill="#603226" d="M155.992,146.915h-2.934v-24.127c0-7.913,6.439-14.352,14.354-14.352h222.732
					c7.914,0,14.352,6.438,14.352,14.352h-2.932c0-6.297-5.123-11.42-11.42-11.42H167.412c-6.297,0-11.42,5.123-11.42,11.42V146.915
					z"/>
			</g>
			<g>
				<path fill="#915740" d="M390.145,161.267H167.412c-7.914,0-14.354-6.438-14.354-14.352h2.934c0,6.297,5.123,11.42,11.42,11.42
					h222.732c6.297,0,11.42-5.123,11.42-11.42v-24.127h2.932v24.127C404.496,154.828,398.059,161.267,390.145,161.267z"/>
			</g>
			<g>
				<path fill="#282828" d="M472.969,691.915c2.797,25.134,10.477,43.192,19.52,43.192h27.021v-43.192H472.969z"/>
			</g>
			<g>
				<ellipse fill="#1D1D1B" cx="519.51" cy="670.963" rx="20.652" ry="64.145"/>
			</g>
			<g>
				<path fill="#707070" d="M519.51,714.821c-1.08,0-1.955-0.875-1.955-1.955c0-1.079,0.875-1.954,1.955-1.954
					c4.816,0,11.537-15.197,11.537-39.949c0-24.75-6.721-39.947-11.537-39.947c-1.08,0-1.955-0.876-1.955-1.955
					s0.875-1.954,1.955-1.954c10.031,0,15.445,22.596,15.445,43.856S529.541,714.821,519.51,714.821z"/>
			</g>
			<g>
				<ellipse fill="#6B3F30" cx="516.829" cy="670.963" rx="6.745" ry="20.952"/>
			</g>
			<g>
				<path fill="#707070" d="M510.084,730.005c-0.65,0-1.287-0.324-1.656-0.917c-7.109-11.345-11.525-33.618-11.525-58.125
					c0-23.14,4.051-44.794,10.57-56.512c0.527-0.943,1.717-1.28,2.66-0.758c0.943,0.524,1.283,1.716,0.758,2.659
					c-6.217,11.17-10.078,32.097-10.078,54.61c0,23.814,4.186,45.292,10.926,56.05c0.574,0.915,0.297,2.121-0.617,2.694
					C510.799,729.909,510.439,730.005,510.084,730.005z"/>
			</g>
			<g>
				<g>
					<g>
						<path fill="#FFFFFF" d="M197.48,490.889l-18.789-32.544c2.154,0.655,4.432,0.999,6.779,0.999h79.02v39.967h-52.422
							C205.979,499.311,200.525,496.162,197.48,490.889z"/>
					</g>
					<g>
						<path fill="#FFFFFF" d="M185.471,453.242c-6.09,0-11.543-3.148-14.588-8.422c-3.043-5.273-3.043-11.57,0-16.844l26.211-45.397
							l34.613,19.983l-29.26,50.68H185.471z"/>
					</g>
					<g>
						<polygon fill="#FFFFFF" points="220.27,382.405 236.096,409.848 188.59,382.42 						"/>
					</g>
				</g>
				<g>
					<g>
						<path fill="#FFFFFF" d="M379.18,444.647l-18.789,32.544c-0.508-2.192-1.35-4.337-2.523-6.37l-39.51-68.432l34.613-19.984
							l26.211,45.398C382.225,433.077,382.225,439.374,379.18,444.647z"/>
					</g>
					<g>
						<path fill="#FFFFFF" d="M352.584,473.872c3.043,5.273,3.043,11.57,0,16.844c-3.045,5.273-8.498,8.422-14.588,8.422h-52.422
							v-39.967h58.521L352.584,473.872z"/>
					</g>
					<g>
						<polygon fill="#FFFFFF" points="273.838,479.154 289.689,451.727 289.689,506.582 						"/>
					</g>
				</g>
				<g>
					<g>
						<path fill="#FFFFFF" d="M248.436,310.153h37.578c-1.645,1.537-3.082,3.338-4.256,5.371l-39.508,68.432l-34.613-19.983
							l26.211-45.398C236.893,313.302,242.346,310.153,248.436,310.153z"/>
					</g>
					<g>
						<path fill="#FFFFFF" d="M287.043,318.574c3.045-5.272,8.498-8.421,14.586-8.421c6.09,0,11.543,3.148,14.588,8.421
							l26.211,45.398l-34.613,19.983l-29.26-50.68L287.043,318.574z"/>
					</g>
					<g>
						<polygon fill="#FFFFFF" points="330.99,384.13 299.311,384.115 346.816,356.688 						"/>
					</g>
				</g>
			</g>
		</g>
	</g>
</g>
<g>
	<g>
		<g>
			<g>
				<rect x="935.108" y="724.357" fill="#999999" width="458.073" height="39.093"/>
			</g>
			<g>
				<polygon fill="#354468" points="1326.045,712.866 1326.045,597.883 1334.475,597.883 1357.342,206.265 1019.578,206.265 
					1050.459,735.107 1296.457,735.107 1296.457,712.866 				"/>
			</g>
			<g>
				<path fill="#3D4B78" d="M1326.045,597.883h8.43l22.867-391.618h-337.764l30.881,528.843h245.998v-64.144
					C1296.457,634.588,1305.605,597.883,1326.045,597.883z"/>
			</g>
			<g>
				<polygon fill="#40549C" points="939.707,206.265 970.588,735.107 1260.744,735.107 1277.471,206.265 				"/>
			</g>
			<g>
				<polygon fill="#3D4B78" points="1019.578,206.265 1050.459,82.739 1326.461,82.739 1357.342,206.265 				"/>
			</g>
			<g>
				<polygon fill="#40549C" points="939.707,206.265 970.588,82.739 1260.744,82.739 1277.471,206.265 				"/>
			</g>
			<g>
				<rect x="919.119" y="185.033" fill="#40549C" width="366.072" height="48.311"/>
			</g>
			<g>
				<rect x="1285.191" y="185.033" fill="#3D4B78" width="92.002" height="48.311"/>
			</g>
			<g>
				<rect x="919.119" y="231.389" fill="#354468" width="458.074" height="3.909"/>
			</g>
			<g>
				<rect x="970.588" y="733.153" fill="#1C726C" width="325.869" height="3.909"/>
			</g>
			<g>
				<rect x="919.119" y="183.079" fill="#506BA0" width="458.074" height="3.909"/>
			</g>
			<g>
				<path fill="#494949" d="M1326.045,606.818c-11.406,0-20.652,28.719-20.652,64.145c0,35.427,9.246,64.145,20.652,64.145h27.021
					V606.818H1326.045z"/>
			</g>
			<g>
				<path fill="#354468" d="M1223.701,173.842h-222.732c-14.848,0-26.928-12.079-26.928-26.927h2.934
					c0,13.23,10.764,23.995,23.994,23.995h222.732c13.232,0,23.996-10.765,23.996-23.995v-24.127h2.932v24.127
					C1250.629,161.763,1238.551,173.842,1223.701,173.842z"/>
			</g>
			<g>
				<path fill="#506BA0" d="M976.975,146.915h-2.934v-24.127c0-14.848,12.08-26.927,26.928-26.927h222.732
					c14.85,0,26.928,12.079,26.928,26.927h-2.932c0-13.23-10.764-23.995-23.996-23.995h-222.732
					c-13.23,0-23.994,10.765-23.994,23.995V146.915z"/>
			</g>
			<g>
				<path fill="#354468" d="M1000.969,109.902c-7.105,0-12.887,5.78-12.887,12.886v24.126c0,7.105,5.781,12.887,12.887,12.887
					h222.732c7.105,0,12.887-5.781,12.887-12.887v-24.126c0-7.105-5.781-12.886-12.887-12.886H1000.969z"/>
			</g>
			<g>
				<path fill="#1C726C" d="M989.549,146.915h-2.932v-24.127c0-7.913,6.438-14.352,14.352-14.352h222.732
					c7.914,0,14.354,6.438,14.354,14.352h-2.934c0-6.297-5.121-11.42-11.42-11.42h-222.732c-6.297,0-11.42,5.123-11.42,11.42
					V146.915z"/>
			</g>
			<g>
				<path fill="#506BA0" d="M1223.701,161.267h-222.732c-7.914,0-14.352-6.438-14.352-14.352h2.932c0,6.297,5.123,11.42,11.42,11.42
					h222.732c6.299,0,11.42-5.123,11.42-11.42v-24.127h2.934v24.127C1238.055,154.828,1231.615,161.267,1223.701,161.267z"/>
			</g>
			<g>
				<path fill="#282828" d="M1306.525,691.915c2.797,25.134,10.477,43.192,19.52,43.192h27.021v-43.192H1306.525z"/>
			</g>
			<g>
				<ellipse fill="#1D1D1B" cx="1353.066" cy="670.963" rx="20.652" ry="64.145"/>
			</g>
			<g>
				<path fill="#707070" d="M1353.066,714.821c-1.078,0-1.955-0.875-1.955-1.955c0-1.079,0.877-1.954,1.955-1.954
					c4.818,0,11.537-15.197,11.537-39.949c0-24.75-6.719-39.947-11.537-39.947c-1.078,0-1.955-0.876-1.955-1.955
					s0.877-1.954,1.955-1.954c10.033,0,15.445,22.596,15.445,43.856S1363.1,714.821,1353.066,714.821z"/>
			</g>
			<g>
				<ellipse fill="#354468" cx="1350.386" cy="670.963" rx="6.745" ry="20.952"/>
			</g>
			<g>
				<path fill="#707070" d="M1343.643,730.005c-0.652,0-1.289-0.324-1.658-0.917c-7.109-11.345-11.525-33.618-11.525-58.125
					c0-23.14,4.051-44.794,10.572-56.512c0.525-0.943,1.715-1.28,2.658-0.758c0.943,0.524,1.283,1.716,0.758,2.659
					c-6.217,11.17-10.078,32.097-10.078,54.61c0,23.814,4.186,45.292,10.926,56.05c0.574,0.915,0.297,2.121-0.617,2.694
					C1344.355,729.909,1343.996,730.005,1343.643,730.005z"/>
			</g>
			<g>
				<g>
					<g>
						<path fill="#FFFFFF" d="M1031.037,490.889l-18.789-32.544c2.154,0.655,4.432,0.999,6.779,0.999h79.02v39.967h-52.422
							C1039.535,499.311,1034.082,496.162,1031.037,490.889z"/>
					</g>
					<g>
						<path fill="#FFFFFF" d="M1019.027,453.242c-6.09,0-11.543-3.148-14.586-8.422c-3.045-5.273-3.045-11.57,0-16.844
							l26.209-45.397l34.613,19.983l-29.26,50.68H1019.027z"/>
					</g>
					<g>
						<polygon fill="#FFFFFF" points="1053.826,382.405 1069.652,409.848 1022.146,382.42 						"/>
					</g>
				</g>
				<g>
					<g>
						<path fill="#FFFFFF" d="M1212.738,444.647l-18.789,32.544c-0.51-2.192-1.352-4.337-2.525-6.37l-39.51-68.432l34.613-19.984
							l26.211,45.398C1215.781,433.077,1215.783,439.374,1212.738,444.647z"/>
					</g>
					<g>
						<path fill="#FFFFFF" d="M1186.141,473.872c3.045,5.273,3.045,11.57,0,16.844s-8.498,8.422-14.588,8.422h-52.422v-39.967
							h58.521L1186.141,473.872z"/>
					</g>
					<g>
						<polygon fill="#FFFFFF" points="1107.395,479.154 1123.246,451.727 1123.246,506.582 						"/>
					</g>
				</g>
				<g>
					<g>
						<path fill="#FFFFFF" d="M1081.992,310.153h37.578c-1.645,1.537-3.08,3.338-4.254,5.371l-39.51,68.432l-34.613-19.983
							l26.211-45.398C1070.449,313.302,1075.902,310.153,1081.992,310.153z"/>
					</g>
					<g>
						<path fill="#FFFFFF" d="M1120.6,318.574c3.045-5.272,8.498-8.421,14.588-8.421c6.088,0,11.541,3.148,14.586,8.421
							l26.211,45.398l-34.613,19.983l-29.26-50.68L1120.6,318.574z"/>
					</g>
					<g>
						<polygon fill="#FFFFFF" points="1164.547,384.13 1132.867,384.115 1180.373,356.688 						"/>
					</g>
				</g>
			</g>
		</g>
	</g>
</g>
<g>
	<g>
		<g>
			<g>
				<rect x="1712.871" y="725.99" fill="#999999" width="458.074" height="39.093"/>
			</g>
			<g>
				<polygon fill="#9B9B9B" points="2103.809,714.499 2103.809,599.516 2112.238,599.516 2135.105,207.897 1797.342,207.897 
					1828.223,736.74 2074.221,736.74 2074.221,714.499 				"/>
			</g>
			<g>
				<path fill="#BCBCBC" d="M2103.809,599.516h8.43l22.867-391.618h-337.764l30.881,528.843h245.998v-64.144
					C2074.221,636.221,2083.369,599.516,2103.809,599.516z"/>
			</g>
			<g>
				<polygon fill="#D3D3D3" points="1717.471,207.897 1748.352,736.74 2038.508,736.74 2055.234,207.897 				"/>
			</g>
			<g>
				<polygon fill="#BCBCBC" points="1797.342,207.897 1828.223,84.372 2104.225,84.372 2135.105,207.897 				"/>
			</g>
			<g>
				<polygon fill="#D3D3D3" points="1717.471,207.897 1748.352,84.372 2038.508,84.372 2055.234,207.897 				"/>
			</g>
			<g>
				<rect x="1696.883" y="186.666" fill="#D3D3D3" width="366.072" height="48.311"/>
			</g>
			<g>
				<rect x="2062.955" y="186.666" fill="#BCBCBC" width="92" height="48.311"/>
			</g>
			<g>
				<rect x="1696.883" y="233.021" fill="#9B9B9B" width="458.074" height="3.909"/>
			</g>
			<g>
				<rect x="1748.352" y="734.786" fill="#9B9B9B" width="325.869" height="3.909"/>
			</g>
			<g>
				<rect x="1696.883" y="184.712" fill="#DDDDDD" width="458.074" height="3.909"/>
			</g>
			<g>
				<path fill="#494949" d="M2103.809,608.451c-11.406,0-20.652,28.719-20.652,64.145c0,35.427,9.246,64.145,20.652,64.145h27.021
					V608.451H2103.809z"/>
			</g>
			<g>
				<path fill="#9B9B9B" d="M2001.465,175.475h-222.732c-14.848,0-26.928-12.079-26.928-26.927h2.932
					c0,13.23,10.766,23.995,23.996,23.995h222.732c13.232,0,23.996-10.765,23.996-23.995v-24.127h2.932v24.127
					C2028.393,163.396,2016.313,175.475,2001.465,175.475z"/>
			</g>
			<g>
				<path fill="#DDDDDD" d="M1754.736,148.548h-2.932v-24.127c0-14.848,12.08-26.927,26.928-26.927h222.732
					c14.848,0,26.928,12.079,26.928,26.927h-2.932c0-13.23-10.764-23.995-23.996-23.995h-222.732
					c-13.23,0-23.996,10.765-23.996,23.995V148.548z"/>
			</g>
			<g>
				<path fill="#9B9B9B" d="M1778.732,111.535c-7.105,0-12.887,5.78-12.887,12.886v24.126c0,7.105,5.781,12.887,12.887,12.887
					h222.732c7.105,0,12.887-5.781,12.887-12.887v-24.126c0-7.105-5.781-12.886-12.887-12.886H1778.732z"/>
			</g>
			<g>
				<path fill="#9B9B9B" d="M1767.313,148.548h-2.934v-24.127c0-7.913,6.439-14.352,14.354-14.352h222.732
					c7.914,0,14.352,6.438,14.352,14.352h-2.932c0-6.297-5.123-11.42-11.42-11.42h-222.732c-6.297,0-11.42,5.123-11.42,11.42
					V148.548z"/>
			</g>
			<g>
				<path fill="#DDDDDD" d="M2001.465,162.899h-222.732c-7.914,0-14.354-6.438-14.354-14.352h2.934c0,6.297,5.123,11.42,11.42,11.42
					h222.732c6.297,0,11.42-5.123,11.42-11.42v-24.127h2.932v24.127C2015.816,156.461,2009.379,162.899,2001.465,162.899z"/>
			</g>
			<g>
				<path fill="#282828" d="M2084.289,693.548c2.797,25.134,10.477,43.192,19.52,43.192h27.021v-43.192H2084.289z"/>
			</g>
			<g>
				<ellipse fill="#1D1D1B" cx="2130.83" cy="672.596" rx="20.652" ry="64.145"/>
			</g>
			<g>
				<path fill="#707070" d="M2130.83,716.454c-1.08,0-1.955-0.875-1.955-1.955c0-1.079,0.875-1.954,1.955-1.954
					c4.816,0,11.537-15.197,11.537-39.949c0-24.75-6.721-39.947-11.537-39.947c-1.08,0-1.955-0.876-1.955-1.955
					s0.875-1.954,1.955-1.954c10.031,0,15.445,22.596,15.445,43.856S2140.861,716.454,2130.83,716.454z"/>
			</g>
			<g>
				<ellipse fill="#9B9B9B" cx="2128.149" cy="672.596" rx="6.745" ry="20.952"/>
			</g>
			<g>
				<path fill="#707070" d="M2121.404,731.638c-0.65,0-1.287-0.324-1.656-0.917c-7.109-11.345-11.525-33.618-11.525-58.125
					c0-23.14,4.051-44.794,10.57-56.512c0.527-0.943,1.717-1.28,2.66-0.758c0.943,0.524,1.283,1.716,0.758,2.659
					c-6.217,11.17-10.078,32.097-10.078,54.61c0,23.814,4.186,45.292,10.926,56.05c0.574,0.915,0.297,2.121-0.617,2.694
					C2122.119,731.542,2121.76,731.638,2121.404,731.638z"/>
			</g>
			<g>
				<g>
					<g>
						<path fill="#FFFFFF" d="M1808.801,492.521l-18.789-32.544c2.154,0.655,4.432,0.999,6.779,0.999h79.02v39.967h-52.422
							C1817.299,500.943,1811.846,497.795,1808.801,492.521z"/>
					</g>
					<g>
						<path fill="#FFFFFF" d="M1796.791,454.875c-6.09,0-11.543-3.148-14.588-8.422c-3.043-5.273-3.043-11.57,0-16.844
							l26.211-45.397l34.613,19.983l-29.26,50.68H1796.791z"/>
					</g>
					<g>
						<polygon fill="#FFFFFF" points="1831.59,384.038 1847.416,411.48 1799.91,384.053 						"/>
					</g>
				</g>
				<g>
					<g>
						<path fill="#FFFFFF" d="M1990.5,446.28l-18.789,32.544c-0.508-2.192-1.35-4.337-2.523-6.37l-39.51-68.432l34.613-19.984
							l26.211,45.398C1993.545,434.71,1993.545,441.007,1990.5,446.28z"/>
					</g>
					<g>
						<path fill="#FFFFFF" d="M1963.904,475.505c3.043,5.273,3.043,11.57,0,16.844c-3.045,5.273-8.498,8.422-14.588,8.422h-52.422
							v-39.967h58.521L1963.904,475.505z"/>
					</g>
					<g>
						<polygon fill="#FFFFFF" points="1885.158,480.787 1901.01,453.359 1901.01,508.215 						"/>
					</g>
				</g>
				<g>
					<g>
						<path fill="#FFFFFF" d="M1859.756,311.786h37.578c-1.645,1.537-3.082,3.338-4.256,5.371l-39.508,68.432l-34.613-19.983
							l26.211-45.398C1848.213,314.935,1853.666,311.786,1859.756,311.786z"/>
					</g>
					<g>
						<path fill="#FFFFFF" d="M1898.363,320.207c3.045-5.272,8.498-8.421,14.586-8.421c6.09,0,11.543,3.148,14.588,8.421
							l26.211,45.398l-34.613,19.983l-29.26-50.68L1898.363,320.207z"/>
					</g>
					<g>
						<polygon fill="#FFFFFF" points="1942.311,385.763 1910.631,385.748 1958.137,358.32 						"/>
					</g>
				</g>
			</g>
		</g>
	</g>
</g>
</svg>
