<?xml version="1.0" encoding="utf-8"?>
<!-- Generator: Adobe Illustrator 16.0.3, SVG Export Plug-In . SVG Version: 6.00 Build 0)  -->
<!DOCTYPE svg PUBLIC "-//W3C//DTD SVG 1.1//EN" "http://www.w3.org/Graphics/SVG/1.1/DTD/svg11.dtd">
<svg version="1.1" id="Capa_1" xmlns="http://www.w3.org/2000/svg" xmlns:xlink="http://www.w3.org/1999/xlink" x="0px" y="0px"
	 width="595.279px" height="598.321px" viewBox="0 0 595.279 598.321" enable-background="new 0 0 595.279 598.321"
	 xml:space="preserve">
<g>
	<path display="none" fill="#263238" d="M91.124,531.086l283.033-119.439c-3.128-22.396-23.457-55.986-35.967-22.396
		c-9.382,24.263,15.638,55.988,29.712,69.053c18.764,18.662,56.294,35.457,62.548-1.867c4.692-33.592-14.072-69.051,1.564-104.51
		c-32.839-16.795-70.367-14.932-106.333-13.063c-43.785,1.865-39.093,18.662-28.146,63.451c4.69,22.396,4.69,69.053,20.328,80.248
		c4.69,1.867,29.711,0,37.529,1.867c28.146,9.33,82.877,46.656,107.896,16.797c18.766-24.262,6.256-100.777,4.691-132.503
		c-4.691-37.324,0-61.587-32.838-70.919c-48.478-14.929-103.207-7.465-151.681-7.465c-34.402,0-50.04-5.599-48.477,37.325
		c0,35.459,7.818,74.649,12.511,110.111c1.563,13.063,0,41.057,4.69,54.119c6.254,16.797,3.127,9.33,17.2,14.928
		c29.711,13.063,71.931,13.063,104.77,22.396c20.327,5.6,90.696,37.324,107.896,14.932c6.255-7.469,3.127-22.396,3.127-31.729
		c1.563-37.324-4.691-78.383,0-117.572c6.255-42.924,31.273-54.122-4.691-82.115c-40.656-33.592-84.439-67.185-134.479-80.248
		c-26.584-5.599-121.97-14.93-140.735,13.063c-10.945,14.929-3.127,65.318-3.127,83.98c0,35.459,9.382,141.836-31.273,141.836
		c3.128-22.396,1.563-46.656,4.69-70.918c1.563-26.127-3.128-108.242,15.637-121.306c4.691,9.331,0,22.394,0,35.458
		c0,33.593,3.128,76.516,12.51,106.377c6.255,22.393,25.02,42.924,28.146,65.316c4.69,31.729-35.966,52.256-31.273,78.383
		c43.783-9.33,71.931,20.529,120.405,26.129c51.604,7.463,107.897-3.732,157.938-18.664c-54.73-7.465-111.024,3.732-165.754-3.73
		c-48.478-7.467-78.188-39.191-121.972-52.256c-28.146-9.332-59.421-11.197-86.005-27.994
		c26.584-14.93,26.584-91.445,31.275-123.172c6.255-33.591,1.563-69.05,7.818-100.777c14.073-72.783,93.823-87.713,145.427-95.178
		c35.965-5.599,57.857,0,87.567,26.126c34.402,29.86,75.06,65.318,115.715,80.25c43.785,18.662,68.806,69.051,40.657,119.439
		c-25.02,44.79-37.528,74.647-14.073,126.903c10.946,22.396,25.021,33.594,17.201,63.453c-7.818,27.992-20.329,33.592-43.785,35.459
		c-40.655,1.865-81.313,0-121.97,0c-45.348,0-87.567-14.932-132.916-18.664c-51.603-3.73-104.77,16.797-156.372,13.064
		c23.455,3.73,60.985-14.932,79.75-27.994c-17.2-16.795-45.348-20.529-67.239-18.662c-21.893,1.867-32.838,11.197-42.221-20.529
		c-4.69-18.662-1.563-39.189,3.128-57.854c12.51-46.656,56.293-83.98,54.73-136.236c-1.564-26.127-18.765-42.924-20.329-69.05
		c-1.563-20.528,10.946-52.254,21.893-67.184c21.893-31.726,68.805-59.721,104.771-55.988"/>
	<g>
		<path fill="#87C0F5" d="M99.763,562.424c37.864-15.979,75.729-31.957,113.592-47.936c51.962-21.928,103.924-43.855,155.886-65.783
			c4.52-1.906,9.037-3.813,13.557-5.721c8.223-3.471,14.717-6.9,19.423-14.936c4.813-8.215,4.646-15.996,3.275-25.043
			c-4.677-30.9-29.679-67.834-65.299-58.977c-18.796,4.674-32.596,25.581-35.159,43.932c-1.517,10.854-1.432,19.154,0.714,30.088
			c1.576,8.041,5.293,15.918,8.815,23.205c5.858,12.115,14.62,23.162,23.557,33.111c7.517,8.371,16.293,15.639,25.579,21.955
			c20.207,13.74,52.631,22.568,74.072,6.313c7.384-5.598,13.959-11.574,17.974-20.17c4.855-10.398,6.753-19.496,7.73-30.998
			c1.438-16.916-2.217-34.262-4.46-50.928c0.387,2.881,0.773,5.76,1.161,8.641c-1.667-12.668-2.809-25.354-1.108-38.081
			c-0.388,2.881-0.773,5.761-1.161,8.641c0.936-6.007,2.472-11.771,4.701-17.428c-1.092,2.588-2.185,5.176-3.275,7.765
			c0.247-0.582,0.493-1.164,0.74-1.744c3.595-8.449,5.823-15.785,3.276-25.043c-2.112-7.681-7.643-15.769-14.936-19.424
			c-26.937-13.5-55.95-18.359-85.896-18.673c-12.754-0.133-25.488,0.642-38.222,1.235c-10.141,0.476-21.043,1.273-30.577,5.027
			c-12.137,4.779-22.53,11.375-29.234,23.051c-5.23,9.111-7.285,20.011-6.844,30.422c0.817,19.244,7.628,37.365,10.245,56.287
			c-0.387-2.879-0.773-5.76-1.161-8.64c3.51,26.146,4.751,52.294,15.737,76.634c2.559,5.668,6.681,11.184,11.182,15.352
			c8.919,8.258,17.848,10.545,29.53,11.254c10,0.609,20.088-0.422,30.059,0.74c-2.88-0.387-5.76-0.773-8.64-1.162
			c3.938,0.561,7.7,2.387,11.34,3.92c-2.588-1.092-5.175-2.184-7.763-3.275c21.271,9.098,41.954,20.549,64.597,25.936
			c14.28,3.396,28.749,4.217,43.087,0.744c15.432-3.74,28.979-14.367,37.281-27.705c12.088-19.42,13.026-45.252,12.855-67.426
			c-0.163-20.996-2.41-41.914-4.299-62.806c-1.958-21.663-2.724-43.813-6.902-65.192c-2.509-12.834-8.741-24.525-17.518-34.146
			c-10.045-11.015-24.619-16.55-38.591-20.456c-30.859-8.628-63.737-9.53-95.572-8.799c-25.854,0.595-51.602,1.61-77.467,1.419
			c-7.33-0.055-14.313,0.756-21.601,1.874c-9.199,1.411-16.583,6.406-23.739,11.936c-13.69,10.578-17.125,30.315-17.849,46.395
			c-1.91,42.422,7.781,85.016,13.461,126.83c-0.388-2.879-0.774-5.76-1.161-8.639c2.691,20.16,0.525,40.463,4.935,60.527
			c0.83,3.773,2.374,7.404,3.795,10.986c3.07,7.74,4.852,12.381,10.643,18.488c7.689,8.113,17.118,8.508,26.617,12.16
			c-2.589-1.092-5.177-2.186-7.765-3.277c14.237,6.129,28.269,10.484,43.501,13.316c13.587,2.525,27.319,4.213,40.958,6.422
			c10.872,1.76,21.782,3.826,32.278,7.217c7.347,2.373,14.584,5.096,21.876,7.633c20.579,7.154,41.38,13.121,63.201,14.871
			c12.987,1.041,24.886-1.801,36.728-6.83c4.938-2.098,9.526-5.824,13.052-9.814c9.063-10.26,12.079-20.666,13.666-33.904
			c1.053-8.775-0.62-17.896-0.392-26.729c0.316-12.246-0.165-24.508-0.672-36.742c-1.043-25.156-2.392-50.385,0.5-75.474
			c-0.388,2.88-0.774,5.76-1.161,8.64c3.188-20.96,14.166-39.718,15.433-61.001c1.798-30.219-23.848-49.233-44.735-65.977
			c-24.405-19.563-49.545-38.511-77.241-53.21c-21.374-11.345-44.38-20.947-68.443-24.378c-20.091-2.865-40.241-4.807-60.546-5.027
			c-20.7-0.226-42.442,0.99-62.388,6.821c-23.115,6.757-43.095,21.804-48.693,46.301c-5.054,22.114-2.642,45.252-1.013,67.602
			c1.164,15.986,1.184,32.11,1.517,48.135c0.424,20.377,0.376,40.896-2.261,61.139c0.387-2.881,0.774-5.76,1.161-8.641
			c-1.32,9.734-3.217,19.492-6.988,28.604c1.093-2.588,2.185-5.176,3.276-7.764c-1.526,3.549-3.335,6.93-5.687,10.004
			c1.694-2.191,3.389-4.385,5.082-6.576c-1.426,1.779-2.988,3.381-4.792,4.783c2.192-1.693,4.386-3.389,6.578-5.082
			c-1.403,1.025-2.871,1.879-4.467,2.57c2.588-1.092,5.176-2.184,7.764-3.275c-1.647,0.65-3.314,1.086-5.068,1.338
			c2.88-0.387,5.76-0.773,8.64-1.16c-0.925,0.102-1.841,0.156-2.771,0.172c10.833,10.834,21.667,21.668,32.5,32.5
			c2.534-18.947,2.087-38.117,3.355-57.16c0.732-10.992,1.672-21.693,1.746-32.719c0.153-23.031-0.032-46.217,2.935-69.102
			c-0.388,2.881-0.774,5.761-1.161,8.641c1.095-8.096,2.519-16.292,5.643-23.883c-1.092,2.588-2.184,5.176-3.276,7.763
			c0.932-2.149,1.999-4.198,3.375-6.1c-1.693,2.193-3.388,4.385-5.082,6.578c0.847-1.092,1.76-2.07,2.836-2.938
			c-2.192,1.692-4.386,3.388-6.578,5.081c0.146-0.105,0.292-0.214,0.438-0.32c-14.822-3.887-29.644-7.772-44.466-11.66
			c0.203,0.453,0.405,0.905,0.608,1.358c-1.093-2.588-2.185-5.176-3.276-7.764c0.505,1.45,0.867,2.845,1.149,4.354
			c-0.388-2.88-0.774-5.76-1.161-8.641c0.987,8.063-0.787,16.142-1.512,24.157c-0.735,8.15-0.185,16.535,0.083,24.703
			c0.633,19.31,2.581,38.432,5.202,57.563c2.053,14.982,4.94,30.159,10.134,44.402c6.476,17.756,17.128,33.26,24.592,50.512
			c-1.093-2.588-2.186-5.176-3.276-7.764c2.213,5.352,3.946,10.775,4.838,16.506c-0.387-2.881-0.773-5.76-1.161-8.641
			c0.412,3.162,0.45,6.258,0.11,9.428c0.387-2.881,0.774-5.76,1.161-8.641c-0.53,3.799-1.563,7.4-2.993,10.955
			c1.092-2.588,2.185-5.176,3.276-7.764c-4.771,11.139-12.692,20.404-19.48,30.316c-4.65,6.791-8.015,14.076-10.854,21.822
			c-3.729,10.166-2.976,20.504-1.332,30.904c1.243,7.879,8.344,15.563,14.936,19.422c7.916,4.639,16.261,5.064,25.043,3.277
			c1.997-0.406,3.995-0.758,6.012-1.055c-2.88,0.387-5.76,0.773-8.64,1.162c7.501-0.961,14.958-0.902,22.451,0.104
			c-2.88-0.389-5.76-0.773-8.641-1.162c15.006,2.248,29.041,8.018,43.09,13.5c18.865,7.365,37.352,12.283,57.494,14.738
			c-2.88-0.387-5.76-0.773-8.64-1.16c15.414,2.164,30.66,3.643,46.235,3.52c16.362-0.131,32.58-1.984,48.771-4.203
			c27.2-3.727,53.911-10.166,80.208-17.98c13.902-4.129,23.86-16.658,23.86-31.338c0-8.586-3.451-16.914-9.52-22.98
			c-6.709-6.709-13.968-8.326-22.98-9.52c-55.063-7.293-110.69,3.563-165.754-3.73c2.88,0.387,5.76,0.773,8.64,1.16
			c-12.128-1.945-23.797-5.479-35.119-10.215c2.587,1.092,5.176,2.186,7.764,3.275c-27.034-11.574-51.396-28.268-78.616-39.553
			c-28.049-11.631-58.855-14.053-86.803-25.82c2.588,1.092,5.176,2.186,7.764,3.277c-5.26-2.301-10.32-4.914-15.202-7.939
			c0,18.709,0,37.418,0,56.125c24.688-14.449,33.645-44.584,38.187-71.043c4.427-25.789,5.479-51.873,8.848-77.771
			c-0.387,2.88-0.774,5.76-1.161,8.641c2.424-18.005,4.692-35.598,5.205-53.771c0.464-16.467,0.5-32.964,2.662-49.324
			c-0.387,2.88-0.774,5.76-1.161,8.64c1.408-9.862,3.629-19.443,7.453-28.662c-1.092,2.588-2.185,5.176-3.276,7.764
			c3.169-7.364,7.192-14.229,12.081-20.583c-1.693,2.192-3.388,4.385-5.082,6.577c5.254-6.654,11.298-12.529,17.983-17.735
			c-2.193,1.694-4.385,3.388-6.578,5.082c9.529-7.267,20.029-13.003,31.04-17.688c-2.588,1.092-5.176,2.184-7.764,3.275
			c26.391-11.027,54.861-16.099,83.068-19.933c-2.88,0.387-5.76,0.773-8.64,1.161c10.237-1.305,20.514-1.799,30.771-0.422
			c-2.88-0.387-5.76-0.774-8.64-1.161c6.813,1.025,13.361,2.87,19.714,5.545c-2.588-1.092-5.176-2.185-7.764-3.276
			c8.372,3.685,16.008,8.604,23.254,14.159c-2.192-1.693-4.386-3.388-6.577-5.081c9.919,7.765,19.206,16.36,28.797,24.526
			c12.165,10.357,24.625,20.32,37.324,30.016c22.511,17.188,46.407,31.656,73.016,41.593c-2.588-1.092-5.176-2.184-7.764-3.275
			c7.271,3.166,14.057,7.141,20.351,11.969c-2.191-1.693-4.386-3.389-6.578-5.082c5.725,4.531,10.847,9.64,15.358,15.379
			c-1.694-2.193-3.388-4.387-5.082-6.578c4.381,5.76,8.001,11.938,10.84,18.596c-1.092-2.589-2.185-5.177-3.276-7.765
			c2.582,6.353,4.357,12.894,5.329,19.681c-0.387-2.88-0.772-5.76-1.159-8.64c0.886,7.084,0.854,14.136-0.039,21.218
			c0.387-2.88,0.772-5.76,1.159-8.641c-1.104,7.642-3.174,14.986-6.083,22.134c1.093-2.588,2.185-5.177,3.276-7.765
			c-6.375,14.939-15.462,28.584-21.885,43.55c-7.782,18.136-13.111,35.698-14.098,55.603c-0.909,18.391,3.289,37.373,9.843,54.469
			c3.688,9.621,7.878,18.844,13.037,27.738c3.378,5.82,6.9,11.551,9.568,17.746c-1.093-2.588-2.185-5.176-3.275-7.764
			c1.568,3.857,2.714,7.77,3.364,11.885c-0.388-2.881-0.773-5.76-1.161-8.641c0.613,4.766,0.516,9.451-0.088,14.213
			c0.388-2.879,0.774-5.76,1.161-8.639c-1.015,6.646-2.869,13.066-5.442,19.277c1.093-2.588,2.185-5.176,3.275-7.764
			c-1.562,3.566-3.372,6.945-5.675,10.092c1.694-2.191,3.389-4.387,5.082-6.578c-1.839,2.367-3.877,4.457-6.243,6.303
			c2.192-1.695,4.385-3.391,6.578-5.082c-2.073,1.512-4.251,2.752-6.592,3.801c2.588-1.092,5.176-2.184,7.764-3.277
			c-4.575,1.904-9.361,2.945-14.253,3.646c2.88-0.387,5.76-0.773,8.64-1.16c-12.145,1.596-24.572,1.418-36.803,1.547
			c-14.426,0.152-28.854-0.025-43.279-0.234c-27.538-0.398-55.341,0.604-82.703-2.936c2.88,0.389,5.76,0.775,8.641,1.162
			c-36.752-4.951-72.727-15.074-109.835-17.555c-37.06-2.48-74.097,6.68-110.595,11.705c2.88-0.387,5.76-0.773,8.64-1.16
			c-17.453,2.342-35.008,3.816-52.616,2.641c-14.286-0.955-27.697,10.621-31.339,23.859c-2.308,8.389-1.121,17.537,3.276,25.043
			c3.81,6.504,11.584,13.816,19.423,14.936c12.589,1.797,22.006,1.547,34.641-0.521c8.087-1.324,15.954-3.947,23.574-6.9
			c16.275-6.309,32.183-13.916,46.578-23.848c7.169-4.945,12.564-10.801,14.937-19.422c3.014-10.959-0.015-23.701-8.358-31.621
			c-7.332-52.098-40.685-24.691-64.948-27.672c-16.9-2.076-33.009,0.49-49.729,2.883c2.88-0.387,5.76-0.775,8.64-1.162
			c-2.861,0.381-5.708,0.635-8.588,0.334c2.88,0.389,5.76,0.775,8.64,1.162c-1.412-0.203-2.735-0.539-4.062-1.066
			c2.588,1.092,5.176,2.184,7.764,3.275c-1.119-0.514-2.123-1.123-3.106-1.863c2.191,1.695,4.385,3.389,6.578,5.082
			c-1.072-0.895-2.007-1.869-2.894-2.947c1.694,2.191,3.388,4.385,5.082,6.578c-2.009-2.66-3.48-5.578-4.783-8.635
			c1.092,2.588,2.185,5.176,3.276,7.764c-2.274-5.678-3.793-11.391-4.623-17.453c0.387,2.881,0.774,5.762,1.161,8.641
			c-1.044-9.158-0.685-18.27,0.49-27.396c-0.388,2.879-0.774,5.76-1.161,8.641c1.823-12.9,4.834-25.5,9.813-37.553
			c-1.092,2.588-2.184,5.176-3.275,7.764c5.623-13.266,12.905-25.695,20.183-38.1c8.814-15.021,16.742-30.066,23.476-46.148
			c6.684-15.962,10.104-33.613,10.017-50.908c-0.106-21.199-9.236-39.599-17.302-58.626c1.092,2.588,2.184,5.175,3.275,7.764
			c-3.165-7.598-5.792-15.287-7.015-23.451c0.387,2.88,0.773,5.76,1.161,8.64c-0.745-5.979-0.705-11.807,0.065-17.78
			c-0.387,2.88-0.773,5.76-1.161,8.64c1.639-11.245,5.086-22.114,9.482-32.57c-1.092,2.588-2.184,5.176-3.276,7.764
			c4.041-9.356,8.938-18.066,15.115-26.178c-1.694,2.192-3.388,4.385-5.082,6.577c6.98-8.925,15.125-16.767,24.03-23.755
			c-2.192,1.694-4.385,3.388-6.578,5.082c10.116-7.776,21.043-14.34,32.752-19.421c-2.588,1.092-5.176,2.185-7.763,3.276
			c8.878-3.734,18.05-6.551,27.593-7.947c-2.88,0.387-5.76,0.774-8.64,1.161c5.711-0.742,11.401-0.948,17.141-0.413
			c17.669,1.645,32.5-16.029,32.5-32.5c0-8.585-3.452-16.914-9.519-22.981c-6.524-6.524-14.07-8.689-22.981-9.519
			c-24.888-2.317-50.37,6.614-72.052,18.039c-23.225,12.238-42.576,29.961-58.371,50.702c-5.574,7.318-9.967,15.328-13.69,23.725
			c-5.376,12.123-10.162,24.446-12.667,37.508c-2.998,15.632-3.04,29.846,0.415,45.452c2.883,13.026,9.296,25.146,14.473,37.354
			c-1.093-2.588-2.185-5.176-3.276-7.764c3.164,7.598,5.792,15.287,7.014,23.451c-0.387-2.88-0.773-5.76-1.161-8.641
			c0.819,6.578,0.538,13.146-0.273,19.715c0.387-2.881,0.773-5.762,1.161-8.641c-1.46,10.488-4.537,20.535-8.62,30.287
			c1.092-2.588,2.184-5.176,3.275-7.764c-7.825,18.229-18.664,34.889-28.356,52.137c-11.73,20.871-20.658,42.77-24.303,66.512
			c-4.727,30.787-2.944,62.648,17.578,87.621c8.288,10.084,22.108,14.434,34.665,14.859c8.826,0.301,17.748-2.221,26.482-3.396
			c-2.88,0.387-5.76,0.773-8.64,1.16c9.848-1.238,19.802-1.178,29.648,0.033c-2.88-0.389-5.76-0.775-8.64-1.162
			c8.264,1.129,16.298,3.117,23.995,6.363c-2.588-1.094-5.176-2.186-7.765-3.277c4.864,2.168,9.405,4.777,13.644,8.008
			c-2.192-1.695-4.385-3.389-6.578-5.082c1.5,1.205,2.934,2.459,4.33,3.783c2.191-17.014,4.385-34.029,6.578-51.043
			c-10.838,7.477-22.539,13.697-34.639,18.867c2.589-1.092,5.176-2.186,7.764-3.275c-9.784,4.086-19.882,7.479-30.403,9.014
			c2.88-0.387,5.76-0.773,8.64-1.16c-4.531,0.578-9.031,0.777-13.581,0.271c2.881,0.387,5.761,0.773,8.641,1.16
			c-0.375-0.053-0.751-0.105-1.127-0.16c-2.88,21.279-5.76,42.561-8.641,63.84c37.761,2.523,75.203-6.465,112.396-11.586
			c-2.88,0.387-5.76,0.773-8.64,1.16c22.668-3.043,44.897-3.953,67.625-1.018c-2.881-0.387-5.761-0.773-8.641-1.16
			c33.043,4.443,65.41,12.59,98.556,16.494c15.857,1.867,31.729,1.656,47.664,1.83c16.396,0.178,32.786,0.518,49.183,0.654
			c16.396,0.139,32.795,0.027,49.181-0.607c15.241-0.59,28.909-3.207,42.767-9.416c11.81-5.291,21.876-16.768,27.712-28.053
			c7.701-14.895,12.617-32.512,11.935-49.348c-0.568-14.02-4.885-26.525-11.37-38.85c-4.582-8.707-10.11-16.824-14.021-25.889
			c1.092,2.59,2.185,5.176,3.275,7.764c-4.581-10.912-8.188-22.141-9.935-33.869c0.388,2.881,0.773,5.762,1.161,8.641
			c-1.136-8.479-1.223-16.936-0.158-25.426c-0.389,2.881-0.774,5.76-1.161,8.641c1.504-10.732,4.757-20.986,8.939-30.959
			c-1.093,2.588-2.185,5.176-3.275,7.764c8.169-19.033,19.718-36.294,26.894-55.781c7.368-20.011,7.643-42.27,3.176-62.924
			c-4.221-19.523-15.166-37.506-28.588-52.038c-6.799-7.362-15.056-13.606-23.418-19.059c-8.972-5.851-19.072-9.319-28.885-13.456
			c2.588,1.093,5.176,2.185,7.764,3.276c-21.901-9.487-41.737-23.021-60.594-37.521c2.193,1.694,4.386,3.388,6.578,5.082
			c-11.809-9.145-23.254-18.736-34.578-28.47c-12.142-10.436-24.021-21.24-37.394-30.122
			c-23.107-15.349-51.007-20.842-78.346-17.852c-42.099,4.604-86.554,12.933-123.18,35.27
			c-27.199,16.588-47.054,40.781-57.667,70.789c-6.339,17.926-7.604,37.812-8.373,56.668c-0.782,19.218-0.484,38.469-2.9,57.588
			c0.387-2.88,0.773-5.76,1.161-8.64c-1.86,13.662-3.84,27.219-5.074,40.957c-1.12,12.471-2.231,24.941-3.888,37.355
			c0.387-2.879,0.773-5.76,1.16-8.64c-2.033,14.888-4.608,30.042-10.443,43.976c1.092-2.588,2.184-5.176,3.275-7.764
			c-1.731,3.988-3.745,7.809-6.332,11.313c1.694-2.191,3.389-4.385,5.082-6.576c-1.658,2.143-3.481,4.074-5.618,5.748
			c2.191-1.693,4.385-3.389,6.577-5.082c-0.818,0.6-1.653,1.15-2.529,1.664c-21.472,12.566-20.603,43.361,0,56.125
			c33.656,20.852,73.852,22.143,109.768,37.033c-2.588-1.092-5.176-2.186-7.764-3.275c18.901,8.021,36.266,19.031,54.438,28.496
			c11.037,5.748,22.527,10.789,34.25,14.957c13.363,4.752,27.183,6.846,41.244,8.391c52.606,5.775,105.628-4.146,158.195,2.816
			c-2.88-21.279-5.761-42.561-8.641-63.84c-26.297,7.813-53.008,14.254-80.208,17.979c2.88-0.387,5.76-0.771,8.641-1.16
			c-25.205,3.33-50.71,4.266-75.969,0.932c2.881,0.387,5.761,0.773,8.641,1.162c-4.023-0.566-8.05-1.123-12.083-1.613
			c2.88,0.387,5.76,0.773,8.64,1.16c-21.617-2.906-41.322-11.354-61.573-18.943c-24.225-9.076-48.925-12.172-74.43-6.979
			c13.326,7.566,26.652,15.133,39.979,22.699c-0.053-0.334-0.105-0.668-0.158-1.002c0.387,2.881,0.774,5.76,1.161,8.641
			c-0.268-2.318-0.245-4.566,0.048-6.879c-0.387,2.879-0.774,5.76-1.161,8.639c0.434-2.643,1.178-5.146,2.165-7.635
			c-1.092,2.588-2.184,5.176-3.276,7.764c3.811-8.949,10.024-16.6,15.652-24.441c7.203-10.037,13.552-21.264,16.377-33.387
			c4.611-19.789-0.454-37.725-8.287-55.828c-5.69-13.154-13.863-25.068-19.484-38.268c1.092,2.588,2.184,5.176,3.275,7.764
			c-6.32-15.543-9.286-32.521-11.553-49.069c0.387,2.88,0.774,5.761,1.161,8.64c-2.291-17.303-3.49-34.724-3.96-52.168
			c-0.245-9.11-0.247-18.069,0.859-27.131c0.559-4.565,1.104-9.101,1.01-13.708c-0.198-9.563-2.656-16.667-6.488-25.229
			c-6.734-15.045-31.238-21.345-44.466-11.659c-7.278,5.329-9.677,7.664-14.935,14.919c-2.992,4.13-4.75,9.243-6.65,13.863
			c-2.448,5.949-3.804,12.265-4.862,18.589c-3.121,18.639-4.226,37.458-4.614,56.323c-0.291,14.106-0.02,28.231-0.515,42.335
			c-0.405,11.553-1.933,23.076-2.342,34.66c-0.466,13.227-0.75,26.461-2.507,39.596c-1.068,7.98,4.112,17.574,9.519,22.98
			c5.991,5.99,14.458,9.65,22.981,9.52c14.237-0.219,25.54-5.529,36.314-14.424c8.811-7.271,13.575-18.078,17.81-28.307
			c7.3-17.637,8.83-37.906,9.933-56.754c1.04-17.793,0.677-35.644,0.186-53.449c-0.409-14.859-0.738-29.631-1.825-44.465
			c-1.11-15.147-2.338-30.612-0.423-45.743c-0.387,2.88-0.773,5.76-1.16,8.64c0.534-3.804,1.293-7.546,2.701-11.131
			c-1.092,2.588-2.185,5.176-3.275,7.764c0.799-1.858,1.79-3.522,2.996-5.144c-1.694,2.192-3.389,4.385-5.082,6.577
			c1.334-1.678,2.842-3.136,4.516-4.473c-2.191,1.694-4.385,3.388-6.578,5.082c3.011-2.285,6.313-4.033,9.787-5.504
			c-2.587,1.092-5.175,2.185-7.763,3.276c7.963-3.233,16.417-4.963,24.901-6.146c-2.88,0.387-5.76,0.774-8.64,1.161
			c28.062-3.728,57.074-2.105,85.061,1.584c-2.881-0.387-5.761-0.773-8.641-1.16c15.016,2.019,29.045,6.094,43.088,11.911
			c-2.588-1.092-5.176-2.185-7.764-3.276c28.91,12.23,55.007,29.886,79.776,48.98c-2.191-1.693-4.385-3.389-6.576-5.081
			c7.391,5.726,14.679,11.58,21.912,17.502c6.29,5.149,12.832,10.056,17.991,16.397c-1.692-2.191-3.388-4.385-5.082-6.577
			c1.798,2.325,3.341,4.747,4.53,7.44c-1.092-2.588-2.185-5.177-3.276-7.765c0.729,1.815,1.257,3.644,1.584,5.574
			c-0.388-2.88-0.773-5.761-1.16-8.64c0.321,2.408,0.303,4.773,0.025,7.188c0.388-2.88,0.774-5.76,1.161-8.641
			c-1.433,10.258-6.248,19.904-9.369,29.707c-6.039,18.973-7.396,39.205-7.616,59.006c-0.223,20.088,1.211,40.152,1.806,60.225
			c0.278,9.467-0.146,18.908-0.026,28.363c0.089,7.221,1.257,14.328,0.391,21.551c0.388-2.881,0.774-5.76,1.161-8.641
			c-0.344,2.107-0.842,4.072-1.664,6.045c1.093-2.588,2.185-5.176,3.276-7.764c-0.552,1.08-1.136,2.021-1.868,2.988
			c1.693-2.193,3.388-4.387,5.081-6.578c-0.922,1.145-1.929,2.139-3.081,3.051c2.192-1.693,4.385-3.387,6.578-5.08
			c-1.431,1.037-2.934,1.859-4.56,2.551c2.588-1.092,5.176-2.186,7.764-3.275c-2.33,0.898-4.712,1.469-7.179,1.846
			c2.88-0.387,5.76-0.773,8.64-1.16c-5.898,0.768-11.823,0.434-17.708-0.299c2.88,0.387,5.76,0.773,8.64,1.16
			c-25.159-3.383-48.466-13.588-72.47-21.217c-34.639-11.012-72.478-8.711-106.331-22.686c2.589,1.092,5.177,2.186,7.765,3.277
			c-5.244-2.258-10.408-4.732-15.99-6.008c-1.488-0.34-3.063-0.441-4.482-1.029c2.589,1.094,5.176,2.186,7.764,3.277
			c-0.22-0.104-0.427-0.229-0.621-0.373c2.193,1.691,4.385,3.387,6.578,5.08c-0.318-0.271-0.572-0.549-0.831-0.877
			c1.693,2.191,3.388,4.385,5.082,6.576c-0.573-0.859-0.999-1.775-1.412-2.723c1.092,2.588,2.184,5.176,3.276,7.764
			c-2.388-5.773-4.277-11.467-5.178-17.662c0.388,2.881,0.774,5.762,1.161,8.643c-1.884-14.373-0.988-28.896-2.377-43.295
			c-2.146-22.25-6.539-44.348-9.531-66.496c0.388,2.879,0.774,5.76,1.161,8.639c-1.713-12.897-3.14-25.827-3.853-38.822
			c-0.564-10.279-1.121-20.924,0.146-31.171c-0.387,2.88-0.773,5.76-1.161,8.64c0.47-3.289,1.169-6.494,2.459-9.566
			c-1.092,2.588-2.184,5.177-3.275,7.765c0.602-1.312,1.288-2.534,2.124-3.71c-1.694,2.191-3.389,4.385-5.082,6.576
			c0.937-1.209,1.971-2.252,3.182-3.188c-2.191,1.694-4.385,3.389-6.578,5.082c1.059-0.748,2.154-1.365,3.335-1.896
			c-2.588,1.092-5.176,2.185-7.764,3.275c2.442-1.002,4.975-1.548,7.584-1.898c-2.88,0.388-5.76,0.773-8.64,1.16
			c7.694-0.898,15.516-0.428,23.24-0.307c12.978,0.204,25.956-0.252,38.923-0.723c29.211-1.057,58.555-2.307,87.626,1.531
			c-2.881-0.387-5.761-0.773-8.641-1.16c12.875,1.797,26.275,4.199,38.331,9.229c-2.588-1.092-5.176-2.184-7.764-3.275
			c2.981,1.33,5.772,2.892,8.39,4.851c-2.192-1.692-4.385-3.388-6.577-5.081c2.009,1.604,3.792,3.362,5.4,5.367
			c-1.693-2.191-3.389-4.385-5.081-6.577c1.692,2.25,3.06,4.64,4.204,7.21c-1.092-2.588-2.185-5.176-3.276-7.764
			c2.256,5.42,3.394,11.143,4.207,16.936c-0.387-2.881-0.772-5.761-1.161-8.641c2.958,22.355,4.234,44.996,6.267,67.453
			c2.194,24.262,4.466,49.168,1.252,73.438c0.387-2.879,0.772-5.76,1.161-8.641c-0.896,6.314-2.215,12.568-4.665,18.479
			c1.092-2.588,2.185-5.176,3.275-7.764c-1.116,2.543-2.426,4.939-4.093,7.164c1.693-2.191,3.388-4.385,5.082-6.576
			c-1.48,1.707-3.057,3.248-4.813,4.67c2.192-1.693,4.386-3.389,6.577-5.082c-1.99,1.496-4.066,2.734-6.328,3.777
			c2.588-1.092,5.177-2.184,7.765-3.275c-2.938,1.234-5.938,2.037-9.087,2.518c2.88-0.387,5.76-0.773,8.64-1.162
			c-4.866,0.609-9.695,0.426-14.548-0.223c2.88,0.389,5.76,0.775,8.64,1.162c-11.735-1.76-22.924-5.914-33.812-10.506
			c2.588,1.092,5.176,2.184,7.764,3.275c-15.152-6.465-29.849-14.098-45.353-19.717c-14.421-5.227-30.868-1.34-45.776-3.146
			c2.88,0.387,5.76,0.773,8.64,1.16c-0.724-0.109-1.419-0.238-2.112-0.475c2.588,1.092,5.176,2.186,7.764,3.277
			c-0.208-0.158-0.417-0.316-0.625-0.475c2.192,1.693,4.385,3.389,6.577,5.082c-1.062-0.893-1.995-1.854-2.881-2.918
			c1.693,2.191,3.388,4.385,5.082,6.578c-1.948-2.533-3.4-5.309-4.649-8.242c1.092,2.59,2.184,5.178,3.276,7.766
			c-4.105-10.201-5.78-21.252-7.253-32.088c0.387,2.879,0.772,5.76,1.16,8.639c-1.87-14.1-3.081-28.312-5.532-42.328
			c-2.045-11.698-5.835-23.01-7.433-34.815c0.388,2.88,0.773,5.761,1.161,8.642c-0.516-4.146-0.793-8.304-0.276-12.461
			c-0.388,2.879-0.773,5.76-1.16,8.639c0.271-1.805,0.693-3.536,1.354-5.24c-1.092,2.588-2.184,5.176-3.275,7.764
			c0.593-1.375,1.31-2.633,2.205-3.834c-1.693,2.192-3.389,4.385-5.081,6.577c0.823-1.019,1.723-1.916,2.729-2.753
			c-2.191,1.693-4.386,3.389-6.578,5.081c1.759-1.354,3.658-2.388,5.699-3.255c-2.588,1.093-5.176,2.186-7.764,3.275
			c3.877-1.525,7.924-2.373,12.037-2.973c-2.881,0.387-5.761,0.773-8.641,1.161c11.808-1.562,23.92-1.687,35.813-2.008
			c13.424-0.363,26.87-0.048,40.199,1.675c-2.88-0.389-5.76-0.773-8.641-1.161c11.531,1.608,22.768,4.351,33.569,8.729
			c-2.588-1.092-5.176-2.186-7.765-3.276c2.722,1.151,5.393,2.386,8.033,3.709c-3.887-14.821-7.772-29.644-11.659-44.466
			c-3.313,7.787-6.46,15.169-8.138,23.451c-1.721,8.498-2.624,17.347-2.646,26.029c-0.038,14.422,2.638,28.848,4.582,43.084
			c-0.389-2.879-0.774-5.76-1.161-8.64c1.648,12.286,2.947,24.62,1.361,36.985c0.388-2.879,0.774-5.76,1.161-8.639
			c-0.534,2.945-1.26,5.789-2.327,8.59c1.094-2.588,2.186-5.176,3.276-7.764c-0.955,2.262-2.089,4.346-3.563,6.313
			c1.693-2.193,3.389-4.387,5.082-6.578c-0.976,1.188-2.012,2.246-3.188,3.232c2.192-1.693,4.385-3.389,6.577-5.082
			c-1.389,1.053-2.826,1.895-4.421,2.596c2.588-1.092,5.176-2.184,7.764-3.275c-1.617,0.621-3.237,1.045-4.948,1.318
			c2.88-0.387,5.76-0.773,8.641-1.16c-2.415,0.293-4.784,0.266-7.2,0.004c2.88,0.389,5.76,0.773,8.64,1.16
			c-4.318-0.584-8.429-1.852-12.447-3.518c2.589,1.092,5.177,2.184,7.765,3.273c-5.95-2.588-11.465-5.947-16.635-9.857
			c2.191,1.691,4.385,3.387,6.576,5.082c-7.954-6.178-14.946-13.607-21.152-21.515c1.692,2.192,3.388,4.386,5.082,6.577
			c-5.39-7.01-10.121-14.454-13.698-22.555c1.092,2.588,2.184,5.176,3.276,7.765c-2.104-5.011-3.686-10.124-4.43-15.519
			c0.389,2.881,0.774,5.76,1.161,8.641c-0.321-2.994-0.364-5.928-0.063-8.926c-0.388,2.881-0.773,5.761-1.16,8.642
			c0.438-3.151,1.303-6.042,2.455-9.002c-1.092,2.588-2.185,5.176-3.276,7.765c1.146-2.684,2.415-5.215,4.099-7.601
			c-1.692,2.192-3.388,4.385-5.081,6.577c0.892-1.125,1.81-2.117,2.908-3.041c-2.191,1.695-4.385,3.389-6.577,5.082
			c0.729-0.518,1.433-0.938,2.241-1.319c-2.588,1.093-5.176,2.185-7.764,3.274c0.765-0.271,1.468-0.45,2.271-0.565
			c-2.88,0.388-5.761,0.772-8.641,1.16c0.508-0.046,1.015-0.043,1.521,0.011c-2.881-0.388-5.761-0.773-8.641-1.16
			c1.075,0.161,2.028,0.446,3.03,0.868c-2.588-1.092-5.176-2.185-7.764-3.276c1.064,0.541,2.022,1.16,2.977,1.881
			c-2.193-1.694-4.386-3.389-6.578-5.082c1.585,1.324,2.96,2.791,4.263,4.393c-1.693-2.191-3.388-4.385-5.082-6.578
			c2.974,3.891,5.27,8.155,7.219,12.637c-1.094-2.588-2.186-5.176-3.276-7.764c2.239,5.412,3.92,10.989,4.798,16.786
			c7.566-13.326,15.133-26.651,22.699-39.979c-37.864,15.979-75.729,31.957-113.592,47.936
			c-51.962,21.93-103.924,43.855-155.886,65.783c-4.52,1.908-9.037,3.814-13.556,5.723c-8.223,3.469-14.717,6.9-19.423,14.936
			c-4.396,7.506-5.583,16.654-3.275,25.043c2.233,8.123,7.67,15.166,14.936,19.422C81.428,563.079,92.224,565.606,99.763,562.424
			L99.763,562.424z"/>
	</g>
</g>
<g opacity="0.2">
	<g opacity="0.2">
		<path d="M484.915,535.418c-43.492-18.568-86.985-37.137-130.479-55.705c-26.821-11.451-53.643-22.902-80.464-34.352
			c4.979,12.232,9.957,24.467,14.937,36.701c0.69-4.51,1.99-8.822,3.735-13.033c-1.092,2.588-2.184,5.176-3.275,7.764
			c1.458-3.299,3.148-6.418,5.333-9.295c-1.694,2.191-3.389,4.385-5.082,6.576c1.064-1.293,2.178-2.453,3.489-3.496
			c-2.191,1.693-4.385,3.387-6.578,5.082c0.715-0.492,1.406-0.898,2.191-1.264c-2.588,1.092-5.176,2.184-7.764,3.275
			c0.478-0.197,0.972-0.34,1.48-0.428c-2.88,0.387-5.76,0.773-8.64,1.16c0.493-0.084,0.988-0.104,1.485-0.063
			c-2.881-0.387-5.761-0.773-8.641-1.16c0.508,0.045,1.002,0.158,1.48,0.336c-2.588-1.092-5.177-2.184-7.765-3.275
			c0.819,0.365,1.477,0.773,2.189,1.318c-2.192-1.693-4.385-3.389-6.578-5.08c0.519,0.445,0.994,0.936,1.424,1.467
			c-1.693-2.193-3.388-4.385-5.082-6.578c1.406,1.857,2.43,3.828,3.366,5.955c-1.092-2.588-2.184-5.176-3.276-7.764
			c0.84,2.15,1.502,4.227,1.896,6.502c-0.387-2.881-0.774-5.762-1.161-8.641c0.309,2.574,0.289,5.064,0.008,7.641
			c0.387-2.881,0.774-5.762,1.161-8.641c-0.602,4.047-1.78,7.861-3.349,11.635c1.092-2.588,2.184-5.176,3.275-7.764
			c-2.644,5.953-6.066,11.43-9.981,16.625c1.693-2.191,3.388-4.385,5.082-6.576c-4.778,6.168-10.158,11.947-16.336,16.738
			c2.191-1.695,4.385-3.389,6.578-5.082c-3.741,2.801-7.697,5.211-11.975,7.107c2.588-1.094,5.176-2.186,7.764-3.275
			c-2.783,1.158-5.603,2.055-8.579,2.557c2.88-0.387,5.76-0.773,8.64-1.16c-2.112,0.279-4.161,0.334-6.277,0.061
			c2.88,0.387,5.76,0.773,8.641,1.162c-1.133-0.207-2.197-0.49-3.279-0.885c2.588,1.092,5.176,2.184,7.764,3.275
			c-1.06-0.459-2.018-0.988-2.973-1.639c2.193,1.691,4.385,3.387,6.578,5.082c-1.222-0.953-2.235-1.996-3.184-3.219
			c1.694,2.191,3.389,4.385,5.082,6.576c-0.791-1.152-1.445-2.328-2.04-3.596c1.093,2.588,2.185,5.176,3.276,7.764
			c-0.969-2.359-1.6-4.75-2.061-7.258c0.387,2.881,0.773,5.762,1.16,8.641c-1.18-9.574-0.16-19.076,1.109-28.586
			c-0.387,2.879-0.774,5.76-1.161,8.639c3.059-22.49,6.759-45.738-2.275-67.492c-4.979,12.234-9.957,24.469-14.937,36.703
			c2.08-1.049,4.179-2.023,6.322-2.936c-2.588,1.092-5.176,2.184-7.764,3.273c7.989-3.213,16.249-5.242,24.767-6.453
			c-2.88,0.389-5.76,0.775-8.64,1.162c18.162-2.332,37.496-2,55.68,0.145c-2.881-0.389-5.76-0.773-8.641-1.162
			c3.477,0.471,6.883,1.146,10.141,2.479c-2.589-1.092-5.175-2.184-7.763-3.275c1.335,0.604,2.571,1.293,3.749,2.164
			c-2.191-1.693-4.385-3.389-6.577-5.082c0.845,0.689,1.586,1.426,2.271,2.275c-1.694-2.191-3.388-4.385-5.082-6.578
			c0.625,0.865,1.131,1.752,1.565,2.727c-1.092-2.588-2.185-5.178-3.276-7.766c0.495,1.271,0.82,2.551,1.04,3.896
			c-0.387-2.881-0.773-5.76-1.161-8.641c0.426,3.33,0.193,6.646-0.228,9.967c0.387-2.879,0.773-5.76,1.161-8.641
			c-1.221,8.674-3.845,17.023-5.443,25.613c-2.152,11.559-3.012,23.357-4.56,35.008c0.387-2.881,0.773-5.76,1.16-8.641
			c-1.098,7.98-2.363,16.07-5.354,23.596c1.092-2.588,2.184-5.176,3.276-7.764c-0.88,2.051-1.881,3.98-3.184,5.797
			c1.694-2.191,3.388-4.385,5.082-6.576c-0.857,1.08-1.764,2.021-2.854,2.869c4.779-2.787,9.561-5.572,14.341-8.359
			c-0.512,0.168-1.009,0.268-1.541,0.354c2.88-0.387,5.76-0.773,8.64-1.16c-11.771,1.416-24.458-1.438-35.919,2.508
			c-12.956,4.461-25.112,11.121-37.709,16.463c2.588-1.092,5.176-2.184,7.764-3.275c-7.74,3.229-15.663,6.088-23.99,7.326
			c2.88-0.389,5.76-0.773,8.64-1.16c-3.353,0.422-6.66,0.547-10.024,0.195c2.881,0.387,5.761,0.773,8.641,1.16
			c-2.453-0.344-4.768-0.932-7.064-1.863c2.588,1.094,5.177,2.186,7.765,3.277c-1.61-0.74-3.086-1.596-4.528-2.625
			c2.192,1.693,4.385,3.387,6.578,5.08c-1.478-1.164-2.78-2.426-4.012-3.848c1.693,2.191,3.388,4.385,5.082,6.576
			c-1.316-1.795-2.332-3.713-3.199-5.76c1.092,2.588,2.184,5.176,3.275,7.764c-1.728-4.395-2.681-8.984-3.338-13.648
			c0.388,2.881,0.774,5.76,1.161,8.641c-2.312-17.973-0.721-36.348,0.856-54.314c1.501-17.109,2.558-34.33,4.693-51.371
			c-0.387,2.879-0.773,5.76-1.161,8.639c0.611-4.496,1.457-8.92,3.158-13.145c-1.092,2.588-2.184,5.176-3.275,7.764
			c0.892-2.023,1.948-3.887,3.271-5.658c-1.694,2.193-3.388,4.386-5.082,6.578c1.229-1.51,2.567-2.825,4.084-4.043
			c-2.192,1.693-4.385,3.389-6.578,5.082c2.073-1.526,4.264-2.729,6.62-3.76c-2.588,1.092-5.176,2.186-7.763,3.276
			c9.231-3.688,19.298-5.541,29.11-6.879c-2.881,0.388-5.761,0.774-8.641,1.161c21.41-2.7,42.984-1.797,64.485-1.002
			c9.686,0.357,19.375,0.67,29.067,0.529c5.748-0.082,11.553-0.434,17.275,0.271c-2.88-0.387-5.76-0.773-8.641-1.161
			c1.889,0.279,3.698,0.697,5.466,1.431c-2.589-1.093-5.177-2.186-7.765-3.276c0.98,0.461,1.87,0.991,2.733,1.647
			c-2.192-1.695-4.385-3.389-6.577-5.082c0.666,0.567,1.252,1.166,1.812,1.84c-1.692-2.192-3.388-4.385-5.08-6.578
			c0.717,0.969,1.292,1.971,1.8,3.063c-1.093-2.588-2.186-5.176-3.276-7.764c0.927,2.248,1.449,4.561,1.813,6.96
			c-0.388-2.88-0.773-5.761-1.16-8.64c2.249,17.82-0.557,36.814-2.91,54.488c0.388-2.881,0.773-5.762,1.161-8.643
			c-2.314,17.027-5.396,33.99-7.234,51.078c-1.155,10.73-0.382,21.576-1.733,32.309c0.388-2.881,0.773-5.762,1.16-8.641
			c-0.668,4.637-2.047,8.857-3.777,13.201c1.093-2.588,2.185-5.176,3.275-7.764c-0.332,0.781-0.67,1.533-1.123,2.25
			c1.693-2.193,3.389-4.385,5.081-6.578c-0.152,0.227-0.334,0.432-0.539,0.611c2.192-1.693,4.386-3.389,6.577-5.082
			c-0.183,0.158-0.385,0.287-0.604,0.385c2.588-1.092,5.176-2.184,7.764-3.275c-1.12,0.434-2.352,0.555-3.521,0.807
			c-4.881,1.053-9.506,3.479-14.018,5.432c2.588-1.092,5.176-2.186,7.765-3.277c-25.202,10.305-53.286,8.848-79.064,17.012
			c-17.882,5.662-35.115,13.367-53.853,15.947c2.88-0.389,5.76-0.773,8.64-1.16c-4.25,0.525-8.498,0.768-12.763,0.281
			c2.88,0.389,5.76,0.773,8.64,1.162c-1.929-0.275-3.778-0.699-5.604-1.379c2.588,1.092,5.176,2.186,7.764,3.275
			c-1.397-0.59-2.658-1.297-3.862-2.221c2.192,1.693,4.386,3.389,6.578,5.08c-0.744-0.641-1.395-1.313-2.012-2.074
			c1.694,2.191,3.388,4.385,5.082,6.576c-0.72-0.988-1.238-1.924-1.722-3.049c1.092,2.588,2.185,5.176,3.275,7.766
			c-0.396-1.221-0.677-2.396-0.896-3.658c0.387,2.879,0.773,5.76,1.16,8.639c-0.625-5.365,0.054-10.701,0.271-16.07
			c0.285-7.07-0.202-14.221-0.022-21.313c0.386-15.219,1.431-30.41,1.355-45.643c-0.076-15.504-1.348-31.334-5.818-46.232
			c-2.28-7.605-6-14.957-7.133-22.865c0.387,2.88,0.774,5.76,1.161,8.641c-0.206-1.863-0.218-3.673,0.026-5.533
			c-0.388,2.881-0.774,5.76-1.161,8.641c0.242-1.361,0.603-2.645,1.091-3.938c-1.092,2.588-2.184,5.176-3.276,7.764
			c0.892-2.07,2.038-3.92,3.392-5.719c-1.694,2.191-3.389,4.385-5.082,6.578c3.874-4.811,8.763-8.533,13.486-12.458
			c6.309-5.237,12.689-10.388,19.176-15.403c-2.193,1.693-4.386,3.389-6.578,5.082c17.475-13.416,35.854-25.734,56.133-34.516
			c-2.588,1.092-5.176,2.186-7.764,3.275c10.784-4.541,21.525-7.692,33.081-9.246c-2.88,0.388-5.76,0.773-8.64,1.16
			c20.736-2.715,42.191-3.899,62.979-1.114c-2.88-0.388-5.761-0.774-8.641-1.161c6.211,0.889,12.364,2.172,18.205,4.511
			c-2.588-1.092-5.176-2.185-7.764-3.276c2.74,1.16,5.325,2.537,7.688,4.36c-2.192-1.694-4.386-3.389-6.578-5.082
			c1.108,0.916,2.11,1.894,3.028,2.999c-1.694-2.191-3.388-4.385-5.082-6.576c0.9,1.182,1.653,2.395,2.275,3.746
			c-1.093-2.589-2.185-5.177-3.276-7.765c1.073,2.627,1.665,5.353,2.095,8.149c-0.387-2.879-0.772-5.76-1.161-8.64
			c2.313,17.241-0.91,34.543-1.23,51.793c-0.256,13.813-0.781,27.634-0.688,41.452c0.257,38.146,6.061,97.688,56.491,98.729
			c8.5,0.176,17.018-3.555,22.98-9.52c5.423-5.424,10.563-14.982,9.52-22.98c-1.301-9.975-1.539-20.021-1.875-30.064
			c-0.292-8.721-1.416-17.385-1.744-26.084c-0.405-10.764-0.178-21.555-0.389-32.322c-0.294-14.951-1.413-29.746-3.805-44.523
			c-0.771-4.752-1.855-9.502-3.726-13.949c-1.642-3.907-3.093-8.398-5.629-11.962c-5.188-7.289-6.889-8.681-14.082-14.093
			c-12.938-9.736-38.056-3.383-44.466,11.658c-3.685,8.646-4.823,12.766-5.912,22.164c-0.383,3.305,0.167,6.764,0.553,10.043
			c0.805,6.814,0.956,13.471,0.817,20.325c-0.283,13.978-1.277,27.95-3.138,41.808c0.387-2.879,0.772-5.76,1.16-8.639
			c-1.736,12.363-3.992,24.996-8.768,36.596c1.092-2.588,2.186-5.176,3.276-7.764c-4.199,9.639-9.914,18.51-14.209,28.102
			c-3.09,6.904-6.165,13.818-7.357,21.322c-1.58,9.941-1.576,16.688,0.305,26.729c3.396,18.113,17.775,29.471,24.709,45.617
			c-1.093-2.588-2.185-5.176-3.275-7.764c0.743,1.898,1.303,3.795,1.646,5.807c-0.387-2.881-0.772-5.76-1.16-8.641
			c0.203,1.68,0.231,3.293,0.076,4.977c0.388-2.879,0.773-5.76,1.16-8.639c-0.05,0.338-0.101,0.676-0.149,1.016
			c13.325-7.566,26.651-15.133,39.979-22.699c-19.898-4.033-39.224-2.268-58.246,4.656c-15.601,5.678-30.496,12.467-47.089,14.832
			c2.88-0.387,5.76-0.773,8.64-1.16c-4.028,0.504-8.052,1.053-12.072,1.617c2.88-0.387,5.76-0.773,8.64-1.16
			c-18.547,2.398-37.219,1.729-55.726-0.701c2.88,0.389,5.76,0.773,8.64,1.162c-20.438-2.816-40.487-7.691-60.232-13.619
			c-2.881,21.279-5.761,42.561-8.641,63.84c39.163-5.195,78.653,1.9,117.88-2.121c10.761-1.105,21.285-2.723,31.554-6.127
			c9.879-3.275,19.479-7.68,28.712-12.469c13.766-7.137,26.79-15.602,41.078-21.719c-2.588,1.092-5.176,2.186-7.764,3.275
			c27.402-11.365,57.799-12.613,83.482-28.602c20.734-12.904,21.304-43.344,0-56.125c-0.649-0.389-1.266-0.799-1.876-1.246
			c2.191,1.693,4.385,3.389,6.577,5.082c-1.472-1.178-2.737-2.496-3.913-3.967c1.694,2.191,3.389,4.385,5.082,6.576
			c-2.039-2.721-3.606-5.684-4.96-8.799c1.094,2.588,2.186,5.176,3.276,7.764c-4.287-10.359-6.218-21.561-7.741-32.613
			c0.388,2.881,0.773,5.762,1.161,8.641c-2.688-20.129-3.938-40.357-6.881-60.467c0.387,2.881,0.774,5.76,1.161,8.641
			c-4.063-30.615,1.281-63.457-10.068-92.854c-9.808-25.403-27.576-45.415-51.592-58.389
			c-18.798-10.155-39.584-16.102-60.507-19.864c-12.262-2.205-24.759-4.379-37.196-4.98c-16.177-0.783-31.176,3.3-45.707,9.969
			c-12.827,5.887-23.585,15.936-34.09,25.146c-10.228,8.967-20.55,17.825-31.278,26.191c2.192-1.694,4.385-3.389,6.577-5.082
			c-14.107,10.896-28.943,21.025-45.39,28.068c2.588-1.093,5.175-2.186,7.763-3.277c-7.54,3.111-15.114,5.919-22.044,10.26
			c-6.899,4.322-13.506,9.624-19.156,15.514c-11.279,11.756-19.733,26.709-23.608,42.551c-4.114,16.82-3.422,35.078,2,51.516
			c5.121,15.521,14.426,29.129,20.868,44.068c-1.092-2.588-2.186-5.176-3.276-7.764c3.254,7.771,5.777,15.729,6.938,24.092
			c-0.388-2.881-0.774-5.76-1.161-8.641c0.727,6.09,0.698,12.129-0.027,18.219c0.388-2.879,0.774-5.76,1.161-8.641
			c-1.312,9.463-4.201,18.477-7.9,27.262c1.093-2.588,2.185-5.176,3.276-7.764c-5.045,11.564-12.184,21.629-16.565,33.604
			c-5.34,14.586-3.576,32.275,1.458,46.645c5.223,14.908,13.577,27.906,27.455,36.107c12.228,7.225,26.818,8.639,40.681,9.146
			c30.083,1.105,60.501,0.555,90.587-0.342c30.766-0.916,60.56-9.754,90.902-13.91c-2.88,0.389-5.76,0.775-8.64,1.162
			c16.587-2.15,32.785-1.564,49.339,0.621c-2.88-0.387-5.76-0.771-8.641-1.16c28.8,3.951,57.793,11.088,87.029,9.166
			c-2.88-21.277-5.76-42.559-8.64-63.838c-0.377,0.051-0.753,0.104-1.13,0.156c2.88-0.387,5.76-0.773,8.64-1.16
			c-3.325,0.322-6.584,0.17-9.894-0.252c2.88,0.389,5.76,0.775,8.64,1.162c-7.65-1.164-14.964-3.609-22.091-6.574
			c2.588,1.092,5.176,2.186,7.764,3.277c-9.211-3.953-18.09-8.715-26.321-14.441c2.191,17.016,4.385,34.029,6.578,51.043
			c1.06-1.008,2.14-1.961,3.271-2.889c-2.193,1.693-4.386,3.387-6.578,5.082c3.519-2.68,7.272-4.787,11.338-6.518
			c-2.588,1.094-5.176,2.186-7.764,3.275c5.538-2.184,11.24-3.547,17.135-4.342c-2.88,0.389-5.76,0.775-8.64,1.162
			c7.186-0.834,14.412-0.869,21.594,0.029c-2.88-0.387-5.76-0.773-8.64-1.16c7.011,0.963,13.995,2.543,21.076,2.848
			c12.069,0.521,22.706-4.668,31.53-12.428c8.177-7.191,12.568-18.883,15.612-28.953c3.409-11.275,3.479-24.348,2.026-35.984
			c-1.401-11.211-3.087-22.357-6.935-33.021c-3.381-9.373-7.634-18.479-12.37-27.242c-7.39-13.676-15.965-26.689-22.088-41.025
			c1.092,2.59,2.186,5.178,3.276,7.766c-2.96-7.164-5.207-14.502-6.364-22.178c0.387,2.879,0.774,5.76,1.161,8.639
			c-0.658-5.047-0.924-10.088-0.369-15.156c-0.387,2.879-0.773,5.76-1.161,8.639c0.931-6.545,3.018-12.67,5.542-18.757
			c-1.092,2.588-2.184,5.176-3.275,7.765c3.973-9.386,8.551-18.631,11.141-28.521c3.456-13.2,2.803-25.164,0.721-38.414
			c-1.232-7.85-3.842-15.5-6.894-22.809c-3.845-9.205-7.707-17.941-13.558-26.039c-12.306-17.037-28.062-31.123-46.514-41.292
			c-17.163-9.459-38.198-16.588-58.051-14.787c-8.904,0.808-16.468,3.006-22.981,9.52c-6.066,6.067-9.519,14.396-9.519,22.98
			c0,16.504,14.828,34.103,32.5,32.5c4.383-0.397,8.701-0.229,13.061,0.353c-2.88-0.388-5.761-0.774-8.641-1.161
			c6.605,1.025,12.939,2.938,19.124,5.461c-2.588-1.093-5.176-2.186-7.764-3.275c8.863,3.775,17.102,8.678,24.765,14.508
			c-2.193-1.693-4.386-3.387-6.578-5.082c6.965,5.447,13.297,11.559,18.723,18.551c-1.693-2.191-3.388-4.385-5.082-6.577
			c4.522,6.036,8.118,12.466,11.112,19.386c-1.093-2.588-2.185-5.177-3.276-7.765c3.433,8.22,6.1,16.741,7.301,25.586
			c-0.388-2.88-0.773-5.76-1.161-8.64c0.468,4.123,0.473,8.123,0.021,12.248c0.389-2.879,0.774-5.76,1.161-8.639
			c-0.931,6.545-3.017,12.67-5.543,18.758c1.093-2.588,2.186-5.176,3.276-7.765c-3.007,7.104-6.213,14.134-8.918,21.36
			c-3.003,8.02-4.184,16.633-4.828,25.129c-0.583,7.67,1.022,16.037,2.292,23.461c0.973,5.697,2.749,11.236,4.813,16.619
			c8.885,23.15,23.595,43.035,33.435,65.654c-1.092-2.588-2.185-5.176-3.275-7.764c4.016,9.531,6.433,19.436,7.882,29.668
			c-0.387-2.881-0.773-5.762-1.161-8.641c0.919,7.354,1.15,14.646,0.183,22.01c0.388-2.881,0.773-5.762,1.161-8.641
			c-0.698,4.287-1.853,8.324-3.486,12.346c1.092-2.588,2.184-5.176,3.276-7.764c-0.887,2.008-1.864,3.906-3.134,5.699
			c1.693-2.193,3.389-4.385,5.081-6.578c-0.694,0.883-1.419,1.672-2.263,2.414c2.192-1.695,4.386-3.389,6.578-5.082
			c-0.776,0.596-1.555,1.078-2.438,1.496c2.589-1.092,5.177-2.184,7.765-3.275c-0.872,0.34-1.727,0.576-2.646,0.744
			c2.88-0.387,5.761-0.773,8.641-1.162c-2.028,0.258-4.018,0.135-6.041-0.104c2.88,0.387,5.76,0.771,8.64,1.16
			c-13.285-1.791-26.081-4.172-39.514-2.615c-20.562,2.387-39.422,8.713-54.728,23.268c-6.145,5.844-9.519,14.578-9.519,22.98
			c0,12.162,6.477,21.369,16.097,28.063c11.431,7.953,23.988,13.674,36.869,18.857c5.386,2.166,10.953,3.871,16.647,4.998
			c11.369,2.25,19.643,2.1,30.963,0.529c5.506-1.545,10.286-4.33,14.341-8.357c6.067-6.068,9.52-14.396,9.52-22.982
			c0-16.836-14.804-33.662-32.5-32.5c-12.774,0.842-25.482-0.172-38.15-1.846c2.88,0.387,5.76,0.773,8.64,1.16
			c-27.648-3.793-55.363-10.426-83.422-9.377c-28.841,1.078-56.951,9.516-85.412,13.52c2.88-0.389,5.761-0.773,8.641-1.16
			c-20.352,2.717-40.979,2.01-61.47,2.318c-19.833,0.301-40.381,1.529-60.108-0.885c2.88,0.387,5.76,0.773,8.64,1.162
			c-3.793-0.523-7.486-1.295-11.044-2.736c2.588,1.092,5.176,2.186,7.764,3.275c-2.016-0.9-3.854-1.977-5.604-3.324
			c2.192,1.693,4.385,3.389,6.578,5.082c-1.507-1.266-2.821-2.643-4.042-4.186c1.693,2.191,3.388,4.385,5.082,6.576
			c-1.813-2.48-3.222-5.129-4.44-7.945c1.092,2.588,2.185,5.176,3.276,7.764c-1.92-4.762-3.292-9.639-4.045-14.721
			c0.387,2.879,0.773,5.76,1.161,8.641c-0.38-3.322-0.448-6.566-0.092-9.893c-0.387,2.879-0.773,5.76-1.16,8.639
			c0.479-3.287,1.348-6.389,2.576-9.471c-1.092,2.588-2.184,5.176-3.275,7.764c1.798-4.193,4.079-8.121,6.366-12.061
			c4.264-7.344,7.583-14.893,10.783-22.785c5.554-13.695,8.491-29.023,8.191-43.793c-0.266-13.07-3.174-26.135-8.077-38.213
			c-3.188-7.852-6.616-15.529-10.5-23.055c-3.08-5.967-6.564-11.721-9.23-17.891c1.092,2.588,2.184,5.176,3.275,7.764
			c-2.329-5.734-3.954-11.6-4.783-17.734c0.388,2.879,0.774,5.76,1.161,8.639c-0.58-5.211-0.563-10.363,0.083-15.567
			c-0.387,2.88-0.773,5.761-1.161,8.64c0.808-5.438,2.268-10.64,4.401-15.705c-1.092,2.588-2.184,5.176-3.276,7.764
			c2.033-4.539,4.52-8.762,7.483-12.756c-1.694,2.192-3.388,4.386-5.082,6.578c3.631-4.682,7.767-8.801,12.44-12.44
			c-2.193,1.694-4.386,3.389-6.578,5.082c4.466-3.334,9.215-6.103,14.311-8.36c-2.588,1.094-5.176,2.186-7.764,3.276
			c20.563-7.812,38.776-18.693,56.203-32.019c9.796-7.49,19.376-15.203,28.743-23.222c7.794-6.672,15.283-13.763,23.385-20.063
			c-2.193,1.693-4.385,3.389-6.578,5.082c5.334-4.031,10.925-7.563,17.071-10.226c-2.589,1.093-5.177,2.185-7.765,3.276
			c4.791-1.951,9.691-3.268,14.813-3.987c-2.881,0.388-5.76,0.772-8.641,1.161c7.509-0.893,14.984-0.491,22.465,0.482
			c-2.88-0.388-5.76-0.773-8.64-1.162c20.938,2.965,41.98,6.731,61.563,14.992c-2.588-1.094-5.176-2.186-7.764-3.277
			c8.098,3.5,15.793,7.75,22.818,13.103c-2.192-1.694-4.385-3.388-6.577-5.082c5.137,4.025,9.752,8.554,13.771,13.699
			c-1.693-2.192-3.388-4.386-5.082-6.577c3.621,4.801,6.59,9.945,8.949,15.475c-1.092-2.588-2.184-5.176-3.275-7.765
			c2.889,7.108,4.542,14.456,5.597,22.042c-0.388-2.88-0.774-5.76-1.161-8.64c1.536,12.271,1.604,24.634,1.926,36.978
			c0.371,14.26,2.224,28.051,4.139,42.178c-0.388-2.879-0.773-5.76-1.16-8.639c2.613,20.207,3.581,40.516,6.866,60.662
			c3.64,22.326,11.876,46.4,32.316,58.664c0-18.709,0-37.418,0-56.125c-3.936,2.449-8.007,4.545-12.261,6.383
			c2.588-1.092,5.176-2.186,7.764-3.275c-20.505,8.424-42.945,10.434-63.458,18.941c-21.206,8.795-40.12,21.781-61.135,30.867
			c2.588-1.092,5.176-2.186,7.764-3.275c-8.365,3.506-16.956,6.117-25.914,7.592c2.88-0.387,5.76-0.775,8.64-1.162
			c-41.042,5.445-82.493-2.629-123.535,2.814c-5.867,0.02-11.334,1.498-16.403,4.438c-7.265,4.256-12.7,11.299-14.936,19.424
			c-4.779,17.373,5.745,34.891,22.699,39.979c19.746,5.926,39.793,10.803,60.231,13.619c12.526,1.725,24.994,3.162,37.646,3.387
			c12.498,0.223,24.75-1.195,37.109-2.934c-2.88,0.387-5.76,0.773-8.64,1.16c15.588-1.955,29.708-5.389,44.307-11.104
			c11.111-4.352,22.138-9.018,34.05-10.633c-2.881,0.387-5.761,0.773-8.641,1.162c5.194-0.594,10.32-0.576,15.508,0.074
			c-2.88-0.387-5.76-0.771-8.64-1.16c1.515,0.229,3.013,0.494,4.515,0.801c8.787,1.779,17.122,1.363,25.043-3.277
			c6.538-3.83,13.769-11.566,14.937-19.422c1.42-9.543,1.963-16.652-0.563-26.193c-1.679-6.346-4.853-12.672-8.382-18.244
			c-5.038-7.951-11.337-15.02-15.216-23.682c1.092,2.588,2.185,5.174,3.276,7.762c-1.193-2.877-2.052-5.771-2.5-8.855
			c0.387,2.879,0.772,5.76,1.16,8.639c-0.249-2.418-0.222-4.754,0.074-7.166c-0.387,2.879-0.773,5.76-1.161,8.641
			c0.666-4.189,1.881-8.141,3.451-12.072c-1.093,2.588-2.185,5.176-3.276,7.764c5.635-13.268,13.229-25.48,18.735-38.857
			c4.537-11.023,6.499-23.355,8.147-35.092c2.051-14.604,3.525-29.193,4.104-43.934c0.231-5.908,0.383-11.84,0.26-17.754
			c-0.145-6.93-2.064-13.699-1.26-20.651c-0.387,2.88-0.773,5.76-1.161,8.64c0.148-0.984,0.39-1.945,0.723-2.885
			c-1.093,2.588-2.185,5.176-3.275,7.764c0.191-0.449,0.384-0.9,0.575-1.352c-14.821,3.887-29.645,7.773-44.466,11.658
			c0.144,0.108,0.287,0.218,0.432,0.326c-2.192-1.694-4.386-3.389-6.578-5.082c0.749,0.638,1.388,1.332,1.992,2.108
			c-1.694-2.192-3.389-4.385-5.082-6.577c0.94,1.321,1.688,2.721,2.352,4.197c-1.092-2.588-2.184-5.176-3.274-7.764
			c2.421,5.764,3.508,11.99,4.35,18.152c-0.387-2.88-0.772-5.76-1.161-8.64c2.216,17.146,2.119,34.513,2.222,51.769
			c0.049,8.324,0.633,16.404,1.264,24.703c1.107,14.553,0.651,29.184,2.542,43.68c10.833-10.832,21.667-21.666,32.5-32.5
			c-0.691-0.014-1.366-0.055-2.054-0.129c2.88,0.389,5.76,0.775,8.64,1.162c-1.304-0.195-2.53-0.52-3.759-0.998
			c2.588,1.092,5.176,2.186,7.764,3.277c-1.186-0.525-2.266-1.156-3.313-1.918c2.191,1.693,4.386,3.389,6.578,5.082
			c-1.433-1.131-2.655-2.412-3.775-3.85c1.694,2.193,3.389,4.385,5.082,6.578c-1.68-2.291-2.982-4.768-4.096-7.377
			c1.093,2.588,2.185,5.176,3.275,7.764c-2.745-6.77-4.153-13.967-5.146-21.18c0.388,2.881,0.773,5.76,1.161,8.641
			c-4.406-33.834-0.854-68.378,0.653-102.279c0.529-11.902,0.321-24.621-2.965-36.128c-3.862-13.522-13.319-24.922-25.713-31.515
			c-20.062-10.672-44.185-12.146-66.487-11.811c-17.78,0.268-35.851,2.051-53.313,5.381c-13.688,2.607-27.3,9.092-39.684,15.164
			c-12.489,6.123-24.227,13.717-35.525,21.797c-12.73,9.104-24.979,18.92-37.034,28.897c-11.515,9.532-21.039,19.526-25.793,34.101
			c-7.078,21.689,6.736,41.932,9.915,62.787c-0.387-2.881-0.773-5.76-1.161-8.641c1.783,15.861,1.403,31.797,0.76,47.713
			c-0.306,7.543-0.655,15.084-0.848,22.633c-0.185,7.295,0.36,14.639-0.05,21.914c-0.463,8.203-0.203,15.242,1.231,23.518
			c2.091,12.068,10.789,20.365,19.921,27.375c9.478,7.275,24.457,8.65,35.94,7.561c21.118-2.006,40.494-8.938,60.343-15.914
			c22.709-7.98,47.181-8.25,70.396-14.168c7.651-1.951,14.795-5.008,22.038-8.141c-2.588,1.092-5.177,2.186-7.765,3.275
			c8.426-3.24,16.416-4.217,23.382-11.123c6.789-6.734,10.711-16.621,12.979-25.779c3.937-15.889,1.923-32.211,4.045-48.246
			c-0.387,2.881-0.773,5.762-1.161,8.643c4.299-31.787,10.646-63.537,10.32-95.736c-0.151-14.984-3.753-30.844-14.969-41.586
			c-10.564-10.119-24.284-13.223-38.483-13.414c-11.42-0.153-22.811,0.17-34.237-0.209c-14.911-0.494-29.813-1.215-44.736-0.949
			c-17.117,0.304-34.489,2.133-51.128,6.207c-7.779,1.904-15.42,4.648-22.525,8.357c-8.561,4.467-14.191,11.192-19.815,18.723
			c-8.101,10.845-9.527,26.285-10.844,39.182c-1.005,9.854-1.795,19.725-2.623,29.592c-1.731,20.639-4.26,41.32-3.238,62.066
			c0.35,7.096,1.331,14.197,2.505,21.191c1.14,6.787,3.761,12.613,6.458,18.979c5.902,13.928,21.346,24.729,35.788,27.889
			c28.317,6.195,54.516-7.275,79.472-18.758c2.028-0.934,4.067-1.842,6.118-2.725c-2.588,1.094-5.175,2.186-7.763,3.277
			c2.492-1.051,5.052-2.287,7.735-2.717c-2.88,0.387-5.76,0.773-8.64,1.16c7.211-0.889,14.558-0.297,21.804-0.549
			c3.928-0.137,8.169-0.807,11.886-1.414c6.391-1.045,10.965-4.883,15.881-8.711c4.157-3.236,7.354-7.936,9.861-12.533
			c10.396-19.053,10.748-41.721,13.481-62.729c-0.389,2.881-0.774,5.76-1.161,8.641c2.015-14.928,6.771-29.137,7.949-44.258
			c1.395-17.916-7.997-37.813-24.875-45.432c-18.662-8.426-39.75-8.359-59.932-8.41c-24.342-0.061-47.957,4.183-69.783,15.178
			c-11.739,5.914-20.191,24.049-14.937,36.703c2.109,5.078,3.475,10.236,4.219,15.682c-0.387-2.881-0.773-5.76-1.16-8.641
			c1.072,9.857,0.063,19.617-1.244,29.398c0.387-2.879,0.773-5.76,1.161-8.641c-2.472,18.16-5.306,35.492-1.268,53.68
			c3.811,17.156,17.593,32.342,34.847,36.461c26.854,6.412,53.375-9.5,70.783-28.797c22.227-24.635,39.03-61.518,18.692-92.691
			c-7.697-11.798-19.469-19.812-33.855-20.142c-11.522-0.265-21.266,5.001-29.564,12.479c-10.356,9.334-17.413,25.395-19.49,38.959
			c-1.548,5.76-1.548,11.52,0,17.279c1.999,7.268,7.657,16.314,14.936,19.424c43.493,18.566,86.986,37.137,130.479,55.705
			c26.82,11.449,53.643,22.9,80.464,34.352c8.438,3.604,15.794,5.82,25.043,3.275c8.124-2.234,15.167-7.67,19.423-14.936
			c4.397-7.506,5.584-16.654,3.276-25.043C497.853,547.573,492.194,538.526,484.915,535.418L484.915,535.418z"/>
	</g>
</g>
<g id="Capa_2">
</g>
<g>
	<g>
		<g>
			<path fill="#FFFFFF" d="M172.521,166.565c0.1-10.328-8.07-19.858-18.487-21.568c-10.419-1.709-21.949,4.588-26.095,14.253
				c-1.931-3.829-6.076-6.29-10.461-6.91c-4.384-0.619-8.956,0.442-13.036,2.34c-7.811,3.636-14.088,10.442-16.934,18.358
				c-2.845,7.917-0.769,19.567,3.142,26.785c-4.62,1.487-8.94,8.541-9.979,13.143c-2.719,12.052,2.778,25.156,13.25,31.586
				c10.473,6.431,25.249,5.775,35.619-1.578c7.436,6.991,19.327,9.153,29.262,5.32c9.935-3.837,17.397-13.47,18.365-23.706
				c0.202-2.137,0.17-4.382,1.231-6.296c1.216-2.188,3.601-3.483,5.678-4.947c8.847-6.237,13.373-17.811,10.892-27.856
				C192.487,175.444,183.159,167.581,172.521,166.565z"/>
			<g>
				<path fill="#263238" d="M172.521,166.565c0,0,0.24,0.023,0.693,0.079c0.453,0.071,1.127,0.099,1.998,0.311
					c1.747,0.334,4.33,1.033,7.291,2.668c2.942,1.617,6.331,4.169,9.046,8.125c1.354,1.965,2.531,4.273,3.29,6.897
					c0.758,2.619,1.084,5.548,0.836,8.621c-0.271,3.069-1.1,6.271-2.541,9.394c-0.772,1.538-1.607,3.101-2.7,4.549
					c-0.499,0.754-1.127,1.43-1.705,2.152c-0.319,0.336-0.641,0.674-0.964,1.013l-0.489,0.508l-0.527,0.474
					c-1.369,1.313-3,2.399-4.613,3.491c-1.593,1.091-3.199,2.388-3.93,4.215c-0.741,1.819-0.686,3.836-0.916,5.85
					c-0.195,2.026-0.71,4.057-1.413,6.052c-0.34,1.004-0.795,1.976-1.242,2.956c-0.509,0.956-1.015,1.922-1.625,2.839
					c-1.192,1.85-2.601,3.607-4.213,5.216c-3.247,3.189-7.335,5.772-11.935,7.168c-4.597,1.377-9.609,1.567-14.409,0.574
					c-4.794-0.992-9.417-3.197-13.05-6.604l0.25,0.013c-3.124,2.189-6.707,3.837-10.5,4.863c-3.798,1.02-7.813,1.345-11.791,1.042
					c-3.978-0.324-7.905-1.406-11.506-3.17c-3.555-1.843-6.762-4.391-9.27-7.53c-2.345-2.932-4.161-6.244-5.298-9.76
					c-1.127-3.52-1.634-7.213-1.46-10.876c0.07-0.916,0.15-1.83,0.278-2.736l0.247-1.352l0.123-0.675l0.176-0.671
					c0.497-1.776,1.277-3.456,2.178-5.056c0.912-1.593,1.992-3.093,3.252-4.435c1.25-1.336,2.749-2.513,4.515-3.129l-0.12,0.275
					c-1.735-3.29-2.905-6.801-3.627-10.349c-0.375-1.773-0.615-3.564-0.744-5.351c-0.144-1.788-0.132-3.58,0.019-5.353
					c0.224-3.563,1.428-6.998,3.094-10.074c1.682-3.083,3.833-5.866,6.324-8.22c1.234-1.188,2.562-2.261,3.949-3.219
					c1.381-0.965,2.82-1.823,4.313-2.539c2.96-1.466,6.111-2.436,9.251-2.721c3.131-0.292,6.265,0.15,8.92,1.417
					c2.663,1.227,4.862,3.224,6.103,5.671l-0.275,0.017c1.958-4.494,5.376-8.031,9.112-10.464c3.783-2.393,7.92-3.758,11.834-4.041
					c1.958-0.194,3.852-0.019,5.631,0.267c0.881,0.187,1.752,0.354,2.563,0.645c0.834,0.23,1.604,0.575,2.361,0.894
					c3.015,1.331,5.371,3.237,7.198,5.154c1.826,1.938,3.096,3.948,3.99,5.778c0.409,0.934,0.795,1.793,1.033,2.624
					c0.301,0.809,0.44,1.582,0.604,2.26c0.259,1.374,0.377,2.442,0.373,3.155C172.518,166.186,172.521,166.565,172.521,166.565
					s-0.026-0.359-0.063-1.079c-0.016-0.727-0.146-1.788-0.416-3.153c-0.17-0.673-0.315-1.441-0.622-2.244
					c-0.245-0.826-0.634-1.677-1.048-2.604c-0.902-1.814-2.176-3.806-3.998-5.722c-1.824-1.896-4.17-3.778-7.164-5.085
					c-0.754-0.313-1.516-0.65-2.342-0.875c-0.806-0.285-1.667-0.448-2.541-0.631c-1.761-0.277-3.634-0.447-5.57-0.248
					c-3.872,0.291-7.962,1.652-11.701,4.026c-3.69,2.418-7.057,5.918-8.978,10.351l-0.131,0.301l-0.145-0.284
					c-1.212-2.382-3.362-4.332-5.976-5.53c-2.605-1.235-5.674-1.664-8.756-1.374c-3.089,0.284-6.197,1.245-9.124,2.698
					c-1.473,0.709-2.895,1.561-4.261,2.515c-1.369,0.95-2.681,2.012-3.899,3.187c-2.463,2.329-4.585,5.085-6.245,8.134
					c-1.646,3.052-2.824,6.414-3.042,9.934c-0.146,1.75-0.158,3.524-0.015,5.295c0.129,1.771,0.368,3.547,0.742,5.304
					c0.717,3.519,1.88,7.002,3.598,10.248l0.104,0.196l-0.225,0.079c-1.66,0.582-3.118,1.712-4.339,3.021
					c-1.231,1.311-2.295,2.787-3.191,4.357c-0.886,1.575-1.655,3.231-2.139,4.966L80.865,213l-0.122,0.665L80.503,215
					c-0.125,0.894-0.205,1.796-0.274,2.698c-0.17,3.616,0.33,7.265,1.444,10.74c1.125,3.475,2.919,6.745,5.235,9.643
					c2.477,3.099,5.64,5.611,9.145,7.428c3.551,1.741,7.429,2.812,11.359,3.133c3.93,0.302,7.897-0.019,11.648-1.025
					c3.748-1.012,7.286-2.638,10.369-4.795l0.136-0.095l0.115,0.107c3.576,3.356,8.133,5.536,12.866,6.519
					c4.737,0.984,9.686,0.8,14.219-0.555c4.533-1.371,8.571-3.914,11.782-7.061c1.596-1.588,2.989-3.323,4.17-5.149
					c0.604-0.907,1.104-1.86,1.609-2.804c0.443-0.968,0.895-1.927,1.231-2.918c0.697-1.971,1.208-3.975,1.405-5.978
					c0.234-1.984,0.172-4.031,0.948-5.932c0.383-0.944,0.997-1.788,1.717-2.491c0.719-0.712,1.525-1.303,2.335-1.861
					c1.629-1.099,3.225-2.159,4.585-3.456l0.522-0.468l0.484-0.501c0.319-0.334,0.639-0.667,0.956-0.999
					c0.572-0.713,1.196-1.379,1.691-2.126c1.084-1.432,1.914-2.976,2.682-4.496c1.435-3.092,2.264-6.264,2.542-9.304
					c0.254-3.042-0.06-5.945-0.804-8.544c-0.743-2.604-1.902-4.896-3.238-6.854c-2.68-3.938-6.033-6.492-8.952-8.119
					c-2.936-1.646-5.502-2.36-7.238-2.716c-0.857-0.22-1.556-0.267-2-0.349C172.743,166.604,172.521,166.565,172.521,166.565z"/>
			</g>
		</g>
	</g>
	<g>
		
			<ellipse transform="matrix(-0.4438 -0.8961 0.8961 -0.4438 -4.735 411.1733)" fill="#263238" cx="125.24" cy="207.056" rx="3.398" ry="3.566"/>
		
			<ellipse transform="matrix(-0.4437 -0.8962 0.8962 -0.4437 19.1417 413.4633)" fill="#263238" cx="137.894" cy="200.791" rx="3.397" ry="3.565"/>
		
			<ellipse transform="matrix(-0.4438 -0.8961 0.8961 -0.4438 43.0524 415.7693)" fill="#263238" cx="150.547" cy="194.525" rx="3.395" ry="3.566"/>
	</g>
</g>
<ellipse fill="#FFFFFF" cx="240.235" cy="229.532" rx="6.752" ry="6.031"/>
<ellipse fill="#FFFFFF" cx="218.182" cy="226.45" rx="7.895" ry="7.081"/>
<ellipse fill="#FFFFFF" cx="194.318" cy="222.263" rx="8.498" ry="7.801"/>
<circle fill="#F5F5F5" cx="290.462" cy="199.315" r="28.186"/>
<g>
	<g>
		<path fill="#25995C" d="M248.899,308.62c0,0-36.759,10.461-43.594,39.008c-6.472,27.041-19.74,86.633-19.74,86.633
			s51.661-2.639,71.911-9.59L248.899,308.62z"/>
		<g>
			<g>
				<g>
					<path fill="#F8BF9D" d="M408.897,300.573c-1.965-1.267-28.067-6.711-28.067-6.711l-62.942,1.646l-22.544,4.168
						c0,0-4.176,70.121-3.55,71.389c0.626,1.266,29.737,25.325,30.969,26.594c1.23,1.266,61.369-18.996,61.369-18.996l39.66-71.336
						L408.897,300.573z"/>
				</g>
				<g>
					<g>
						<path fill="#F8BF9D" d="M559.223,492.516c0,0,10.736-15.457,1.056-34.699c-9.595-19.076-97.065-131.902-97.065-131.902
							s-33.25,27.285-31.421,58.933l14.015,35.106l56.791,54.949L559.223,492.516z"/>
					</g>
				</g>
				<g>
					<path fill="#25995C" d="M401.526,297.78c3.158,0,45.315,9.349,59.607,21.511c15.141,12.89,60.229,69.045,60.229,69.045
						l-66.36,47.225l-6.999-9.404l-11.208,70.566c0,0,28.898,78.145,32.688,107.902l-251.057-0.533c0,0,21.745-65.203,30.762-86.326
						c1.768-4.139-17.087-68.818-16.997-85.859c0.146-27.406,7.946-81.691,7.946-81.691l8.762-41.594l60.281-11.502
						c0,0,7.995,34.147,41.443,34.147C389.988,331.266,401.526,297.78,401.526,297.78z"/>
				</g>
			</g>
		</g>
		<g opacity="0.3">
			<path d="M467.146,589.973c-0.278-3.615-0.554-7.232-0.835-10.848l-42.677-18.063h-33.382c0.079,2.861,2.141,5.365,4.624,6.775
				c2.48,1.41,5.352,1.928,8.16,2.436c2.81,0.508,5.681,1.049,8.141,2.5c-2.181,0.998-4.19,2.367-5.917,4.033
				c4.481,3.938,11.327,2.654,17.135,3.998c9.367,2.166,15.67,11.145,24.582,14.756c5.107,2.068,10.958,2.229,16.172,0.439
				c1.489-0.512,3.045-1.287,3.697-2.727C467.308,592.258,467.232,591.088,467.146,589.973z"/>
		</g>
		<g>
			<path fill="#263238" d="M442.975,366.19c0.027-0.007,0.133,0.331,0.313,0.982c0.188,0.73,0.438,1.681,0.746,2.859
				c0.33,1.241,0.698,2.77,1.04,4.561c0.358,1.789,0.813,3.818,1.146,6.093c0.182,1.137,0.373,2.323,0.571,3.562
				c0.184,1.239,0.317,2.537,0.484,3.877c0.368,2.678,0.565,5.561,0.827,8.586c0.391,6.063,0.563,12.744,0.369,19.752
				c-0.442,14.027-2.183,26.629-3.804,35.66c-0.811,4.518-1.554,8.158-2.136,10.656c-0.279,1.188-0.504,2.143-0.679,2.877
				c-0.16,0.654-0.259,0.998-0.284,0.992c-0.026-0.006,0.021-0.359,0.131-1.025c0.138-0.742,0.316-1.707,0.535-2.904
				c0.49-2.516,1.148-6.166,1.888-10.688c1.48-9.041,3.125-21.615,3.565-35.593c0.194-6.981,0.045-13.638-0.306-19.681
				c-0.24-3.018-0.412-5.889-0.75-8.561c-0.155-1.337-0.275-2.631-0.442-3.869c-0.18-1.234-0.354-2.42-0.519-3.556
				c-0.293-2.272-0.71-4.302-1.025-6.092c-0.304-1.796-0.627-3.33-0.909-4.579c-0.25-1.191-0.45-2.15-0.605-2.889
				C443.006,366.549,442.948,366.196,442.975,366.19z"/>
		</g>
		<g>
			<path fill="#263238" d="M242.915,371.439c0.025-0.002,0.085,0.347,0.174,1.011c0.09,0.745,0.206,1.713,0.35,2.913
				c0.301,2.53,0.646,6.201,1.036,10.739c0.769,9.081,1.405,21.659,1.823,35.547c0.419,13.895,0.966,26.455,1.592,35.537
				c0.327,4.473,0.595,8.119,0.788,10.754c0.084,1.205,0.152,2.176,0.204,2.926c0.037,0.67,0.045,1.021,0.018,1.023
				c-0.025,0.004-0.085-0.346-0.174-1.008c-0.09-0.748-0.205-1.715-0.35-2.916c-0.3-2.527-0.647-6.199-1.036-10.738
				c-0.769-9.08-1.403-21.658-1.822-35.553c-0.419-13.887-0.967-26.449-1.593-35.53c-0.328-4.472-0.595-8.121-0.788-10.754
				c-0.084-1.203-0.151-2.177-0.203-2.925C242.895,371.795,242.887,371.442,242.915,371.439z"/>
		</g>
		<g>
			<path fill="#263238" d="M394.479,507.368c0.008,0.025-0.314,0.127-0.94,0.299c-0.703,0.184-1.61,0.418-2.734,0.709
				c-2.381,0.613-5.843,1.406-10.14,2.303c-8.593,1.797-20.563,3.846-33.896,5.197c-13.339,1.338-25.478,1.723-34.254,1.674
				c-4.39-0.02-7.941-0.104-10.393-0.23c-1.157-0.061-2.096-0.107-2.821-0.148c-0.645-0.043-0.981-0.076-0.98-0.104
				c0-0.027,0.339-0.047,0.986-0.055c0.727,0,1.662,0.002,2.824,0.004c2.45,0.031,6,0.031,10.381-0.02
				c8.763-0.094,20.869-0.566,34.179-1.898c13.302-1.35,25.259-3.307,33.867-4.963c4.305-0.826,7.78-1.535,10.174-2.055
				c1.142-0.232,2.06-0.422,2.771-0.566C394.138,507.391,394.473,507.34,394.479,507.368z"/>
		</g>
	</g>
	<g>
		<g>
			<g>
				<g>
					<path fill="#263238" d="M414.572,104.238c10.916-8.299,32.992-2.621,37.073,4.941c8.515-2.592,18.61,3.006,20.945,11.615
						c7.604,3.219,15.211,6.438,22.814,9.659c3.892,1.646,7.953,3.422,10.562,6.753c2.607,3.331,3.113,8.722-0.063,11.51
						c7.97,3.75,8.933,16.87,1.591,21.747c2.752,4.246,0.837,10.756-3.769,12.828c5.101,9.118,8.63,19.115,10.388,29.419
						c0.738,4.312,1.094,9.033-1.145,12.786c-2.241,3.754-8.052,5.545-11.062,2.377c1.771,3.706,1.103,8.448-1.625,11.518
						c4.006,0.85,4.046,7.31,0.735,9.725c-3.311,2.416-7.858,1.887-11.864,1.041c-4.006-0.847-8.328-1.871-12.059-0.184
						c-0.078,1.233,0.249,2.112,0.836,2.805c5.866,6.923,6.021,16.993-0.509,23.289c-0.606,0.583-1.167,1.121-1.666,1.605
						c-2.948,2.883-9.281,4.844-13.219,6.048c-9.983,3.061-15.233,1.146-25.665,0.721c1.552,7.083-17.647,18.55-33.87,0.727
						c-39.555,3.109-67.426,1.89-106.446-5.292c-5.567-1.025-12.117-3.03-13.655-8.492c-4.733,0.355-9.215-2.655-11.938-6.554
						c-2.726-3.898-4.022-8.594-5.271-13.187c-9.153-4.392-14.846-15.095-13.379-25.164c-5.58-6.329-8.314-15.088-7.333-23.478
						c-8.838-4.613-11.737-17.768-5.66-25.685c4.154-11.137,10.159-21.576,17.692-30.759c-6.123-2.576-6.921-11.649-3.184-17.153
						c3.735-5.502,10.258-8.271,16.419-10.758c-5.008,0.383-8.049-6.401-6.019-11.005c2.032-4.603,6.969-7.118,11.674-8.875
						c6.896-2.574,14.104-4.307,21.413-5.149c3.834-7.996,16.349-15.577,24.904-17.84
						C356.735,66.658,379.669,67.002,414.572,104.238"/>
				</g>
			</g>
			<g>
				<g>
					<path fill="#F8BF9D" d="M314.989,148.344c6.598-21.422,27.385-44.637,48.451-37.121l63.39,33.417
						c6.4,2.284,9.991,9.096,8.271,15.685L397.963,304.78c-4.84,18.823-22.222,31.633-41.586,30.645l0,0
						c-24.805-1.266-42.732-24.276-37.967-48.715c1.958-10.042,3.408-17.59,3.395-17.543c0,0-26.606-11.313-23.633-48.958
						C299.65,201.487,307.659,172.142,314.989,148.344z"/>
				</g>
			</g>
			<g>
				<g>
					<g>
						<g>
							<g>
								<g>
									<g>
										<g>
											<g>
												<g>
													<g>
														<g>
															<g>
																<g>
																	<g>
																		<g>
																			<g>
																				<g>
																					<g>
																						<path fill="#263238" d="M322.948,183.688c-0.677,2.435,0.822,5.017,3.348,5.772
																							c2.517,0.753,5.107-0.603,5.786-3.038c0.678-2.434-0.818-5.02-3.338-5.772
																							C326.221,179.893,323.627,181.253,322.948,183.688z"/>
																					</g>
																				</g>
																			</g>
																		</g>
																	</g>
																</g>
															</g>
														</g>
													</g>
												</g>
											</g>
										</g>
									</g>
								</g>
								<g>
									<g>
										<g>
											<g>
												<g>
													<g>
														<g>
															<g>
																<g>
																	<g>
																		<g>
																			<g>
																				<g>
																					<g>
																						<g>
																							<path fill="#263238" d="M317.688,165.268c0.429,0.745,4.569-1.013,9.558,0.206
																								c4.999,1.146,8.041,4.605,8.732,4.125c0.33-0.208,0.006-1.444-1.309-2.993
																								c-1.288-1.54-3.697-3.313-6.809-4.051c-3.114-0.734-6.005-0.218-7.791,0.593
																								C318.254,163.957,317.472,164.928,317.688,165.268z"/>
																						</g>
																					</g>
																				</g>
																			</g>
																		</g>
																	</g>
																</g>
															</g>
														</g>
													</g>
												</g>
											</g>
										</g>
									</g>
								</g>
							</g>
							<g>
								<g>
									<g>
										<g>
											<g>
												<g>
													<g>
														<g>
															<g>
																<g>
																	<g>
																		<g>
																			<g>
																				<g>
																					<g>
																						<path fill="#263238" d="M368.786,195.216c-0.681,2.434,0.821,5.017,3.343,5.771
																							c2.518,0.753,5.111-0.604,5.791-3.037c0.676-2.434-0.824-5.02-3.343-5.774
																							C372.057,191.421,369.461,192.78,368.786,195.216z"/>
																					</g>
																				</g>
																			</g>
																		</g>
																	</g>
																</g>
															</g>
														</g>
													</g>
												</g>
											</g>
										</g>
									</g>
								</g>
								<g>
									<g>
										<g>
											<g>
												<g>
													<g>
														<g>
															<g>
																<g>
																	<g>
																		<g>
																			<g>
																				<g>
																					<g>
																						<g>
																							<path fill="#263238" d="M366.521,178.057c0.431,0.745,4.576-1.011,9.56,0.207
																								c4.997,1.146,8.042,4.605,8.73,4.125c0.333-0.209,0.015-1.442-1.306-2.993
																								c-1.292-1.541-3.697-3.314-6.813-4.053c-3.112-0.733-6.002-0.217-7.788,0.594
																								C367.091,176.746,366.304,177.717,366.521,178.057z"/>
																						</g>
																					</g>
																				</g>
																			</g>
																		</g>
																	</g>
																</g>
															</g>
														</g>
													</g>
												</g>
											</g>
										</g>
									</g>
								</g>
							</g>
							<g>
								<g>
									<g>
										<g>
											<g>
												<g>
													<g>
														<g>
															<g>
																<g>
																	<g>
																		<g>
																			<g>
																				<g>
																					<g>
																						<path fill="#263238" d="M339.487,210.786c0.092-0.277-2.88-1.565-7.754-3.424
																							c-1.242-0.44-2.387-0.984-2.393-1.909c-0.077-0.996,0.786-2.244,1.761-3.58
																							c1.942-2.804,3.977-5.741,6.109-8.821c8.562-12.585,15.09-23.061,14.583-23.402
																							c-0.51-0.341-7.864,9.583-16.43,22.171c-2.078,3.111-4.066,6.077-5.962,8.915
																							c-0.832,1.335-2.058,2.783-1.869,4.856c0.115,1.036,0.885,1.955,1.647,2.373
																							c0.757,0.448,1.471,0.635,2.093,0.824C336.267,210.286,339.4,211.067,339.487,210.786z"/>
																					</g>
																				</g>
																			</g>
																		</g>
																	</g>
																</g>
															</g>
														</g>
													</g>
												</g>
											</g>
										</g>
									</g>
								</g>
							</g>
							<g>
								<g>
									<g>
										<g>
											<g>
												<g>
													<g>
														<g>
															<g>
																<g>
																	<g>
																		<g>
																			<g>
																				<g>
																					<path fill="#F69A6C" d="M321.805,269.166c0,0,23.951,7.451,51.548-1.248c0,0-17.738,22.064-53.117,9.927
																						L321.805,269.166z"/>
																				</g>
																			</g>
																		</g>
																	</g>
																</g>
															</g>
														</g>
													</g>
												</g>
											</g>
										</g>
									</g>
								</g>
							</g>
						</g>
					</g>
				</g>
				<g>
					<g>
						<g>
							<g>
								<g>
									<g>
										<g>
											<g>
												<g>
													<g>
														<g>
															<g>
																<g>
																	<g>
																		<path fill="#263238" d="M369.268,156.924c0.166,1.481,5.304,2.039,10.987,4.162
																			c5.729,2.008,10.036,4.868,11.106,3.835c0.487-0.501-0.029-1.978-1.622-3.758
																			c-1.576-1.772-4.293-3.751-7.715-4.992c-3.423-1.236-6.774-1.453-9.116-1.1
																			C370.551,155.42,369.212,156.228,369.268,156.924z"/>
																	</g>
																</g>
															</g>
														</g>
													</g>
												</g>
											</g>
										</g>
									</g>
								</g>
							</g>
						</g>
					</g>
				</g>
				<g>
					<g>
						<g>
							<g>
								<g>
									<g>
										<g>
											<g>
												<g>
													<g>
														<g>
															<g>
																<g>
																	<g>
																		<path fill="#263238" d="M323.585,148.474c0.604,1.347,4.325,1,8.474,1.942c4.179,0.798,7.452,2.609,8.543,1.615
																			c0.493-0.491,0.215-1.763-1.056-3.209c-1.252-1.435-3.563-2.922-6.425-3.522c-2.86-0.595-5.569-0.161-7.287,0.656
																			C324.092,146.77,323.33,147.825,323.585,148.474z"/>
																	</g>
																</g>
															</g>
														</g>
													</g>
												</g>
											</g>
										</g>
									</g>
								</g>
							</g>
						</g>
					</g>
				</g>
			</g>
			<g>
				<g>
					<path fill="#263238" d="M295.187,162.727c1.454-5.665,4.379-11.145,9.104-14.574c2.59-1.879,5.646-3.098,8.031-5.23
						c5.155-4.609,6.027-12.23,9.043-18.459c3.891-8.027,11.874-13.922,20.673-15.265c7.322-1.118,15.016,0.723,22.1-1.444
						c5.237-1.601,9.7-5.281,15.021-6.569c10.365-2.509,20.458,4.54,28.412,11.661c0.396,7.506-5.324,12.823-10.831,17.923
						c-5.506,5.101-13.323,7.588-20.758,6.6c-5.767-0.765-12.173-3.353-16.97-0.056c-5.046,3.467-4.876,11.341-9.293,15.585
						c-6.315,6.064-17.064,1.197-25.315,4.098c-6.371,2.241-10.104,8.637-14.146,14.06c-4.039,5.425-10.23,10.696-16.791,9.091
						C293.594,174.299,293.729,168.39,295.187,162.727z"/>
				</g>
			</g>
			<g>
				<g>
					<path fill="#263238" d="M390.82,123.11c16.703,2.989,32.818,9.264,47.156,18.36c4.272,2.71,8.611,5.941,10.429,10.673
						c1.601,4.161,0.986,8.82,0.087,13.185c-2.815,13.672-11.57,29.373-19.236,41.028l-19.055,6.917
						c-12.54-5.679-2.093-27.256,0.751-38.536c-8.392-5.824-12.908-16.769-11.08-26.834
						C393.297,141.607,389.854,132.173,390.82,123.11z"/>
				</g>
			</g>
			<g>
				<g>
					<g>
						<g>
							<g>
								<g>
									<g>
										<path fill="#F8BF9D" d="M411.391,208.396c2.037-7.735,11.928-7.387,17.864-2.039c3.257,2.935,5.185,7.86,3.097,16.088
											c-5.571,21.94-26.393,11.808-26.271,11.17C406.156,233.216,409.007,217.452,411.391,208.396z"/>
									</g>
								</g>
							</g>
						</g>
					</g>
				</g>
			</g>
			<g>
				<g>
					<g>
						<g>
							<g>
								<g>
									<g>
										<g>
											<path fill="#F69A6C" d="M414.873,227.006c0.116-0.044,0.316,0.366,0.886,0.826c0.554,0.449,1.585,0.924,2.834,0.787
												c2.528-0.262,5.409-3.444,6.519-7.371c0.564-1.983,0.628-3.991,0.324-5.746c-0.263-1.775-1.012-3.161-2.122-3.665
												c-1.091-0.563-2.093-0.077-2.517,0.475c-0.45,0.538-0.422,1.012-0.547,1.019c-0.078,0.04-0.378-0.487,0.027-1.348
												c0.203-0.413,0.591-0.865,1.212-1.157c0.631-0.293,1.461-0.314,2.249-0.019c1.658,0.548,2.781,2.492,3.119,4.418
												c0.426,1.957,0.4,4.225-0.234,6.453c-1.26,4.385-4.567,7.945-7.965,8.055c-1.641,0.011-2.808-0.783-3.339-1.469
												C414.78,227.547,414.788,227.027,414.873,227.006z"/>
										</g>
									</g>
								</g>
							</g>
						</g>
					</g>
				</g>
			</g>
			<g>
				<g>
					<path fill="#445A64" d="M423.037,243.039c1.099,0.256,2.306,0.416,3.598,0.461c1.291,0.043,2.681-0.017,4.103-0.419
						l-0.24-0.186c-0.105,3.114,1.246,6.765,4.297,9.196c3.002,2.428,7.771,3.225,11.872,1.23l-0.362-0.139
						c0.452,1.118,1.388,2.041,2.523,2.506c1.124,0.5,2.408,0.605,3.642,0.4c1.238-0.208,2.456-0.821,3.34-1.786
						c0.891-0.949,1.503-2.152,1.834-3.434c0.659-2.57,0.229-5.415-0.975-7.871c-1.179-2.488-2.947-4.669-4.729-6.834l-0.14,0.506
						c2.08-0.729,3.695-2.517,4.534-4.571c0.852-2.065,1.084-4.408,0.637-6.67c-0.461-2.254-1.509-4.364-2.8-6.29
						c-1.295-1.933-2.828-3.702-4.373-5.466l-0.063,0.507c1.96-1.32,3.134-3.643,3.431-6.013c0.312-2.382-0.112-4.887-1.224-7.077
						c-2.14-4.191-5.884-7.016-9.327-9.657l0.103,0.415c2.14-4.626,1.706-10.148-0.853-14.254c-2.571-4.117-7.056-6.701-11.58-7.046
						l0.267,0.446c1.646-3.809,0.953-8.114-0.897-11.379c-1.843-3.304-4.979-5.766-8.455-6.427l0.223,0.333
						c0.785-4.066-0.798-7.996-3.146-10.653c-2.361-2.707-5.628-4.275-8.755-4.367l0.212,0.267c0.352-2.173-0.075-4.235-0.69-6.042
						c-0.641-1.812-1.516-3.417-2.57-4.727c-2.031-2.701-4.703-4.16-6.934-4.749c-0.279-0.074-0.555-0.148-0.819-0.22
						c-0.271-0.045-0.535-0.061-0.79-0.091c-0.514-0.037-0.986-0.14-1.434-0.111c-0.886,0.074-1.643,0.029-2.23,0.185
						c-0.565,0.123-1.006,0.219-1.337,0.29c-0.3,0.068-0.449,0.108-0.447,0.118c0.003,0.009,0.16-0.009,0.462-0.057
						c0.33-0.056,0.773-0.132,1.341-0.228c0.585-0.135,1.336-0.068,2.208-0.123c0.438-0.018,0.908,0.092,1.41,0.138
						c0.249,0.035,0.512,0.053,0.775,0.104c0.259,0.075,0.523,0.15,0.799,0.229c2.175,0.614,4.76,2.066,6.721,4.73
						c1.021,1.29,1.862,2.871,2.47,4.643c0.59,1.764,0.977,3.786,0.633,5.826l-0.043,0.256l0.255,0.008
						c2.99,0.108,6.122,1.634,8.383,4.257c2.253,2.577,3.739,6.364,2.977,10.204l-0.055,0.28l0.278,0.055
						c3.287,0.638,6.277,2.994,8.036,6.17c1.768,3.138,2.398,7.252,0.842,10.828l-0.183,0.414l0.45,0.034
						c4.316,0.335,8.623,2.829,11.063,6.76c2.435,3.912,2.843,9.215,0.802,13.614l-0.118,0.251l0.219,0.166
						c3.443,2.64,7.093,5.424,9.132,9.425c1.046,2.063,1.445,4.439,1.151,6.676c-0.277,2.229-1.361,4.346-3.137,5.542l-0.318,0.215
						l0.257,0.291c3.07,3.477,6.133,7.106,7.034,11.438c0.424,2.121,0.206,4.349-0.591,6.282c-0.785,1.933-2.265,3.556-4.143,4.223
						l-0.433,0.152l0.292,0.353c1.786,2.158,3.522,4.297,4.664,6.691c1.168,2.363,1.566,5.038,0.959,7.458
						c-0.565,2.399-2.358,4.484-4.696,4.813c-2.238,0.428-4.783-0.519-5.578-2.547l-0.104-0.267l-0.259,0.127
						c-3.884,1.917-8.477,1.188-11.354-1.114c-2.938-2.31-4.281-5.826-4.204-8.827l0.005-0.258l-0.248,0.073
						c-1.354,0.398-2.72,0.474-3.984,0.443c-1.271-0.028-2.46-0.171-3.542-0.41c-2.176-0.454-3.959-1.192-5.199-2.09
						c-1.238-0.888-1.951-1.9-2.137-2.673c-0.22-0.754-0.196-1.185-0.238-1.18c-0.009,0-0.007,0.103,0.008,0.307
						c0.04,0.198-0.023,0.525,0.134,0.902c0.157,0.802,0.867,1.869,2.115,2.806"/>
				</g>
			</g>
			<g>
				<g>
					<path fill="#445A64" d="M504.441,229.462c0,0,0.438-0.346,1.094-1.178c0.64-0.834,1.504-2.188,2.024-4.165
						c0.512-1.943,0.672-4.59-0.466-7.314c-1.103-2.681-3.483-5.426-7.028-6.675l0.137,0.304c1.369-3.259,1.597-7.412,0.117-11.342
						c-0.711-1.966-1.858-3.863-3.438-5.458c-1.567-1.636-3.627-2.717-5.498-4.036c-0.94-0.662-1.841-1.395-2.566-2.291
						c-0.729-0.894-1.219-1.963-1.492-3.125c-0.572-2.317-0.399-4.894-1.201-7.425c-1.604-4.989-6.494-9.092-12.183-9.326
						l0.311,0.449c1.702-4.926,1.163-10.852-1.798-15.575c-3.085-4.913-8.494-8.007-13.945-8.397l0.3,0.437
						c1.913-6.375-0.515-13.376-5.269-17.111c-4.782-3.764-11.238-4.291-16.124-2.191l0.35,0.104
						c-1.835-2.717-4.317-4.711-6.815-6.236c-2.521-1.503-5.079-2.654-7.586-3.375c-4.986-1.577-9.592-1.847-13.299-1.663
						c-3.719,0.229-6.587,0.966-8.423,1.729c-0.944,0.312-1.586,0.754-2.055,0.959c-0.455,0.237-0.678,0.377-0.678,0.377
						c0.028,0.056,0.949-0.473,2.793-1.173c1.841-0.708,4.692-1.385,8.382-1.563c3.669-0.132,8.229,0.183,13.139,1.778
						c2.472,0.731,4.986,1.885,7.453,3.375c2.442,1.512,4.853,3.478,6.614,6.11l0.134,0.196l0.216-0.092
						c4.696-1.998,10.937-1.457,15.505,2.164c4.537,3.573,6.857,10.334,5.018,16.411l-0.126,0.408l0.424,0.03
						c5.232,0.379,10.459,3.372,13.415,8.09c2.846,4.53,3.369,10.254,1.736,14.985l-0.147,0.434l0.458,0.017
						c5.362,0.203,10.063,4.122,11.588,8.846c0.768,2.372,0.608,4.933,1.211,7.378c0.287,1.221,0.831,2.401,1.623,3.359
						c0.781,0.962,1.733,1.725,2.696,2.396c1.928,1.342,3.941,2.395,5.441,3.947c1.521,1.525,2.639,3.347,3.341,5.244
						c1.452,3.793,1.262,7.818-0.037,10.977l-0.092,0.225l0.229,0.079c3.404,1.167,5.748,3.8,6.847,6.385
						c1.134,2.623,1.021,5.2,0.552,7.117c-0.47,1.943-1.285,3.298-1.886,4.148C504.818,229.057,504.415,229.438,504.441,229.462z"/>
				</g>
			</g>
			<g>
				<g>
					<path fill="#445A64" d="M291.583,194.356c-0.04,0.019,0.58-0.516,0.437-1.803c-0.078-0.625-0.375-1.369-0.938-2.092
						c-0.554-0.741-1.45-1.348-2.468-1.911c-1.009-0.576-2.208-1.123-3.176-2.117c-0.965-0.989-1.604-2.432-1.805-4.045
						c-0.223-1.619-0.03-3.379,0.425-5.189c0.434-1.815,1.093-3.699,1.496-5.775c0.855-4.2-0.098-8.819-0.281-13.666
						c-0.074-2.421,0.19-4.961,1.112-7.355c0.912-2.368,2.673-4.572,5.22-5.461c2.521-0.949,5.382-0.825,8.27-1.128
						c1.444-0.157,2.936-0.433,4.323-1.081c1.407-0.627,2.566-1.739,3.479-2.965c1.838-2.5,2.754-5.493,4.018-8.285
						c0.619-1.401,1.346-2.773,2.347-3.91c0.986-1.152,2.34-1.92,3.816-2.235c2.046-0.348,4.153,0.167,6.286,0.351
						c1.069,0.095,2.179,0.095,3.254-0.177c1.072-0.267,2.075-0.831,2.847-1.595c1.574-1.53,2.413-3.486,3.412-5.22
						c0.95-1.772,2.214-3.286,3.748-4.469c3.039-2.382,6.977-3.372,10.531-2.748c3.565,0.602,6.732,2.58,8.738,5.235l0.243,0.322
						l0.23-0.329c3.904-5.504,9.98-8.338,15.347-8.823c2.707-0.247,5.27,0.109,7.521,0.795c2.255,0.677,4.202,1.691,5.753,2.876
						c3.132,2.396,4.598,5.267,5.313,7.217c0.385,0.982,0.571,1.768,0.695,2.301c0.063,0.244,0.112,0.437,0.158,0.599
						c0.036,0.133,0.059,0.201,0.065,0.2c0.009-0.001,0-0.072-0.021-0.208c-0.033-0.164-0.067-0.362-0.115-0.61
						c-0.095-0.541-0.255-1.34-0.614-2.343c-0.669-1.986-2.107-4.941-5.274-7.429c-1.568-1.229-3.547-2.288-5.84-3.001
						c-2.288-0.723-4.906-1.109-7.686-0.879c-5.498,0.458-11.735,3.314-15.781,8.963l0.474-0.006
						c-2.086-2.789-5.376-4.859-9.102-5.504c-3.731-0.666-7.857,0.362-11.044,2.848c-1.601,1.225-2.955,2.853-3.927,4.66
						c-1.012,1.766-1.854,3.674-3.297,5.06c-1.41,1.448-3.517,1.81-5.573,1.582c-2.063-0.169-4.217-0.718-6.465-0.344
						c-1.634,0.34-3.146,1.208-4.209,2.455c-1.078,1.229-1.826,2.661-2.458,4.087c-1.275,2.84-2.19,5.796-3.933,8.162
						c-0.866,1.165-1.926,2.186-3.224,2.765c-1.284,0.604-2.697,0.874-4.109,1.03c-2.817,0.31-5.735,0.175-8.423,1.189
						c-1.325,0.505-2.549,1.3-3.462,2.35c-0.928,1.037-1.607,2.242-2.096,3.484c-0.953,2.503-1.207,5.12-1.119,7.592
						c0.217,4.929,1.179,9.472,0.372,13.559c-0.375,2.032-1.021,3.918-1.443,5.764c-0.444,1.838-0.63,3.667-0.379,5.343
						c0.223,1.673,0.914,3.188,1.95,4.224c1.042,1.037,2.271,1.565,3.28,2.122c1.024,0.544,1.892,1.105,2.438,1.805
						c0.559,0.682,0.866,1.39,0.96,1.982C292.067,193.795,291.51,194.345,291.583,194.356z"/>
				</g>
			</g>
			<g>
				<g>
					<path fill="#445A64" d="M255.26,151.638c0.01,0.007,0.114-0.119,0.309-0.37c0.212-0.282,0.492-0.653,0.85-1.126
						c0.759-1.032,1.836-2.497,3.213-4.37c1.405-1.889,3.03-4.274,5.187-6.812c2.148-2.491,4.973-5.262,8.952-6.526
						c1.979-0.626,4.172-0.866,6.431-1.388c1.125-0.267,2.276-0.613,3.365-1.186c1.095-0.558,2.084-1.408,2.817-2.458
						c1.496-2.099,2.031-4.705,3.329-6.924c0.654-1.095,1.539-2.075,2.719-2.618c1.161-0.579,2.509-0.789,3.875-0.961
						c1.367-0.177,2.798-0.291,4.206-0.743c1.42-0.41,2.711-1.36,3.632-2.551c1.848-2.439,2.454-5.475,3.557-8.241
						c0.548-1.384,1.215-2.751,2.255-3.787c1.023-1.06,2.477-1.606,3.963-1.634c3.027-0.042,5.961,1.583,9.3,1.701
						c1.671,0.043,3.355-0.492,4.695-1.434c1.352-0.936,2.447-2.12,3.495-3.284c1.046-1.168,2.046-2.346,3.168-3.355
						c1.115-1.013,2.386-1.83,3.796-2.16c2.87-0.704,5.736,0.534,8.349,1.696c2.625,1.173,5.366,2.42,8.265,2.365
						c2.87-0.021,5.508-0.984,7.961-1.918c2.461-0.931,4.815-1.975,7.214-2.36c4.836-0.741,9.464,0.384,13.214,2.129
						c3.787,1.769,6.675,4.349,8.761,6.915c2.098,2.592,3.264,5.249,4.138,7.415c0.737,2.223,1.212,3.989,1.376,5.219
						c0.111,0.58,0.198,1.04,0.265,1.385c0.063,0.311,0.103,0.47,0.113,0.468c0.012,0-0.003-0.162-0.045-0.478
						c-0.047-0.35-0.113-0.813-0.195-1.399c-0.123-1.241-0.557-3.028-1.264-5.287c-0.843-2.2-1.986-4.906-4.088-7.563
						c-2.086-2.628-5.004-5.282-8.848-7.114c-3.813-1.805-8.52-2.991-13.521-2.254c-2.508,0.396-4.876,1.443-7.337,2.359
						c-2.444,0.922-5.022,1.841-7.746,1.85c-2.73,0.047-5.356-1.142-7.998-2.332c-1.332-0.588-2.69-1.201-4.164-1.591
						c-1.462-0.393-3.063-0.536-4.607-0.158c-1.554,0.361-2.93,1.255-4.086,2.307c-1.173,1.051-2.187,2.247-3.228,3.406
						c-1.039,1.155-2.109,2.299-3.372,3.172c-1.258,0.876-2.755,1.349-4.297,1.316c-3.113-0.087-6.042-1.719-9.329-1.699
						c-1.63,0.027-3.287,0.654-4.419,1.834c-1.153,1.152-1.847,2.606-2.408,4.025c-1.113,2.837-1.729,5.826-3.447,8.085
						c-0.857,1.104-1.99,1.949-3.313,2.339c-1.31,0.426-2.708,0.545-4.088,0.729c-1.376,0.181-2.793,0.395-4.067,1.033
						c-1.3,0.602-2.284,1.706-2.965,2.866c-1.35,2.352-1.872,4.931-3.273,6.902c-1.353,2.024-3.662,2.946-5.843,3.455
						c-2.208,0.529-4.418,0.784-6.452,1.443c-4.113,1.342-6.96,4.207-9.099,6.739c-2.148,2.585-3.74,4.994-5.111,6.906
						c-1.332,1.904-2.375,3.395-3.108,4.444c-0.333,0.489-0.596,0.875-0.794,1.166C255.335,151.491,255.25,151.629,255.26,151.638z"
						/>
				</g>
			</g>
			<g>
				<g>
					<path fill="#445A64" d="M283.309,132.992c0.004-0.011-0.126-0.062-0.391-0.148c-0.27-0.047-0.696-0.127-1.229,0.032
						c-1.052,0.285-2.409,1.484-2.962,3.505c-0.264,1.021-0.222,2.174-0.169,3.41c0.05,1.231,0.161,2.583-0.17,3.952
						c-0.334,1.371-1.235,2.633-2.352,3.797c-1.117,1.171-2.466,2.27-3.656,3.691c-1.21,1.37-2.063,3.427-1.632,5.48
						c0.34,2.026,1.403,3.873,1.703,5.924c0.321,2.057-0.509,4.167-1.786,5.992c-1.253,1.86-2.865,3.587-4.146,5.675
						c-0.646,1.039-1.169,2.206-1.408,3.467c-0.239,1.259-0.169,2.58,0.128,3.835c0.619,2.524,1.94,4.783,2.985,7.147
						c1.055,2.332,1.804,4.976,0.979,7.482c-0.78,2.509-2.672,4.575-4.125,6.969c-0.729,1.2-1.352,2.506-1.613,3.918
						c-0.249,1.41-0.116,2.86,0.267,4.192c0.782,2.682,2.29,4.943,3.562,7.205c1.287,2.257,2.39,4.558,2.653,7.034
						c0.349,2.456,0.287,4.966,0.961,7.356c0.336,1.185,0.889,2.329,1.704,3.245c0.813,0.928,1.847,1.561,2.839,2.12
						c0.997,0.561,1.991,1.062,2.855,1.693c0.851,0.651,1.601,1.401,2.221,2.244c1.226,1.699,2.011,3.607,2.708,5.453
						c0.697,1.85,1.327,3.66,2.104,5.322c1.531,3.363,4.053,5.811,6.612,7.187c2.554,1.417,5.062,1.993,7.095,2.1
						c2.044,0.112,3.63-0.151,4.66-0.437c1.033-0.29,1.545-0.53,1.545-0.53c-0.014-0.145-2.136,0.979-6.188,0.7
						c-1.997-0.146-4.446-0.752-6.925-2.167c-2.488-1.386-4.893-3.765-6.361-7.059c-0.749-1.639-1.359-3.436-2.048-5.304
						c-0.689-1.859-1.474-3.817-2.745-5.603c-0.644-0.885-1.434-1.688-2.333-2.381c-0.915-0.676-1.929-1.189-2.907-1.746
						c-0.977-0.555-1.941-1.16-2.67-2.006c-0.742-0.839-1.246-1.884-1.56-3.006c-0.635-2.261-0.575-4.75-0.919-7.272
						c-0.266-2.57-1.428-5.015-2.72-7.278c-1.282-2.28-2.755-4.524-3.488-7.057c-0.359-1.26-0.477-2.591-0.249-3.886
						c0.24-1.292,0.816-2.521,1.522-3.683c1.401-2.327,3.339-4.412,4.19-7.121c0.434-1.34,0.474-2.785,0.235-4.132
						c-0.237-1.354-0.719-2.623-1.252-3.828c-1.073-2.405-2.374-4.637-2.962-7.026c-0.285-1.19-0.349-2.404-0.134-3.563
						c0.217-1.161,0.697-2.257,1.315-3.259c1.225-2.018,2.824-3.748,4.107-5.667c1.303-1.872,2.215-4.175,1.848-6.411
						c-0.347-2.198-1.422-4.03-1.745-5.933c-0.401-1.906,0.337-3.733,1.486-5.081c1.133-1.379,2.469-2.493,3.598-3.699
						c1.125-1.197,2.069-2.539,2.407-4.004c0.332-1.461,0.191-2.835,0.125-4.064c-0.074-1.226-0.128-2.366,0.102-3.328
						c0.489-1.939,1.763-3.128,2.744-3.436C282.75,132.707,283.307,133.058,283.309,132.992z"/>
				</g>
			</g>
			<g>
				<g>
					<path fill="#263238" d="M504.029,228.628c0,0,0.602,0.155,1.786,0.17c1.174-0.002,2.967-0.167,5.053-1.097
						c2.052-0.91,4.469-2.661,5.936-5.628c1.458-2.894,1.968-6.981,0.232-10.828c-0.869-1.903-2.213-3.624-3.538-5.424
						c-1.309-1.793-2.69-3.743-3.114-6.083c-0.475-2.347,0.389-4.807,1.714-6.984c1.311-2.213,3.056-4.28,4.381-6.755
						c2.613-4.931,3.45-11.235,1.583-17.145c-1.845-5.88-6.415-11.174-12.534-13.764l0.099,0.56c1.289-1.221,2.271-2.775,2.86-4.473
						c0.57-1.705,0.81-3.531,0.697-5.345c-0.12-1.812-0.516-3.627-1.271-5.313c-0.754-1.683-1.771-3.243-2.996-4.636
						c-3.681-4.18-8.592-6.791-13.41-8.75c-4.864-1.948-9.879-3.112-14.758-3.559l0.298,0.383
						c0.973-6.003-1.688-12.132-6.233-15.387c-2.242-1.662-4.859-2.662-7.485-3.021c-2.65-0.402-5.229,0.17-7.633,0.5
						c-1.209,0.157-2.408,0.253-3.564,0.121c-1.159-0.11-2.26-0.489-3.266-1.002c-2.023-1.046-3.671-2.59-5.3-4.004
						c-1.614-1.436-3.285-2.758-5.095-3.662c-1.794-0.918-3.646-1.522-5.446-1.845c-3.611-0.665-6.983-0.244-9.681,0.712
						c-2.714,0.949-4.792,2.336-6.298,3.631c-1.511,1.303-2.469,2.522-3.071,3.364c-0.599,0.846-0.834,1.335-0.834,1.335
						c0.028,0.018,0.302-0.449,0.929-1.268c0.627-0.814,1.604-1.998,3.121-3.261c1.513-1.253,3.581-2.591,6.259-3.494
						c2.66-0.908,5.967-1.288,9.497-0.61c1.763,0.33,3.568,0.934,5.313,1.844c1.762,0.895,3.373,2.185,4.978,3.628
						c1.617,1.418,3.274,2.998,5.384,4.104c1.05,0.544,2.218,0.954,3.447,1.076c1.225,0.145,2.47,0.047,3.7-0.106
						c2.458-0.329,4.938-0.869,7.48-0.472c2.524,0.355,5.047,1.325,7.195,2.932c4.352,3.127,6.895,9.035,5.95,14.778l-0.06,0.352
						l0.354,0.032c4.815,0.449,9.764,1.607,14.563,3.533c4.767,1.939,9.588,4.523,13.146,8.57c1.184,1.345,2.168,2.855,2.887,4.46
						c0.72,1.608,1.099,3.347,1.216,5.077c0.106,1.733-0.121,3.47-0.656,5.081c-0.56,1.605-1.479,3.06-2.681,4.201l-0.377,0.359
						l0.478,0.202c5.929,2.496,10.385,7.638,12.183,13.333c1.827,5.729,1.033,11.873-1.49,16.672
						c-1.272,2.407-3.008,4.48-4.339,6.747c-1.347,2.226-2.268,4.857-1.749,7.363c0.473,2.494,1.918,4.485,3.24,6.28
						c1.344,1.799,2.675,3.486,3.526,5.319c1.697,3.688,1.246,7.665-0.143,10.492c-1.393,2.893-3.727,4.634-5.725,5.562
						c-2.032,0.949-3.792,1.151-4.954,1.191C504.643,228.701,504.031,228.592,504.029,228.628z"/>
				</g>
			</g>
			<g>
				<g>
					<path fill="#263238" d="M278.474,116.215c0.012,0.004,0.062-0.135,0.146-0.41c0.092-0.311,0.211-0.713,0.36-1.222
						c0.327-1.12,0.787-2.696,1.373-4.706c0.621-2.033,1.406-4.517,2.533-7.314c1.128-2.789,2.602-5.917,4.786-9.003
						c2.18-3.071,5.116-6.116,8.94-8.344c1.917-1.094,4.062-1.939,6.358-2.399c2.308-0.444,4.751-0.474,7.269-0.646
						c2.513-0.142,5.152-0.591,7.585-1.74c2.429-1.139,4.625-2.775,6.734-4.522c2.12-1.742,4.181-3.616,6.468-5.225
						c2.272-1.625,4.825-2.904,7.599-3.62c5.558-1.491,11.306-1.104,16.656-0.288c5.376,0.876,10.502,2.102,15.268,3.632
						c9.562,3.016,17.6,7.367,23.666,11.891c6.082,4.538,10.076,9.309,12.514,12.761c0.594,0.878,1.154,1.64,1.586,2.333
						c0.405,0.696,0.752,1.292,1.041,1.788c0.271,0.455,0.488,0.816,0.653,1.094c0.15,0.245,0.235,0.368,0.245,0.362
						c0.01-0.004-0.053-0.138-0.183-0.394c-0.149-0.287-0.346-0.659-0.597-1.129c-0.272-0.507-0.604-1.116-0.986-1.827
						c-0.417-0.707-0.959-1.483-1.542-2.378c-2.382-3.518-6.348-8.374-12.439-12.997c-6.073-4.608-14.149-9.037-23.763-12.106
						c-4.794-1.558-9.947-2.802-15.358-3.695c-5.396-0.831-11.229-1.239-16.938,0.29c-2.845,0.732-5.501,2.063-7.813,3.724
						c-2.333,1.646-4.4,3.533-6.503,5.265c-2.094,1.741-4.242,3.343-6.583,4.449c-2.344,1.109-4.86,1.551-7.354,1.702
						c-2.487,0.18-4.963,0.216-7.338,0.683c-2.367,0.486-4.57,1.368-6.524,2.5c-3.908,2.304-6.868,5.426-9.055,8.558
						c-2.192,3.151-3.644,6.321-4.747,9.142c-1.099,2.829-1.85,5.332-2.432,7.381c-0.577,2.053-0.981,3.656-1.251,4.745
						c-0.123,0.517-0.22,0.926-0.295,1.242C278.489,116.069,278.461,116.212,278.474,116.215z"/>
				</g>
			</g>
			<g>
				<g>
					<path fill="#F69A6C" d="M359.146,226.333c0.352-3.026-1.027-6.241-3.572-7.909c-2.544-1.668-6.16-1.594-8.52,0.326
						c-2.243,1.828-3.04,5.239-1.803,7.836c0.521,1.352,1.473,2.537,2.672,3.358c1.531,1.053,3.417,1.54,5.276,1.524
						c1.529-0.013,3.127-0.389,4.251-1.431C358.47,229.098,358.988,227.712,359.146,226.333z"/>
				</g>
			</g>
			<g>
				<g>
					<g>
						<g>
							<g>
								<g>
									<g>
										<g>
											<g>
												<g>
													<g>
														<path fill="#263238" d="M358.237,215.008c-0.839-0.128-1.369,5.521-6.562,9.085
															c-5.184,3.578-11.134,2.391-11.249,3.177c-0.11,0.348,1.237,1.221,3.768,1.523c2.479,0.316,6.184-0.151,9.36-2.331
															c3.167-2.188,4.732-5.354,5.14-7.651C359.125,216.467,358.626,215.01,358.237,215.008z"/>
													</g>
												</g>
											</g>
										</g>
									</g>
								</g>
							</g>
						</g>
					</g>
				</g>
			</g>
		</g>
	</g>
	<g>
		<g opacity="0.3">
			<path d="M253.148,511.903c14.902,1.131,28.955-8.588,37.251-21.051c8.297-12.465,11.938-27.375,15.429-41.945
				c6.208-25.883,12.414-51.771,18.621-77.654c2.893-12.06,6.738-25.44,17.495-31.563c3.393-1.931,7.317-3.011,10.219-5.618
				c2.902-2.609,4.234-7.679,1.344-10.3c-2.566-2.323-6.602-1.323-9.829-0.081c-9.943,3.827-19.716,8.877-26.844,16.811
				c-7.124,7.936-11.223,19.213-8.461,29.524"/>
		</g>
		<path fill="#F8BF9D" d="M267.466,363.44c0,0-16.634,33.051-31.953,65.4l-33.48,4.543c0,0-2.163,66.113,28.266,77.578
			c33.592,12.656,50.814-27.406,61.596-57.457c8.401-23.414,22.989-73.928,26.58-88.078L267.466,363.44z"/>
		<g>
			<path fill="#F69A6C" d="M243.886,412.724c0.046,0.026-0.234,0.644-0.782,1.729c-0.546,1.092-1.368,2.653-2.396,4.573
				c-2.058,3.843-4.971,9.106-8.062,14.983c-3.087,5.881-5.69,11.301-7.406,15.297c-0.867,1.994-1.534,3.623-1.981,4.754
				c-0.45,1.133-0.725,1.748-0.776,1.732c-0.051-0.016,0.125-0.67,0.489-1.834c0.361-1.168,0.953-2.836,1.758-4.865
				c1.592-4.068,4.13-9.553,7.227-15.445c3.098-5.895,6.089-11.121,8.27-14.895c1.041-1.771,1.917-3.26,2.614-4.447
				C243.468,413.263,243.838,412.7,243.886,412.724z"/>
		</g>
		<g>
			<path fill="#F8BF9D" d="M314.309,380.526c3.591-14.15,10.777-38.332,15.141-42.964c4.36-4.632,31.048-15.951,33.871-20.838
				c2.823-4.89-0.771-7.972-0.771-7.972s0.514-1.291,1.284-7.469c0.768-6.174-3.338-7.973-3.338-7.973l1.542-4.632
				c2.053-8.747-5.903-7.461-5.134-9.262c0.769-1.802,30.28-10.29,32.331-11.32c2.053-1.029,4.876-5.144,1.285-9.003
				c-3.595-3.86-30.539,4.115-40.288,7.46c-9.752,3.345-26.43,12.092-28.226,8.232c-1.798-3.858-0.771-19.296-2.053-24.697
				c-1.284-5.403-5.391-8.232-8.47-7.204c-3.078,1.03-1.026,9.776-1.026,14.406c0,4.631-0.771,14.15-6.413,25.985
				c-5.646,11.833-7.443,27.27-7.443,27.27l-29.804,54.011"/>
			<g>
				<path fill="#F69A6C" d="M266.799,364.558c0,0,0.154-0.336,0.491-0.972c0.351-0.657,0.853-1.592,1.507-2.813
					c1.353-2.487,3.327-6.112,5.864-10.78c5.135-9.367,12.546-22.883,21.698-39.578l-0.032,0.104
					c0.601-4.65,1.532-9.463,2.835-14.402c1.269-4.937,3.095-9.985,5.474-14.91c2.184-4.991,3.937-10.399,4.832-16.133
					c0.451-2.86,0.708-5.815,0.611-8.77c-0.155-2.968-0.67-5.983-0.641-9.114c-0.003-0.782,0.083-1.577,0.243-2.375
					c0.194-0.772,0.55-1.675,1.41-2.126c1.633-0.736,3.435-0.27,4.813,0.599c2.818,1.813,4.297,5.109,4.689,8.334
					c0.743,6.466,0.334,13.068,1.023,19.68c0.102,0.82,0.229,1.637,0.427,2.42c0.118,0.354,0.233,0.81,0.403,1.046
					c0.177,0.241,0.453,0.429,0.822,0.497c1.482,0.307,3.2-0.173,4.791-0.583c3.229-0.931,6.403-2.22,9.589-3.52
					c3.188-1.306,6.377-2.679,9.646-3.944c3.282-1.268,6.647-2.305,10.034-3.351c7.84-2.343,15.643-4.492,23.516-5.714
					c1.973-0.277,3.95-0.516,5.958-0.461c0.999,0.039,2.017,0.097,3.021,0.506c0.489,0.189,1.006,0.61,1.279,1.004
					c0.342,0.38,0.61,0.826,0.862,1.275c1.037,1.847,0.765,4.234-0.382,5.908c-0.56,0.854-1.289,1.596-2.233,2.083
					c-0.952,0.399-1.831,0.658-2.748,0.969c-7.262,2.327-14.39,4.47-21.246,6.805c-1.713,0.585-3.407,1.182-5.062,1.829
					c-0.822,0.33-1.65,0.663-2.404,1.061c-0.187,0.104-0.371,0.203-0.511,0.315c-0.104,0.062-0.096,0.095-0.136,0.111
					c-0.026,0.035-0.029,0.094-0.032,0.104c-0.034,0.075,0.423,0.353,0.795,0.489c0.799,0.326,1.664,0.655,2.427,1.185
					c0.762,0.523,1.427,1.253,1.791,2.119c0.755,1.746,0.519,3.627,0.149,5.309l-0.004,0.014l-0.005,0.017
					c-0.528,1.585-1.037,3.112-1.543,4.628l-0.19-0.426c1.419,0.735,2.403,1.964,2.979,3.346c0.596,1.378,0.706,2.882,0.609,4.309
					c-0.122,1.432-0.342,2.78-0.539,4.152c-0.229,1.373-0.415,2.686-0.829,4.074l-0.093-0.371c1.383,1.318,2.091,3.199,1.933,5.039
					c-0.172,1.822-0.981,3.533-2.328,4.72c-2.63,2.271-5.558,3.862-8.355,5.481c-5.646,3.17-11.128,5.898-16.155,8.674
					c-2.51,1.387-4.949,2.744-7.08,4.322c-1.038,0.812-1.894,1.76-2.497,2.903c-0.347,0.537-0.627,1.11-0.912,1.674
					c-0.297,0.558-0.565,1.12-0.813,1.688c-2.045,4.52-3.531,8.846-4.854,12.742c-2.602,7.815-4.367,14.039-5.567,18.278
					c-0.584,2.104-1.031,3.724-1.343,4.845c-0.3,1.094-0.479,1.653-0.479,1.653s0.113-0.575,0.382-1.682
					c0.29-1.126,0.705-2.753,1.248-4.869c1.142-4.259,2.851-10.5,5.401-18.347c1.299-3.914,2.761-8.252,4.797-12.814
					c0.245-0.572,0.516-1.145,0.812-1.709c0.287-0.57,0.567-1.15,0.921-1.707c0.601-1.16,1.527-2.214,2.604-3.055
					c2.177-1.625,4.611-2.99,7.125-4.395c5.027-2.803,10.505-5.553,16.118-8.729c2.775-1.61,5.71-3.236,8.225-5.419
					c1.214-1.057,1.971-2.664,2.119-4.307c0.146-1.639-0.531-3.356-1.723-4.49l-0.151-0.146l0.059-0.228
					c0.655-2.49,1.011-5.313,1.307-8.031c0.088-1.349-0.023-2.745-0.565-3.996c-0.504-1.242-1.463-2.373-2.625-2.975l-0.283-0.147
					l0.094-0.281c0.502-1.518,1.008-3.047,1.533-4.633l-0.008,0.031c0.358-1.611,0.543-3.366-0.114-4.856
					c-0.313-0.741-0.874-1.351-1.549-1.816c-0.682-0.471-1.469-0.775-2.299-1.11c-0.209-0.089-0.422-0.182-0.643-0.308
					c-0.198-0.133-0.51-0.309-0.592-0.746c-0.018-0.209,0.019-0.377,0.104-0.53c0.102-0.153,0.238-0.307,0.33-0.356
					c0.21-0.164,0.412-0.272,0.617-0.386c0.814-0.432,1.646-0.762,2.481-1.1c1.673-0.659,3.374-1.26,5.093-1.851
					c6.866-2.349,14.004-4.504,21.242-6.832c0.892-0.297,1.842-0.589,2.653-0.933c0.762-0.39,1.44-1.054,1.926-1.813
					c1.015-1.506,1.239-3.52,0.339-5.132c-0.454-0.773-1.001-1.631-1.76-1.922c-0.813-0.34-1.791-0.412-2.741-0.445
					c-1.922-0.052-3.879,0.182-5.825,0.456c-7.791,1.211-15.587,3.357-23.396,5.693c-3.378,1.042-6.741,2.079-9.983,3.332
					c-3.247,1.259-6.438,2.629-9.632,3.935c-3.198,1.302-6.379,2.595-9.677,3.546c-0.826,0.229-1.663,0.432-2.519,0.571
					c-0.855,0.129-1.738,0.235-2.669,0.014c-0.454-0.085-0.953-0.364-1.264-0.802c-0.175-0.234-0.228-0.444-0.306-0.653
					c-0.069-0.211-0.165-0.423-0.21-0.635c-0.212-0.847-0.342-1.69-0.445-2.53c-0.693-6.711-0.278-13.324-1.004-19.669
					c-0.366-3.09-1.787-6.172-4.339-7.812c-1.229-0.798-2.854-1.142-4.094-0.574c-0.55,0.273-0.862,0.945-1.037,1.645
					c-0.145,0.719-0.229,1.464-0.229,2.22c-0.032,3.031,0.471,6.045,0.624,9.067c0.092,3.04-0.174,6.01-0.637,8.911
					c-0.916,5.801-2.701,11.26-4.916,16.288c-2.398,4.938-4.199,9.882-5.482,14.805c-1.31,4.901-2.256,9.703-2.868,14.312
					l-0.007,0.058l-0.025,0.045c-9.245,16.644-16.729,30.12-21.916,39.458c-2.595,4.633-4.611,8.236-5.994,10.706
					c-0.684,1.205-1.209,2.13-1.576,2.774C267.001,364.247,266.799,364.558,266.799,364.558z"/>
			</g>
		</g>
	</g>
	<g>
		<g>
			<path fill="#F8BF9D" d="M456.268,548.633c0.641,0-25.863-22.703-34.191-24.201c-8.33-1.5-23.278,2.568-23.278,2.568
				s1.709,7.592,7.477,7.973c5.764,0.381,12.601,0,12.601,0l9.396,6.803l-5.649-2.549c-1.882-0.85-3.977-1.096-6.006-0.707
				c-6.413,1.232-20.603,3.949-21.9,4.113c-1.683,0.213-8.088,1.283-3.817,10.49c0,0-6.41,7.711,6.192,9.639
				c12.6,1.926,24.928,2.996,24.928,2.996l9.674,4.926c0,0-22.428-0.215-26.058,0.857c-3.632,1.07-3.202,4.066-1.497,5.781
				c1.709,1.713,25.417,0.641,29.473,3.424c4.062,2.785,17.729,13.063,25.202,12.207c7.479-0.857,16.874-7.709,18.156-8.354
				c1.28-0.643,82.257-92.086,82.257-92.086l-49.318-33.436c0,0-44.244,82.404-47.393,87.232
				C459.194,551.399,456.268,548.633,456.268,548.633z"/>
			<g>
				<path fill="#F69A6C" d="M440.508,556.77c-0.023,0.051-0.7-0.211-1.906-0.713c-1.342-0.568-3.05-1.291-5.091-2.152
					c-2.149-0.904-4.71-1.986-7.582-3.092c-1.438-0.547-2.957-1.109-4.543-1.547c-1.534-0.385-3.294-0.201-5.043-0.104
					c-7.057,0.678-13.402,1.912-17.995,2.709c-2.178,0.391-4.002,0.721-5.44,0.979c-1.286,0.225-2.002,0.328-2.012,0.273
					c-0.014-0.051,0.682-0.258,1.948-0.572c1.271-0.313,3.11-0.74,5.396-1.223c4.576-0.938,10.902-2.262,18.038-2.947
					c1.786-0.094,3.554-0.293,5.302,0.145c1.65,0.465,3.165,1.047,4.607,1.615c2.878,1.148,5.418,2.285,7.544,3.256
					c2.126,0.975,3.829,1.797,4.996,2.385C439.897,556.37,440.528,556.721,440.508,556.77z"/>
			</g>
		</g>
		<g>
			<path fill="#F69A6C" d="M534.557,466.499c-0.03,0.148-2.104-0.332-5.498-0.479c-1.698-0.09-3.72-0.02-5.949,0.223
				c-2.221,0.277-4.646,0.758-7.118,1.52c-2.46,0.795-4.721,1.797-6.701,2.846c-1.962,1.084-3.66,2.189-5,3.234
				c-2.699,2.074-4.122,3.658-4.231,3.555c-0.04-0.037,0.293-0.451,0.932-1.174c0.313-0.365,0.715-0.801,1.222-1.262
				c0.502-0.465,1.049-1.025,1.733-1.553c1.317-1.119,3.018-2.295,4.998-3.436c2.004-1.104,4.301-2.146,6.816-2.957
				c2.522-0.781,5.003-1.246,7.271-1.494c2.276-0.203,4.342-0.217,6.06-0.057c0.861,0.037,1.633,0.184,2.31,0.273
				c0.68,0.088,1.254,0.213,1.724,0.334C534.061,466.299,534.569,466.446,534.557,466.499z"/>
		</g>
	</g>
</g>
</svg>
